<?xml version="1.0" encoding="UTF-8"?>
<!DOCTYPE svg PUBLIC "-//W3C//DTD SVG 1.1//EN" "http://www.w3.org/Graphics/SVG/1.1/DTD/svg11.dtd">
<svg xmlns="http://www.w3.org/2000/svg" version="1.1" width="235px" height="77px" style="shape-rendering:geometricPrecision; text-rendering:geometricPrecision; image-rendering:optimizeQuality; fill-rule:evenodd; clip-rule:evenodd" xmlns:xlink="http://www.w3.org/1999/xlink">
<g><path style="opacity:0.99" fill="#fd9211" d="M 57.5,24.5 C 57.5,23.8333 57.1667,23.5 56.5,23.5C 56.1667,23.5 55.8333,23.5 55.5,23.5C 55.5,22.8333 55.1667,22.5 54.5,22.5C 54.5,21.8333 54.1667,21.5 53.5,21.5C 50.0746,14.5602 51.0746,8.39356 56.5,3C 72.582,-0.25181 78.082,5.91486 73,21.5C 68.4367,25.4679 63.27,26.4679 57.5,24.5 Z"/></g>
<g><path style="opacity:1" fill="#fff7ed" d="M 61.5,4.5 C 65.8243,4.15767 67.8243,6.15767 67.5,10.5C 67.7823,13.0423 66.949,15.0423 65,16.5C 64.5,16.1667 64,15.8333 63.5,15.5C 65.3925,13.1192 65.8925,10.4525 65,7.5C 63.9887,6.66337 62.8221,6.33003 61.5,6.5C 61.762,7.97782 61.4287,9.31116 60.5,10.5C 59.2302,8.24319 59.5636,6.24319 61.5,4.5 Z"/></g>
<g><path style="opacity:1" fill="#f58b07" d="M 32.5,18.5 C 39.9918,20.2945 47.3251,21.9612 54.5,23.5C 54.9528,24.4584 55.6195,25.2917 56.5,26C 53.62,26.6841 50.7866,26.5174 48,25.5C 46.4411,26.0294 44.9411,26.696 43.5,27.5C 36.5553,22.3243 29.8886,22.6577 23.5,28.5C 22.2438,28.5386 21.2438,28.0386 20.5,27C 21.7101,25.9609 22.7101,24.7942 23.5,23.5C 26.7883,22.2716 29.7883,20.6049 32.5,18.5 Z"/></g>
<g><path style="opacity:1" fill="#a16936" d="M 32.5,18.5 C 39.4672,18.2673 46.4672,19.2673 53.5,21.5C 54.1667,21.5 54.5,21.8333 54.5,22.5C 54.5,22.8333 54.5,23.1667 54.5,23.5C 47.3251,21.9612 39.9918,20.2945 32.5,18.5 Z"/></g>
<g><path style="opacity:1" fill="#fff8f0" d="M 60.5,11.5 C 61.675,11.281 62.675,11.6143 63.5,12.5C 61.7397,15.2123 61.073,18.2123 61.5,21.5C 62.8333,21.5 64.1667,21.5 65.5,21.5C 65.238,20.0222 65.5713,18.6888 66.5,17.5C 67.8832,21.9539 66.2166,23.7873 61.5,23C 59.2297,19.3904 58.8963,15.5571 60.5,11.5 Z"/></g>
<g><path style="opacity:1" fill="#a7682b" d="M 32.5,18.5 C 29.7883,20.6049 26.7883,22.2716 23.5,23.5C 23.1583,22.6618 22.4916,22.3284 21.5,22.5C 24.6599,20 28.3266,18.6667 32.5,18.5 Z"/></g>
<g><path style="opacity:1" fill="#f48a06" d="M 19.5,23.5 C 20.2389,23.369 20.9056,23.5357 21.5,24C 17.245,28.9692 15.245,34.8025 15.5,41.5C 16,43.5 16.5,45.5 17,47.5C 16.3301,42.3358 17.1634,37.3358 19.5,32.5C 20.2975,32.9569 20.6309,33.6236 20.5,34.5C 20.5,35.5 20.5,36.5 20.5,37.5C 19.1081,42.0862 19.7748,46.4196 22.5,50.5C 26.9487,58.0578 33.6153,61.3911 42.5,60.5C 42.7394,62.4672 42.4061,64.3005 41.5,66C 35.9836,66.8174 30.6503,66.6507 25.5,65.5C 25.822,63.2776 25.1554,61.4443 23.5,60C 19.5138,59.5012 15.5138,59.3345 11.5,59.5C 3.58939,51.1291 2.58939,42.1291 8.5,32.5C 10.1667,31.5 11.5,30.1667 12.5,28.5C 15.117,27.2141 17.4504,25.5475 19.5,23.5 Z"/></g>
<g><path style="opacity:0.992" fill="#9f6a33" d="M 19.5,23.5 C 17.4504,25.5475 15.117,27.2141 12.5,28.5C 13.9923,25.6769 16.3257,24.0102 19.5,23.5 Z"/></g>
<g><path style="opacity:1" fill="#b7a98c" d="M 54.5,23.5 C 54.8333,23.5 55.1667,23.5 55.5,23.5C 55.8333,23.5 56.1667,23.5 56.5,23.5C 57.1667,23.5 57.5,23.8333 57.5,24.5C 59.2417,27.6434 61.2417,30.6434 63.5,33.5C 62.9204,36.3106 62.2537,38.9773 61.5,41.5C 56.8052,43.5492 55.4718,46.8825 57.5,51.5C 56.0953,55.2359 53.4287,57.5692 49.5,58.5C 47.079,58.8782 44.7457,59.5448 42.5,60.5C 33.6153,61.3911 26.9487,58.0578 22.5,50.5C 23.2026,48.2843 24.5359,46.451 26.5,45C 25.0842,42.7355 23.0842,41.5688 20.5,41.5C 20.5,40.1667 20.5,38.8333 20.5,37.5C 20.5,36.5 20.5,35.5 20.5,34.5C 21.2008,32.4123 22.2008,30.4123 23.5,28.5C 29.8886,22.6577 36.5553,22.3243 43.5,27.5C 44.9411,26.696 46.4411,26.0294 48,25.5C 50.7866,26.5174 53.62,26.6841 56.5,26C 55.6195,25.2917 54.9528,24.4584 54.5,23.5 Z"/></g>
<g><path style="opacity:1" fill="#d07611" d="M 19.5,23.5 C 19.8417,22.6618 20.5084,22.3284 21.5,22.5C 22.4916,22.3284 23.1583,22.6618 23.5,23.5C 22.7101,24.7942 21.7101,25.9609 20.5,27C 21.2438,28.0386 22.2438,28.5386 23.5,28.5C 22.2008,30.4123 21.2008,32.4123 20.5,34.5C 20.6309,33.6236 20.2975,32.9569 19.5,32.5C 17.1634,37.3358 16.3301,42.3358 17,47.5C 16.5,45.5 16,43.5 15.5,41.5C 15.245,34.8025 17.245,28.9692 21.5,24C 20.9056,23.5357 20.2389,23.369 19.5,23.5 Z"/></g>
<g><path style="opacity:0.667" fill="#926947" d="M 12.5,28.5 C 11.5,30.1667 10.1667,31.5 8.5,32.5C 8.83333,30.1667 10.1667,28.8333 12.5,28.5 Z"/></g>
<g><path style="opacity:1" fill="#1a1918" d="M 39.5,32.5 C 38.6236,32.3691 37.9569,32.7025 37.5,33.5C 39.344,37.4414 38.1773,40.108 34,41.5C 33.0497,40.9777 32.2164,40.311 31.5,39.5C 31.5105,40.4415 31.0105,41.1081 30,41.5C 28.7753,41.1377 27.6086,40.6377 26.5,40C 26.1408,37.3695 25.1408,35.2029 23.5,33.5C 26.356,31.9942 29.5226,31.3275 33,31.5C 35.3608,31.5039 37.5274,31.8373 39.5,32.5 Z"/></g>
<g><path style="opacity:1" fill="#1a1a1a" d="M 60.5,35.5 C 59.3104,37.3545 57.9771,39.1879 56.5,41C 54.0288,41.7063 51.6954,41.373 49.5,40C 49.12,37.6742 48.12,35.8409 46.5,34.5C 51.3478,31.6874 56.0145,32.0207 60.5,35.5 Z"/></g>
<g><path style="opacity:0.766" fill="#fd8d00" d="M 209.5,34.5 C 211.246,35.2495 212.246,36.5828 212.5,38.5C 212.331,45.3984 212.331,52.3984 212.5,59.5C 210.167,59.5 207.833,59.5 205.5,59.5C 205.334,53.8236 205.501,48.1569 206,42.5C 207.628,41.1813 207.461,39.8479 205.5,38.5C 206.549,36.7844 207.882,35.4511 209.5,34.5 Z"/></g>
<g><path style="opacity:1" fill="#d7d7d8" d="M 55.5,34.5 C 57.4646,34.9483 57.7979,35.9483 56.5,37.5C 55.6143,36.675 55.281,35.675 55.5,34.5 Z"/></g>
<g><path style="opacity:0.824" fill="#fc8d00" d="M 149.5,47.5 C 148.5,47.5 147.5,47.5 146.5,47.5C 146.5,51.5 146.5,55.5 146.5,59.5C 144.167,59.5 141.833,59.5 139.5,59.5C 139.864,54.5163 139.197,49.6829 137.5,45C 138.399,39.9961 141.232,36.8294 146,35.5C 146.873,35.7355 147.707,36.0688 148.5,36.5C 148.264,40.1465 148.597,43.8131 149.5,47.5 Z"/></g>
<g><path style="opacity:0.823" fill="#fc8d00" d="M 83.5,36.5 C 86.6074,36.3512 89.6074,36.8512 92.5,38C 94.4506,39.7342 95.4506,41.9009 95.5,44.5C 92.3056,44.7305 89.3056,44.0638 86.5,42.5C 85.8333,42.8333 85.1667,43.1667 84.5,43.5C 88.167,44.5759 91.5004,46.2425 94.5,48.5C 97.0905,55.9201 94.4239,59.9201 86.5,60.5C 81.2959,60.4593 77.9626,57.9593 76.5,53C 76.6448,52.228 76.9781,51.5613 77.5,51C 78.8333,50.6667 80.1667,50.3333 81.5,50C 77.7084,47.9473 76.5418,44.7806 78,40.5C 79.4998,38.5313 81.3331,37.198 83.5,36.5 Z M 82.5,51.5 C 82.56,50.9569 82.8933,50.6236 83.5,50.5C 85.2251,51.0149 86.8917,51.6816 88.5,52.5C 86.1937,53.7709 84.1937,53.4376 82.5,51.5 Z"/></g>
<g><path style="opacity:0.825" fill="#fc8d00" d="M 97.5,36.5 C 99.7925,36.2436 101.959,36.5769 104,37.5C 104.5,44.8258 104.666,52.1591 104.5,59.5C 102.167,59.5 99.8333,59.5 97.5,59.5C 97.5,51.8333 97.5,44.1667 97.5,36.5 Z"/></g>
<g><path style="opacity:0.797" fill="#fd8d00" d="M 168.5,36.5 C 174.362,35.1945 176.862,37.5279 176,43.5C 179.199,40.8705 182.199,41.2039 185,44.5C 185.499,49.4889 185.666,54.4889 185.5,59.5C 183.167,59.5 180.833,59.5 178.5,59.5C 178.924,55.2968 178.424,51.2968 177,47.5C 175.576,51.2968 175.076,55.2968 175.5,59.5C 172.833,59.5 170.167,59.5 167.5,59.5C 168.143,51.8501 168.477,44.1834 168.5,36.5 Z"/></g>
<g><path style="opacity:1" fill="#e0e0df" d="M 39.5,32.5 C 43.5685,39.8132 41.2352,43.4798 32.5,43.5C 27.1363,43.4778 23.803,40.8111 22.5,35.5C 22.5427,34.5836 22.8761,33.9169 23.5,33.5C 25.1408,35.2029 26.1408,37.3695 26.5,40C 27.6086,40.6377 28.7753,41.1377 30,41.5C 31.0105,41.1081 31.5105,40.4415 31.5,39.5C 32.2164,40.311 33.0497,40.9777 34,41.5C 38.1773,40.108 39.344,37.4414 37.5,33.5C 37.9569,32.7025 38.6236,32.3691 39.5,32.5 Z"/></g>
<g><path style="opacity:1" fill="#d8d8d8" d="M 33.5,34.5 C 34.1894,33.2264 35.0228,33.2264 36,34.5C 36.7805,35.9437 36.6139,37.277 35.5,38.5C 34.8281,37.0508 34.1614,35.7175 33.5,34.5 Z"/></g>
<g><path style="opacity:1" fill="#d2d2d2" d="M 27.5,34.5 C 29.4646,34.9483 29.7979,35.9483 28.5,37.5C 27.6143,36.675 27.281,35.675 27.5,34.5 Z"/></g>
<g><path style="opacity:1" fill="#e9e9e8" d="M 46.5,34.5 C 48.12,35.8409 49.12,37.6742 49.5,40C 51.6954,41.373 54.0288,41.7063 56.5,41C 57.9771,39.1879 59.3104,37.3545 60.5,35.5C 58.9257,43.9843 54.5924,45.651 47.5,40.5C 46.6518,38.5914 46.3184,36.5914 46.5,34.5 Z"/></g>
<g><path style="opacity:1" fill="#9a9a9a" d="M 50.5,35.5 C 52.337,35.6395 52.6704,36.3061 51.5,37.5C 50.7025,37.0431 50.3691,36.3764 50.5,35.5 Z"/></g>
<g><path style="opacity:0.796" fill="#fc8d00" d="M 112.5,41.5 C 119.786,41.453 123.453,45.1196 123.5,52.5C 119.774,52.1774 116.107,52.5108 112.5,53.5C 116.128,53.5676 119.795,53.901 123.5,54.5C 120.159,59.8911 115.492,61.3911 109.5,59C 103.651,51.924 104.651,46.0906 112.5,41.5 Z"/></g>
<g><path style="opacity:0.79" fill="#fc8d00" d="M 125.5,41.5 C 128.044,41.1043 130.211,41.771 132,43.5C 133.11,41.9632 134.61,41.2965 136.5,41.5C 136.5,43.8333 136.5,46.1667 136.5,48.5C 134.856,48.2865 133.356,48.6198 132,49.5C 131.502,52.8168 131.335,56.1501 131.5,59.5C 129.167,59.5 126.833,59.5 124.5,59.5C 124.211,53.4093 124.545,47.4093 125.5,41.5 Z"/></g>
<g><path style="opacity:0.78" fill="#fc8d00" d="M 149.5,47.5 C 154.211,40.4653 159.711,39.7986 166,45.5C 166.494,47.1341 166.66,48.8008 166.5,50.5C 163.254,50.8649 160.588,49.8649 158.5,47.5C 157.054,48.1709 156.388,49.3376 156.5,51C 156.913,54.7169 158.246,55.2169 160.5,52.5C 162.396,51.5344 164.396,51.2011 166.5,51.5C 165.555,59.4513 161.222,61.9513 153.5,59C 150.034,55.9597 148.7,52.1264 149.5,47.5 Z"/></g>
<g><path style="opacity:0.795" fill="#fd8d00" d="M 193.5,41.5 C 197.115,41.2055 200.282,42.2055 203,44.5C 203.499,49.4889 203.666,54.4889 203.5,59.5C 199.7,58.5721 196.2,58.9054 193,60.5C 185.114,57.4815 184.614,53.6482 191.5,49C 190.062,48.7811 188.729,48.2811 187.5,47.5C 188.641,44.4776 190.641,42.4776 193.5,41.5 Z"/></g>
<g><path style="opacity:0.803" fill="#fc8d00" d="M 215.5,41.5 C 218.044,41.1043 220.211,41.771 222,43.5C 225.374,40.5948 228.374,40.9281 231,44.5C 232.388,49.3722 232.888,54.3722 232.5,59.5C 230.167,59.5 227.833,59.5 225.5,59.5C 225.924,55.2968 225.424,51.2968 224,47.5C 223.586,47.9574 223.086,48.2907 222.5,48.5C 221.511,52.1073 221.177,55.774 221.5,59.5C 219.167,59.5 216.833,59.5 214.5,59.5C 214.211,53.4093 214.545,47.4093 215.5,41.5 Z"/></g>
<g><path style="opacity:1" fill="#935511" d="M 20.5,37.5 C 20.5,38.8333 20.5,40.1667 20.5,41.5C 23.0842,41.5688 25.0842,42.7355 26.5,45C 24.5359,46.451 23.2026,48.2843 22.5,50.5C 19.7748,46.4196 19.1081,42.0862 20.5,37.5 Z"/></g>
<g><path style="opacity:0.761" fill="#725434" d="M 61.5,41.5 C 60.2888,44.9345 58.9555,48.2678 57.5,51.5C 55.4718,46.8825 56.8052,43.5492 61.5,41.5 Z"/></g>
<g><path style="opacity:1" fill="#252623" d="M 8.5,32.5 C 2.58939,42.1291 3.58939,51.1291 11.5,59.5C 11.5,62.5 11.5,65.5 11.5,68.5C 6.12131,67.302 2.12131,68.9687 -0.5,73.5C -0.5,61.1667 -0.5,48.8333 -0.5,36.5C 1.54408,35.9688 3.21075,34.8022 4.5,33C 5.79323,32.51 7.12656,32.3433 8.5,32.5 Z"/></g>
<g><path style="opacity:1" fill="#8d5110" d="M 43.5,51.5 C 48.3056,51.0486 48.4722,50.3819 44,49.5C 42.8333,49.8333 41.6667,50.1667 40.5,50.5C 40.6236,51.1067 40.9569,51.44 41.5,51.5C 41.5,52.5 41.5,53.5 41.5,54.5C 36.7193,53.909 35.0526,51.409 36.5,47C 39.2027,45.2616 41.8694,45.4283 44.5,47.5C 48.1652,45.6611 50.8319,46.6611 52.5,50.5C 50.2572,53.3651 47.2572,54.6984 43.5,54.5C 43.5,53.5 43.5,52.5 43.5,51.5 Z"/></g>
<g><path style="opacity:1" fill="#110a07" d="M 43.5,51.5 C 42.8333,51.5 42.1667,51.5 41.5,51.5C 40.9569,51.44 40.6236,51.1067 40.5,50.5C 41.6667,50.1667 42.8333,49.8333 44,49.5C 48.4722,50.3819 48.3056,51.0486 43.5,51.5 Z"/></g>
<g><path style="opacity:1" fill="#859b9c" d="M 11.5,59.5 C 15.5138,59.3345 19.5138,59.5012 23.5,60C 25.1554,61.4443 25.822,63.2776 25.5,65.5C 24.5489,66.9187 24.2155,68.5853 24.5,70.5C 20.686,70.6509 19.0193,72.6509 19.5,76.5C 17.8333,76.5 16.1667,76.5 14.5,76.5C 18.8075,72.0931 17.8075,69.4264 11.5,68.5C 11.5,65.5 11.5,62.5 11.5,59.5 Z"/></g>
<g><path style="opacity:0.921" fill="#272a28" d="M 49.5,58.5 C 47.1619,59.6817 45.1619,61.3483 43.5,63.5C 44.1667,64.8333 44.8333,66.1667 45.5,67.5C 48.8815,70.2148 51.8815,73.2148 54.5,76.5C 47.5,76.5 40.5,76.5 33.5,76.5C 30.6385,74.2399 27.6385,72.2399 24.5,70.5C 24.2155,68.5853 24.5489,66.9187 25.5,65.5C 30.6503,66.6507 35.9836,66.8174 41.5,66C 42.4061,64.3005 42.7394,62.4672 42.5,60.5C 44.7457,59.5448 47.079,58.8782 49.5,58.5 Z"/></g>
<g><path style="opacity:0.918" fill="#ee8609" d="M 11.5,68.5 C 17.8075,69.4264 18.8075,72.0931 14.5,76.5C 9.5,76.5 4.5,76.5 -0.5,76.5C -0.5,75.5 -0.5,74.5 -0.5,73.5C 2.12131,68.9687 6.12131,67.302 11.5,68.5 Z"/></g>
<g><path style="opacity:0.886" fill="#e4810d" d="M 24.5,70.5 C 27.6385,72.2399 30.6385,74.2399 33.5,76.5C 28.8333,76.5 24.1667,76.5 19.5,76.5C 19.0193,72.6509 20.686,70.6509 24.5,70.5 Z"/></g>
</svg>
