<svg width="30" height="30" viewBox="0 0 30 30" fill="none" xmlns="http://www.w3.org/2000/svg">
<g clip-path="url(#clip0_2683_10713)">
<mask id="mask0_2683_10713" style="mask-type:luminance" maskUnits="userSpaceOnUse" x="0" y="18" width="1" height="2">
<path d="M0.484523 19.1419C0.584808 19.4136 0.671025 19.7651 0.677832 19.9119C0.696437 20.0328 0.671025 19.9984 0.617933 19.8539C0.532321 19.5821 0.455027 19.3079 0.386053 19.0313C0.381969 19.0069 0.37607 18.9833 0.370625 18.9589C0.341129 18.7881 0.393314 18.8656 0.484523 19.1419Z" fill="white"/>
</mask>
<g mask="url(#mask0_2683_10713)">
<path d="M0.696433 18.7881H0.341125V20.0346H0.696433V18.7881Z" fill="url(#paint0_linear_2683_10713)"/>
</g>
<mask id="mask1_2683_10713" style="mask-type:luminance" maskUnits="userSpaceOnUse" x="1" y="21" width="1" height="1">
<path d="M1.24823 21.495C1.31584 21.6404 1.38436 21.7849 1.44517 21.9167V21.9203C1.36349 21.7536 1.28514 21.5862 1.21011 21.418C1.22436 21.4428 1.23708 21.4686 1.24823 21.495Z" fill="white"/>
</mask>
<g mask="url(#mask1_2683_10713)">
<path d="M1.44517 21.418H1.21011V21.9203H1.44517V21.418Z" fill="url(#paint1_linear_2683_10713)"/>
</g>
<mask id="mask2_2683_10713" style="mask-type:luminance" maskUnits="userSpaceOnUse" x="1" y="9" width="1" height="1">
<path d="M1.44517 9.08154V9.08381C1.38391 9.21607 1.31584 9.3601 1.24823 9.50459C1.23727 9.53152 1.22454 9.5577 1.21011 9.58295C1.28544 9.414 1.36168 9.24732 1.44517 9.08154Z" fill="white"/>
</mask>
<g mask="url(#mask2_2683_10713)">
<path d="M1.44517 9.08154H1.21011V9.58295H1.44517V9.08154Z" fill="url(#paint2_linear_2683_10713)"/>
</g>
<mask id="mask3_2683_10713" style="mask-type:luminance" maskUnits="userSpaceOnUse" x="0" y="11" width="1" height="2">
<path d="M0.677792 11.088C0.670986 11.2365 0.587037 11.5862 0.484483 11.858C0.393728 12.1329 0.34109 12.2104 0.370585 12.0391C0.37603 12.0147 0.38193 11.9911 0.386014 11.9676C0.454988 11.6916 0.532281 11.4177 0.617894 11.1459C0.670986 11.0005 0.696397 10.967 0.677792 11.088Z" fill="white"/>
</mask>
<g mask="url(#mask3_2683_10713)">
<path d="M0.696433 10.9668H0.341125V12.2119H0.696433V10.9668Z" fill="url(#paint3_linear_2683_10713)"/>
</g>
<mask id="mask4_2683_10713" style="mask-type:luminance" maskUnits="userSpaceOnUse" x="0" y="13" width="1" height="2">
<path d="M0.192402 13.6821C0.21662 13.9707 0.193941 14.2613 0.125243 14.5427C0.0689741 14.7841 0.012252 14.8099 0 14.5929C0.00520476 14.3169 0.0283964 14.0416 0.0694279 13.7686C0.118436 13.5276 0.173343 13.476 0.192402 13.6821Z" fill="white"/>
</mask>
<g mask="url(#mask4_2683_10713)">
<path d="M0.221443 13.4761H0V14.8109H0.221443V13.4761Z" fill="url(#paint4_linear_2683_10713)"/>
</g>
<mask id="mask5_2683_10713" style="mask-type:luminance" maskUnits="userSpaceOnUse" x="0" y="16" width="1" height="2">
<path d="M0.125243 16.4571C0.194052 16.7384 0.216732 17.0291 0.192402 17.3177C0.173343 17.5251 0.118436 17.4744 0.0694279 17.2316C0.0284706 16.9588 0.00527929 16.6835 0 16.4077C0.012252 16.1885 0.0689742 16.2152 0.125243 16.4571Z" fill="white"/>
</mask>
<g mask="url(#mask5_2683_10713)">
<path d="M0.221443 16.189H0V17.5251H0.221443V16.189Z" fill="url(#paint5_linear_2683_10713)"/>
</g>
<mask id="mask6_2683_10713" style="mask-type:luminance" maskUnits="userSpaceOnUse" x="1" y="19" width="1" height="2">
<path d="M1.49777 19.6509C1.67928 19.949 1.75415 20.3548 1.66975 20.5495C1.59442 20.7307 1.4052 20.6401 1.24365 20.3539C1.08211 20.0676 1.00905 19.689 1.06214 19.4956C1.12885 19.2886 1.3217 19.3479 1.49777 19.6509Z" fill="white"/>
</mask>
<g mask="url(#mask6_2683_10713)">
<path d="M1.75407 19.2886H1.00851V20.7298H1.75407V19.2886Z" fill="url(#paint6_linear_2683_10713)"/>
</g>
<mask id="mask7_2683_10713" style="mask-type:luminance" maskUnits="userSpaceOnUse" x="1" y="22" width="2" height="2">
<path d="M2.16568 22.3634C2.36081 22.641 2.48333 22.9789 2.44294 23.1053C2.40845 23.2126 2.24056 23.0795 2.05587 22.8041C1.87118 22.5287 1.74911 22.2153 1.765 22.0948C1.78769 21.9539 1.97419 22.0816 2.16568 22.3634Z" fill="white"/>
</mask>
<g mask="url(#mask7_2683_10713)">
<path d="M2.48423 21.9536H1.74911V23.2123H2.48423V21.9536Z" fill="url(#paint7_linear_2683_10713)"/>
</g>
<mask id="mask8_2683_10713" style="mask-type:luminance" maskUnits="userSpaceOnUse" x="2" y="24" width="2" height="2">
<path d="M3.15545 24.5001C3.37009 24.7542 3.52573 24.9834 3.52573 25.0219C3.53163 25.0364 3.5103 25.016 3.47173 24.9725C3.2518 24.7177 3.04231 24.4569 2.84325 24.1903C2.82691 24.1667 2.81058 24.1418 2.80332 24.1296C2.79197 24.0852 2.94717 24.2406 3.15545 24.5001Z" fill="white"/>
</mask>
<g mask="url(#mask8_2683_10713)">
<path d="M3.53153 24.0854H2.79187V25.0366H3.53153V24.0854Z" fill="url(#paint8_linear_2683_10713)"/>
</g>
<mask id="mask9_2683_10713" style="mask-type:luminance" maskUnits="userSpaceOnUse" x="2" y="5" width="2" height="2">
<path d="M3.52571 5.97781C3.52571 6.01676 3.37006 6.24504 3.15543 6.5005C2.94079 6.75596 2.79241 6.9154 2.8033 6.86965C2.81554 6.84874 2.82887 6.82848 2.84323 6.80896C3.04198 6.54263 3.25133 6.28203 3.47126 6.02718C3.51028 5.9846 3.53161 5.96422 3.52571 5.97781Z" fill="white"/>
</mask>
<g mask="url(#mask9_2683_10713)">
<path d="M3.53153 5.96436H2.79187V6.91553H3.53153V5.96436Z" fill="url(#paint9_linear_2683_10713)"/>
</g>
<mask id="mask10_2683_10713" style="mask-type:luminance" maskUnits="userSpaceOnUse" x="1" y="7" width="2" height="2">
<path d="M2.44343 7.89589C2.48472 8.02226 2.3613 8.35925 2.16617 8.63781C1.97105 8.91637 1.78818 9.04546 1.76549 8.90595C1.74961 8.78411 1.87802 8.47747 2.05636 8.19664C2.23469 7.91582 2.40894 7.78945 2.44343 7.89589Z" fill="white"/>
</mask>
<g mask="url(#mask10_2683_10713)">
<path d="M2.48475 7.78955H1.74963V9.04601H2.48475V7.78955Z" fill="url(#paint10_linear_2683_10713)"/>
</g>
<mask id="mask11_2683_10713" style="mask-type:luminance" maskUnits="userSpaceOnUse" x="1" y="10" width="1" height="2">
<path d="M1.66918 10.4511C1.75449 10.6459 1.67825 11.0517 1.4972 11.3484C1.32249 11.6528 1.12873 11.7108 1.06339 11.5051C1.00848 11.3113 1.08834 10.9367 1.2449 10.6445C1.40145 10.3524 1.59385 10.2722 1.66918 10.4511Z" fill="white"/>
</mask>
<g mask="url(#mask11_2683_10713)">
<path d="M1.75446 10.272H1.00845V11.7119H1.75446V10.272Z" fill="url(#paint11_linear_2683_10713)"/>
</g>
<mask id="mask12_2683_10713" style="mask-type:luminance" maskUnits="userSpaceOnUse" x="0" y="13" width="2" height="2">
<path d="M1.24195 13.4249C1.36174 13.6844 1.33724 14.1206 1.18205 14.4136C1.03865 14.6854 0.836724 14.7003 0.732355 14.4453C0.639331 14.2012 0.667465 13.7849 0.794069 13.5073C0.931563 13.2233 1.13032 13.1875 1.24195 13.4249Z" fill="white"/>
</mask>
<g mask="url(#mask12_2683_10713)">
<path d="M1.36188 13.1875H0.639465V14.6999H1.36188V13.1875Z" fill="url(#paint12_linear_2683_10713)"/>
</g>
<mask id="mask13_2683_10713" style="mask-type:luminance" maskUnits="userSpaceOnUse" x="0" y="16" width="2" height="2">
<path d="M1.18205 16.5879C1.33724 16.8787 1.36356 17.3163 1.24195 17.5758C1.13032 17.8131 0.931563 17.7774 0.794069 17.492C0.667465 17.2157 0.639331 16.7995 0.732355 16.5544C0.836724 16.3003 1.03865 16.3162 1.18205 16.5879Z" fill="white"/>
</mask>
<g mask="url(#mask13_2683_10713)">
<path d="M1.36188 16.3008H0.639465V17.8136H1.36188V16.3008Z" fill="url(#paint13_linear_2683_10713)"/>
</g>
<mask id="mask14_2683_10713" style="mask-type:luminance" maskUnits="userSpaceOnUse" x="2" y="19" width="2" height="3">
<path d="M3.44251 20.0834C3.69436 20.4005 3.75425 20.8489 3.58545 21.0835C3.42481 21.3064 3.10581 21.228 2.86939 20.9168C2.6425 20.6102 2.57353 20.1808 2.71737 19.948C2.87529 19.7175 3.19883 19.7668 3.44251 20.0834Z" fill="white"/>
</mask>
<g mask="url(#mask14_2683_10713)">
<path d="M3.75434 19.7173H2.57361V21.3062H3.75434V19.7173Z" fill="url(#paint14_linear_2683_10713)"/>
</g>
<mask id="mask15_2683_10713" style="mask-type:luminance" maskUnits="userSpaceOnUse" x="3" y="22" width="2" height="2">
<path d="M3.98639 23.0966C4.2455 23.3888 4.34941 23.7702 4.21646 23.9305C4.08668 24.0714 3.79444 23.9595 3.55167 23.6805C3.3089 23.4015 3.20317 23.0432 3.30709 22.8774C3.42507 22.7039 3.73182 22.7991 3.98639 23.0966Z" fill="white"/>
</mask>
<g mask="url(#mask15_2683_10713)">
<path d="M4.34985 22.7041H3.20316V24.0715H4.34985V22.7041Z" fill="url(#paint15_linear_2683_10713)"/>
</g>
<mask id="mask16_2683_10713" style="mask-type:luminance" maskUnits="userSpaceOnUse" x="4" y="25" width="2" height="2">
<path d="M4.79611 25.5041C5.05748 25.756 5.18999 26.0268 5.1015 26.1052C5.01074 26.1609 4.75663 26.0187 4.50751 25.7804C4.25838 25.5422 4.11544 25.2822 4.17988 25.2043C4.25657 25.1128 4.53745 25.2491 4.79611 25.5041Z" fill="white"/>
</mask>
<g mask="url(#mask16_2683_10713)">
<path d="M5.19063 25.1128H4.11563V26.1614H5.19063V25.1128Z" fill="url(#paint16_linear_2683_10713)"/>
</g>
<mask id="mask17_2683_10713" style="mask-type:luminance" maskUnits="userSpaceOnUse" x="5" y="26" width="2" height="2">
<path d="M5.83471 27.1119C6.08974 27.303 6.25264 27.4498 6.19774 27.4262C6.19774 27.4262 6.18548 27.4172 6.18548 27.4185C5.88902 27.2117 5.5992 26.9931 5.31605 26.7627C5.29336 26.7436 5.28337 26.7337 5.29563 26.7414C5.33057 26.7436 5.57243 26.9049 5.83471 27.1119Z" fill="white"/>
</mask>
<g mask="url(#mask17_2683_10713)">
<path d="M6.25259 26.7339H5.28241V27.45H6.25259V26.7339Z" fill="url(#paint17_linear_2683_10713)"/>
</g>
<mask id="mask18_2683_10713" style="mask-type:luminance" maskUnits="userSpaceOnUse" x="5" y="3" width="2" height="2">
<path d="M6.1984 3.57475C6.25285 3.5512 6.08995 3.69795 5.83538 3.88909C5.57309 4.09609 5.33123 4.25733 5.29538 4.2605C5.28313 4.2673 5.29311 4.25598 5.3158 4.23831C5.59896 4.00822 5.88892 3.78854 6.18524 3.5829L6.1984 3.57475Z" fill="white"/>
</mask>
<g mask="url(#mask18_2683_10713)">
<path d="M6.2528 3.55078H5.28262V4.26688H6.2528V3.55078Z" fill="url(#paint18_linear_2683_10713)"/>
</g>
<mask id="mask19_2683_10713" style="mask-type:luminance" maskUnits="userSpaceOnUse" x="4" y="4" width="2" height="2">
<path d="M5.10151 4.8949C5.19 4.97326 5.05614 5.24412 4.79612 5.49596C4.53611 5.74779 4.25658 5.8873 4.17989 5.7958C4.11546 5.71518 4.26384 5.46108 4.50752 5.21966C4.7512 4.97824 5.01303 4.83964 5.10151 4.8949Z" fill="white"/>
</mask>
<g mask="url(#mask19_2683_10713)">
<path d="M5.19063 4.83936H4.11563V5.88791H5.19063V4.83936Z" fill="url(#paint19_linear_2683_10713)"/>
</g>
<mask id="mask20_2683_10713" style="mask-type:luminance" maskUnits="userSpaceOnUse" x="3" y="7" width="2" height="2">
<path d="M4.21693 7.06943C4.35034 7.22932 4.24598 7.61296 3.98687 7.90329C3.72776 8.19363 3.42555 8.29463 3.3062 8.12252C3.20229 7.95674 3.31256 7.60209 3.55079 7.319C3.78902 7.03591 4.08715 6.92992 4.21693 7.06943Z" fill="white"/>
</mask>
<g mask="url(#mask20_2683_10713)">
<path d="M4.35003 6.92969H3.20334V8.29576H4.35003V6.92969Z" fill="url(#paint20_linear_2683_10713)"/>
</g>
<mask id="mask21_2683_10713" style="mask-type:luminance" maskUnits="userSpaceOnUse" x="2" y="9" width="2" height="3">
<path d="M3.5845 9.91758C3.7533 10.1522 3.6934 10.597 3.44156 10.9177C3.19788 11.2347 2.87433 11.2837 2.71551 11.0536C2.57166 10.8207 2.64064 10.3909 2.86753 10.0843C3.10576 9.77309 3.42477 9.69655 3.5845 9.91758Z" fill="white"/>
</mask>
<g mask="url(#mask21_2683_10713)">
<path d="M3.75434 9.69434H2.57361V11.2828H3.75434V9.69434Z" fill="url(#paint21_linear_2683_10713)"/>
</g>
<mask id="mask22_2683_10713" style="mask-type:luminance" maskUnits="userSpaceOnUse" x="2" y="13" width="2" height="2">
<path d="M3.2362 13.2144C3.43949 13.4966 3.41771 13.9912 3.18719 14.3014C2.96529 14.6036 2.63222 14.6135 2.4439 14.3327C2.26512 14.0582 2.28917 13.5881 2.49609 13.2746C2.71072 12.973 3.04062 12.9358 3.2362 13.2144Z" fill="white"/>
</mask>
<g mask="url(#mask22_2683_10713)">
<path d="M3.43909 12.9355H2.26471V14.6151H3.43909V12.9355Z" fill="url(#paint22_linear_2683_10713)"/>
</g>
<mask id="mask23_2683_10713" style="mask-type:luminance" maskUnits="userSpaceOnUse" x="2" y="16" width="2" height="2">
<path d="M3.18715 16.6976C3.41767 17.0097 3.43945 17.5043 3.23616 17.7847C3.04194 18.0633 2.71068 18.0261 2.4965 17.7231C2.28912 17.4106 2.26507 16.9422 2.44386 16.6646C2.63218 16.3856 2.96525 16.3955 3.18715 16.6976Z" fill="white"/>
</mask>
<g mask="url(#mask23_2683_10713)">
<path d="M3.43909 16.3857H2.26471V18.0652H3.43909V16.3857Z" fill="url(#paint23_linear_2683_10713)"/>
</g>
<mask id="mask24_2683_10713" style="mask-type:luminance" maskUnits="userSpaceOnUse" x="5" y="20" width="2" height="2">
<path d="M6.18205 20.4157C6.48699 20.7472 6.52737 21.2246 6.2837 21.4864C6.05136 21.7473 5.62572 21.6857 5.33757 21.3705C5.04942 21.0552 5.00223 20.5882 5.22549 20.3264C5.45328 20.0488 5.88664 20.0927 6.18205 20.4157Z" fill="white"/>
</mask>
<g mask="url(#mask24_2683_10713)">
<path d="M6.52716 20.0488H5.00201V21.7474H6.52716V20.0488Z" fill="url(#paint24_linear_2683_10713)"/>
</g>
<mask id="mask25_2683_10713" style="mask-type:luminance" maskUnits="userSpaceOnUse" x="5" y="23" width="2" height="2">
<path d="M6.57943 23.666C6.8889 23.9681 6.96196 24.3744 6.7505 24.5691C6.54539 24.7503 6.14652 24.6643 5.85384 24.3789C5.56115 24.0936 5.47856 23.6995 5.67233 23.5061C5.87017 23.2959 6.2813 23.3684 6.57943 23.666Z" fill="white"/>
</mask>
<g mask="url(#mask25_2683_10713)">
<path d="M6.96176 23.2959H5.47836V24.7526H6.96176V23.2959Z" fill="url(#paint25_linear_2683_10713)"/>
</g>
<mask id="mask26_2683_10713" style="mask-type:luminance" maskUnits="userSpaceOnUse" x="6" y="26" width="2" height="1">
<path d="M7.16977 26.2821C7.4729 26.5326 7.56864 26.8284 7.39167 26.938C7.23058 27.0408 6.87573 26.9335 6.58622 26.7007C6.29671 26.4679 6.17782 26.1725 6.33573 26.0593C6.5 25.9338 6.87164 26.0271 7.16977 26.2821Z" fill="white"/>
</mask>
<g mask="url(#mask26_2683_10713)">
<path d="M7.56913 25.9341H6.18057V27.0406H7.56913V25.9341Z" fill="url(#paint26_linear_2683_10713)"/>
</g>
<mask id="mask27_2683_10713" style="mask-type:luminance" maskUnits="userSpaceOnUse" x="7" y="27" width="2" height="2">
<path d="M7.92861 28.0607C8.21812 28.2446 8.32975 28.4067 8.19407 28.423C8.07745 28.4307 7.75663 28.2976 7.483 28.1341C7.20938 27.9706 7.07188 27.8084 7.18442 27.7871C7.30603 27.7509 7.64364 27.8732 7.92861 28.0607Z" fill="white"/>
</mask>
<g mask="url(#mask27_2683_10713)">
<path d="M8.3295 27.751H7.07162V28.4304H8.3295V27.751Z" fill="url(#paint27_linear_2683_10713)"/>
</g>
<mask id="mask28_2683_10713" style="mask-type:luminance" maskUnits="userSpaceOnUse" x="7" y="2" width="2" height="2">
<path d="M8.19373 2.57853C8.32987 2.59574 8.21778 2.75654 7.92827 2.94088C7.63876 3.12523 7.30478 3.2516 7.18408 3.21582C7.07154 3.19498 7.21312 3.03917 7.48266 2.86932C7.75221 2.69947 8.07711 2.56992 8.19373 2.57853Z" fill="white"/>
</mask>
<g mask="url(#mask28_2683_10713)">
<path d="M8.32968 2.56982H7.07181V3.25014H8.32968V2.56982Z" fill="url(#paint28_linear_2683_10713)"/>
</g>
<mask id="mask29_2683_10713" style="mask-type:luminance" maskUnits="userSpaceOnUse" x="6" y="4" width="2" height="1">
<path d="M7.39171 4.06356C7.56868 4.17226 7.47294 4.46758 7.16981 4.71941C6.86669 4.97125 6.49959 5.06727 6.33577 4.9409C6.18013 4.82631 6.30219 4.53778 6.58626 4.29954C6.87032 4.06129 7.23062 3.96074 7.39171 4.06356Z" fill="white"/>
</mask>
<g mask="url(#mask29_2683_10713)">
<path d="M7.56889 3.96094H6.18033V5.06747H7.56889V3.96094Z" fill="url(#paint29_linear_2683_10713)"/>
</g>
<mask id="mask30_2683_10713" style="mask-type:luminance" maskUnits="userSpaceOnUse" x="5" y="6" width="2" height="2">
<path d="M6.75005 6.43241C6.96151 6.62717 6.88845 7.03301 6.57897 7.33512C6.28129 7.6327 5.87017 7.70563 5.67142 7.49501C5.47675 7.3016 5.56251 6.91207 5.85293 6.62264C6.14335 6.33321 6.54494 6.24897 6.75005 6.43241Z" fill="white"/>
</mask>
<g mask="url(#mask30_2683_10713)">
<path d="M6.96173 6.24902H5.47833V7.70568H6.96173V6.24902Z" fill="url(#paint30_linear_2683_10713)"/>
</g>
<mask id="mask31_2683_10713" style="mask-type:luminance" maskUnits="userSpaceOnUse" x="4" y="12" width="3" height="3">
<path d="M6.03555 13.0485C6.30373 13.3656 6.28921 13.8865 5.9988 14.2144C5.70838 14.5423 5.27275 14.5532 5.01546 14.2388C4.76543 13.9277 4.78177 13.4285 5.05494 13.0988C5.32811 12.7691 5.76737 12.7514 6.03555 13.0485Z" fill="white"/>
</mask>
<g mask="url(#mask31_2683_10713)">
<path d="M6.30146 12.7515H4.76315V14.5519H6.30146V12.7515Z" fill="url(#paint31_linear_2683_10713)"/>
</g>
<mask id="mask32_2683_10713" style="mask-type:luminance" maskUnits="userSpaceOnUse" x="4" y="16" width="3" height="3">
<path d="M5.99622 16.7883C6.28663 17.1162 6.30115 17.6385 6.03297 17.9542C5.76706 18.2495 5.33007 18.2259 5.05236 17.9039C4.77465 17.5818 4.76466 17.0746 5.01288 16.7625C5.27063 16.4495 5.7117 16.4572 5.99622 16.7883Z" fill="white"/>
</mask>
<g mask="url(#mask32_2683_10713)">
<path d="M6.30131 16.4497H4.763V18.2501H6.30131V16.4497Z" fill="url(#paint32_linear_2683_10713)"/>
</g>
<mask id="mask33_2683_10713" style="mask-type:luminance" maskUnits="userSpaceOnUse" x="8" y="20" width="2" height="2">
<path d="M9.52093 20.6432C9.85219 20.972 9.87896 21.4766 9.58355 21.7679C9.28905 22.0487 8.79444 22.0161 8.46772 21.694C8.141 21.372 8.11059 20.8787 8.39466 20.5875C8.68326 20.2877 9.19149 20.3153 9.52093 20.6432Z" fill="white"/>
</mask>
<g mask="url(#mask33_2683_10713)">
<path d="M9.87909 20.2876H8.11072V22.0486H9.87909V20.2876Z" fill="url(#paint33_linear_2683_10713)"/>
</g>
<mask id="mask34_2683_10713" style="mask-type:luminance" maskUnits="userSpaceOnUse" x="8" y="23" width="3" height="3">
<path d="M9.76015 24.0547C10.0855 24.3459 10.1263 24.7699 9.85499 24.9968C9.59043 25.2151 9.12123 25.1626 8.80041 24.8817C8.47959 24.6009 8.43058 24.1847 8.68152 23.9496C8.9438 23.7073 9.42844 23.7521 9.76015 24.0547Z" fill="white"/>
</mask>
<g mask="url(#mask34_2683_10713)">
<path d="M10.126 23.7075H8.43027V25.2135H10.126V23.7075Z" fill="url(#paint34_linear_2683_10713)"/>
</g>
<mask id="mask35_2683_10713" style="mask-type:luminance" maskUnits="userSpaceOnUse" x="8" y="26" width="3" height="2">
<path d="M10.1035 26.8064C10.4211 27.0415 10.4688 27.3499 10.2305 27.5003C10.0036 27.6362 9.58071 27.5719 9.26579 27.3495C8.96902 27.1289 8.89006 26.8222 9.10606 26.6655C9.34747 26.507 9.784 26.5627 10.1035 26.8064Z" fill="white"/>
</mask>
<g mask="url(#mask35_2683_10713)">
<path d="M10.4684 26.5068H8.89017V27.6378H10.4684V26.5068Z" fill="url(#paint35_linear_2683_10713)"/>
</g>
<mask id="mask36_2683_10713" style="mask-type:luminance" maskUnits="userSpaceOnUse" x="9" y="28" width="2" height="2">
<path d="M10.5496 28.702C10.8491 28.8632 10.9036 29.0367 10.7125 29.0947C10.5092 29.1359 10.1312 29.0557 9.85034 28.9135C9.56945 28.7713 9.47143 28.591 9.6593 28.5307C9.85987 28.4601 10.2556 28.533 10.5496 28.702Z" fill="white"/>
</mask>
<g mask="url(#mask36_2683_10713)">
<path d="M10.9035 28.46H9.46915V29.1357H10.9035V28.46Z" fill="url(#paint36_linear_2683_10713)"/>
</g>
<mask id="mask37_2683_10713" style="mask-type:luminance" maskUnits="userSpaceOnUse" x="10" y="29" width="2" height="1">
<path d="M11.0721 29.5902C11.245 29.6395 11.3416 29.6722 11.3366 29.6762C10.967 29.5947 10.6009 29.4985 10.2385 29.3877C10.2629 29.3874 10.2871 29.3913 10.3102 29.399C10.5677 29.4477 10.8221 29.5115 11.0721 29.5902Z" fill="white"/>
</mask>
<g mask="url(#mask37_2683_10713)">
<path d="M11.3412 29.3848H10.2385V29.6756H11.3412V29.3848Z" fill="url(#paint37_linear_2683_10713)"/>
</g>
<mask id="mask38_2683_10713" style="mask-type:luminance" maskUnits="userSpaceOnUse" x="10" y="1" width="2" height="1">
<path d="M11.3366 1.32422C11.3416 1.32875 11.2459 1.36136 11.0721 1.40937C10.8221 1.48838 10.5677 1.55266 10.3102 1.60187C10.2871 1.60964 10.2629 1.61347 10.2385 1.6132C10.6012 1.50238 10.9673 1.40605 11.3366 1.32422Z" fill="white"/>
</mask>
<g mask="url(#mask38_2683_10713)">
<path d="M11.3412 1.32422H10.2385V1.61501H11.3412V1.32422Z" fill="url(#paint38_linear_2683_10713)"/>
</g>
<mask id="mask39_2683_10713" style="mask-type:luminance" maskUnits="userSpaceOnUse" x="9" y="1" width="2" height="2">
<path d="M10.7121 1.90626C10.9032 1.96424 10.8483 2.13772 10.5492 2.29896C10.2565 2.46791 9.85947 2.54038 9.65663 2.47017C9.46877 2.40948 9.56951 2.2351 9.84767 2.08744C10.1258 1.93978 10.5088 1.86504 10.7121 1.90626Z" fill="white"/>
</mask>
<g mask="url(#mask39_2683_10713)">
<path d="M10.9034 1.86523H9.46899V2.54102H10.9034V1.86523Z" fill="url(#paint39_linear_2683_10713)"/>
</g>
<mask id="mask40_2683_10713" style="mask-type:luminance" maskUnits="userSpaceOnUse" x="8" y="3" width="3" height="2">
<path d="M10.2309 3.50095C10.4692 3.64952 10.4197 3.95978 10.1039 4.19441C9.78623 4.43854 9.34561 4.49561 9.10557 4.33572C8.88957 4.17901 8.96943 3.87327 9.2653 3.65088C9.58112 3.42939 10.0027 3.36326 10.2309 3.50095Z" fill="white"/>
</mask>
<g mask="url(#mask40_2683_10713)">
<path d="M10.4686 3.36328H8.89041V4.49563H10.4686V3.36328Z" fill="url(#paint40_linear_2683_10713)"/>
</g>
<mask id="mask41_2683_10713" style="mask-type:luminance" maskUnits="userSpaceOnUse" x="8" y="5" width="3" height="3">
<path d="M9.85498 6.00641C10.1272 6.23288 10.0855 6.65729 9.76014 6.94853C9.42843 7.24928 8.94334 7.29276 8.68151 7.05225C8.43057 6.81854 8.48548 6.40364 8.8004 6.12146C9.11532 5.83928 9.59043 5.78809 9.85498 6.00641Z" fill="white"/>
</mask>
<g mask="url(#mask41_2683_10713)">
<path d="M10.1264 5.78809H8.43063V7.29321H10.1264V5.78809Z" fill="url(#paint41_linear_2683_10713)"/>
</g>
<mask id="mask42_2683_10713" style="mask-type:luminance" maskUnits="userSpaceOnUse" x="8" y="16" width="2" height="3">
<path d="M9.41063 16.8444C9.74189 17.1891 9.74869 17.7304 9.4315 18.0606C9.1184 18.384 8.60427 18.3695 8.28254 18.0339C7.96081 17.6982 7.95173 17.1588 8.25713 16.8318C8.56252 16.5047 9.08391 16.5043 9.41063 16.8444Z" fill="white"/>
</mask>
<g mask="url(#mask42_2683_10713)">
<path d="M9.74871 16.502H7.95175V18.3839H9.74871V16.502Z" fill="url(#paint42_linear_2683_10713)"/>
</g>
<mask id="mask43_2683_10713" style="mask-type:luminance" maskUnits="userSpaceOnUse" x="12" y="26" width="2" height="2">
<path d="M13.3709 27.0481C13.6704 27.2619 13.6845 27.5817 13.4004 27.7606C13.1209 27.9309 12.6558 27.9087 12.3567 27.7117C12.0445 27.5033 12.0119 27.1867 12.2909 27.0024C12.5755 26.8063 13.0596 26.8266 13.3709 27.0481Z" fill="white"/>
</mask>
<g mask="url(#mask43_2683_10713)">
<path d="M13.6846 26.8062H12.0138V27.9308H13.6846V26.8062Z" fill="url(#paint43_linear_2683_10713)"/>
</g>
<mask id="mask44_2683_10713" style="mask-type:luminance" maskUnits="userSpaceOnUse" x="12" y="28" width="2" height="2">
<path d="M13.4801 28.998C13.7578 29.1294 13.776 29.3151 13.5196 29.4057C13.2736 29.4863 12.8671 29.4596 12.598 29.3463C12.3198 29.2222 12.2803 29.042 12.5163 28.9428C12.7636 28.8304 13.1942 28.8558 13.4801 28.998Z" fill="white"/>
</mask>
<g mask="url(#mask44_2683_10713)">
<path d="M13.7758 28.8306H12.2797V29.4851H13.7758V28.8306Z" fill="url(#paint44_linear_2683_10713)"/>
</g>
<mask id="mask45_2683_10713" style="mask-type:luminance" maskUnits="userSpaceOnUse" x="12" y="29" width="2" height="1">
<path d="M13.6134 29.928C13.8566 29.9683 13.8712 30 13.6706 29.9973C13.3983 29.9828 13.1276 29.9601 12.8583 29.9293C12.6237 29.8967 12.5743 29.8668 12.7762 29.8632C13.0568 29.8532 13.3377 29.875 13.6134 29.928Z" fill="white"/>
</mask>
<g mask="url(#mask45_2683_10713)">
<path d="M13.8716 29.8477H12.5742V29.9998H13.8716V29.8477Z" fill="url(#paint45_linear_2683_10713)"/>
</g>
<mask id="mask46_2683_10713" style="mask-type:luminance" maskUnits="userSpaceOnUse" x="12" y="1" width="2" height="1">
<path d="M13.6706 1.00244C13.8712 1.00244 13.8566 1.03279 13.6134 1.07174C13.3377 1.12498 13.0568 1.14656 12.7762 1.13606C12.5743 1.13244 12.6237 1.10254 12.8583 1.06993C13.1282 1.04064 13.3989 1.01814 13.6706 1.00244Z" fill="white"/>
</mask>
<g mask="url(#mask46_2683_10713)">
<path d="M13.8716 1H12.5742V1.15309H13.8716V1Z" fill="url(#paint46_linear_2683_10713)"/>
</g>
<mask id="mask47_2683_10713" style="mask-type:luminance" maskUnits="userSpaceOnUse" x="12" y="1" width="2" height="2">
<path d="M13.5196 1.59703C13.776 1.68989 13.7579 1.8688 13.4802 2.00468C13.1943 2.14781 12.7636 2.17272 12.5163 2.06175C12.2795 1.9621 12.3198 1.78229 12.598 1.65773C12.8671 1.54404 13.2737 1.51641 13.5196 1.59703Z" fill="white"/>
</mask>
<g mask="url(#mask47_2683_10713)">
<path d="M13.7758 1.5166H12.2797V2.1711H13.7758V1.5166Z" fill="url(#paint47_linear_2683_10713)"/>
</g>
<mask id="mask48_2683_10713" style="mask-type:luminance" maskUnits="userSpaceOnUse" x="12" y="3" width="2" height="2">
<path d="M13.4005 3.23908C13.6845 3.42025 13.6705 3.73731 13.371 3.95291C13.0597 4.1744 12.5755 4.19433 12.2928 3.99821C12.0137 3.81341 12.0464 3.49725 12.3586 3.2889C12.6558 3.09368 13.121 3.06877 13.4005 3.23908Z" fill="white"/>
</mask>
<g mask="url(#mask48_2683_10713)">
<path d="M13.6846 3.06885H12.0138V4.19441H13.6846V3.06885Z" fill="url(#paint48_linear_2683_10713)"/>
</g>
<mask id="mask49_2683_10713" style="mask-type:luminance" maskUnits="userSpaceOnUse" x="11" y="5" width="3" height="2">
<path d="M13.3063 5.80758C13.6153 6.06168 13.6013 6.49469 13.2737 6.77461C12.946 7.05453 12.4224 7.07536 12.1147 6.80903C11.8116 6.55086 11.8424 6.11784 12.171 5.84472C12.4927 5.5793 13.0018 5.56027 13.3063 5.80758Z" fill="white"/>
</mask>
<g mask="url(#mask49_2683_10713)">
<path d="M13.615 5.56006H11.8117V7.07515H13.615V5.56006Z" fill="url(#paint49_linear_2683_10713)"/>
</g>
<mask id="mask50_2683_10713" style="mask-type:luminance" maskUnits="userSpaceOnUse" x="15" y="24" width="3" height="2">
<path d="M16.8875 24.1908C17.1915 24.4494 17.1679 24.8788 16.8421 25.1519C16.5163 25.425 16.0108 25.4372 15.7076 25.1922C15.3986 24.9381 15.4032 24.5051 15.7294 24.2265C16.0634 23.9389 16.5807 23.9244 16.8875 24.1908Z" fill="white"/>
</mask>
<g mask="url(#mask50_2683_10713)">
<path d="M17.1912 23.9243H15.3979V25.4367H17.1912V23.9243Z" fill="url(#paint50_linear_2683_10713)"/>
</g>
<mask id="mask51_2683_10713" style="mask-type:luminance" maskUnits="userSpaceOnUse" x="15" y="26" width="2" height="2">
<path d="M16.7124 26.9989C16.9915 27.1846 16.9588 27.5012 16.6462 27.7091C16.3489 27.9052 15.8847 27.9287 15.6047 27.7593C15.3207 27.5782 15.3347 27.2611 15.646 27.046C15.9455 26.8254 16.4406 26.8032 16.7124 26.9989Z" fill="white"/>
</mask>
<g mask="url(#mask51_2683_10713)">
<path d="M16.9916 26.8032H15.3208V27.9301H16.9916V26.8032Z" fill="url(#paint51_linear_2683_10713)"/>
</g>
<mask id="mask52_2683_10713" style="mask-type:luminance" maskUnits="userSpaceOnUse" x="15" y="28" width="2" height="2">
<path d="M16.4903 28.9403C16.7408 29.0377 16.7 29.218 16.4223 29.3421C16.1405 29.4572 15.7325 29.4843 15.487 29.4037C15.2442 29.3109 15.2479 29.1297 15.526 28.9961C15.8119 28.8561 16.2426 28.8294 16.4903 28.9403Z" fill="white"/>
</mask>
<g mask="url(#mask52_2683_10713)">
<path d="M16.7402 28.8296H15.2441V29.4841H16.7402V28.8296Z" fill="url(#paint52_linear_2683_10713)"/>
</g>
<mask id="mask53_2683_10713" style="mask-type:luminance" maskUnits="userSpaceOnUse" x="15" y="29" width="2" height="1">
<path d="M16.232 29.8626C16.4348 29.8626 16.3971 29.893 16.1589 29.9274C15.8898 29.9577 15.6198 29.9799 15.3503 29.9958C15.1365 29.9994 15.1511 29.9677 15.3956 29.9274C15.6709 29.8734 15.9516 29.8517 16.232 29.8626Z" fill="white"/>
</mask>
<g mask="url(#mask53_2683_10713)">
<path d="M16.435 29.8457H15.1363V29.9988H16.435V29.8457Z" fill="url(#paint53_linear_2683_10713)"/>
</g>
<mask id="mask54_2683_10713" style="mask-type:luminance" maskUnits="userSpaceOnUse" x="15" y="1" width="2" height="1">
<path d="M16.1589 1.07392C16.3971 1.10653 16.4348 1.13552 16.2319 1.13778C15.9511 1.14822 15.67 1.12633 15.3943 1.07256C15.151 1.0327 15.1365 1.00145 15.3489 1.00462C15.6193 1.02002 15.8893 1.04312 16.1589 1.07392Z" fill="white"/>
</mask>
<g mask="url(#mask54_2683_10713)">
<path d="M16.435 1.00146H15.1363V1.15365H16.435V1.00146Z" fill="url(#paint54_linear_2683_10713)"/>
</g>
<mask id="mask55_2683_10713" style="mask-type:luminance" maskUnits="userSpaceOnUse" x="15" y="1" width="2" height="2">
<path d="M16.4223 1.65914C16.7 1.78325 16.7399 1.96352 16.4903 2.0609C16.2426 2.17051 15.8119 2.1456 15.526 2.00383C15.2479 1.87157 15.2442 1.6904 15.487 1.59618C15.7325 1.51692 16.1405 1.54364 16.4223 1.65914Z" fill="white"/>
</mask>
<g mask="url(#mask55_2683_10713)">
<path d="M16.7403 1.51709H15.2442V2.17068H16.7403V1.51709Z" fill="url(#paint55_linear_2683_10713)"/>
</g>
<mask id="mask56_2683_10713" style="mask-type:luminance" maskUnits="userSpaceOnUse" x="15" y="3" width="2" height="2">
<path d="M16.6462 3.29011C16.9588 3.49846 16.9915 3.81506 16.7124 4.00077C16.4401 4.1978 15.9455 4.1756 15.646 3.95548C15.3347 3.74169 15.3207 3.42191 15.6047 3.24164C15.8847 3.06998 16.3489 3.09353 16.6462 3.29011Z" fill="white"/>
</mask>
<g mask="url(#mask56_2683_10713)">
<path d="M16.9916 3.06982H15.3208V4.19765H16.9916V3.06982Z" fill="url(#paint56_linear_2683_10713)"/>
</g>
<mask id="mask57_2683_10713" style="mask-type:luminance" maskUnits="userSpaceOnUse" x="15" y="5" width="3" height="2">
<path d="M16.843 5.84915C17.1679 6.12092 17.1915 6.55167 16.8884 6.81029C16.5816 7.07662 16.063 7.06077 15.7295 6.77451C15.4032 6.49595 15.3986 6.06294 15.7077 5.80884C16.0117 5.56244 16.5118 5.58056 16.843 5.84915Z" fill="white"/>
</mask>
<g mask="url(#mask57_2683_10713)">
<path d="M17.1912 5.5625H15.3979V7.07623H17.1912V5.5625Z" fill="url(#paint57_linear_2683_10713)"/>
</g>
<mask id="mask58_2683_10713" style="mask-type:luminance" maskUnits="userSpaceOnUse" x="19" y="20" width="2" height="2">
<path d="M20.6113 20.5763C20.8958 20.8661 20.8577 21.3662 20.54 21.6842C20.2142 22.0062 19.7123 22.0442 19.4242 21.7589C19.1224 21.4735 19.1487 20.9681 19.48 20.6401C19.8113 20.3122 20.3181 20.2832 20.6113 20.5763Z" fill="white"/>
</mask>
<g mask="url(#mask58_2683_10713)">
<path d="M20.8958 20.2832H19.1224V22.0442H20.8958V20.2832Z" fill="url(#paint58_linear_2683_10713)"/>
</g>
<mask id="mask59_2683_10713" style="mask-type:luminance" maskUnits="userSpaceOnUse" x="18" y="23" width="3" height="3">
<path d="M20.3219 23.9458C20.5823 24.1723 20.527 24.589 20.2039 24.8766C19.8808 25.1642 19.4139 25.2113 19.1489 24.993C18.8875 24.7606 18.927 24.3362 19.2514 24.0454C19.5759 23.7547 20.0596 23.7053 20.3219 23.9458Z" fill="white"/>
</mask>
<g mask="url(#mask59_2683_10713)">
<path d="M20.5822 23.7051H18.8874V25.2111H20.5822V23.7051Z" fill="url(#paint59_linear_2683_10713)"/>
</g>
<mask id="mask60_2683_10713" style="mask-type:luminance" maskUnits="userSpaceOnUse" x="18" y="26" width="3" height="2">
<path d="M19.8978 26.6624C20.1247 26.8132 20.0476 27.1189 19.7394 27.3472C19.4363 27.5651 19.003 27.6357 18.7747 27.4967C18.536 27.3495 18.5968 27.0347 18.9013 26.8032C19.2199 26.5591 19.67 26.498 19.8978 26.6624Z" fill="white"/>
</mask>
<g mask="url(#mask60_2683_10713)">
<path d="M20.1258 26.498H18.5362V27.6358H20.1258V26.498Z" fill="url(#paint60_linear_2683_10713)"/>
</g>
<mask id="mask61_2683_10713" style="mask-type:luminance" maskUnits="userSpaceOnUse" x="18" y="28" width="2" height="2">
<path d="M19.3489 28.527C19.5368 28.5873 19.4497 28.7576 19.1584 28.9093C18.8752 29.0515 18.4977 29.1331 18.3075 29.0905C18.1029 29.0357 18.1714 28.8586 18.4568 28.701C18.7504 28.5302 19.1593 28.4532 19.3489 28.527Z" fill="white"/>
</mask>
<g mask="url(#mask61_2683_10713)">
<path d="M19.5364 28.4536H18.1029V29.1339H19.5364V28.4536Z" fill="url(#paint61_linear_2683_10713)"/>
</g>
<mask id="mask62_2683_10713" style="mask-type:luminance" maskUnits="userSpaceOnUse" x="17" y="29" width="2" height="1">
<path d="M18.7103 29.3932C18.7484 29.3841 18.7752 29.3796 18.772 29.3841C18.4126 29.4937 18.0496 29.5891 17.6829 29.6704C17.6788 29.6658 17.7619 29.6368 17.9334 29.5879C18.1882 29.5075 18.4476 29.4424 18.7103 29.3932Z" fill="white"/>
</mask>
<g mask="url(#mask62_2683_10713)">
<path d="M18.7749 29.3794H17.68V29.6702H18.7749V29.3794Z" fill="url(#paint62_linear_2683_10713)"/>
</g>
<mask id="mask63_2683_10713" style="mask-type:luminance" maskUnits="userSpaceOnUse" x="17" y="1" width="2" height="1">
<path d="M18.7715 1.61623C18.7747 1.62076 18.7479 1.61623 18.7098 1.60717C18.4476 1.55771 18.1886 1.49236 17.9343 1.4115C17.7628 1.36349 17.6797 1.33405 17.6838 1.32861C18.0496 1.41135 18.4121 1.50722 18.7715 1.61623Z" fill="white"/>
</mask>
<g mask="url(#mask63_2683_10713)">
<path d="M18.7748 1.32861H17.6798V1.62076H18.7748V1.32861Z" fill="url(#paint63_linear_2683_10713)"/>
</g>
<mask id="mask64_2683_10713" style="mask-type:luminance" maskUnits="userSpaceOnUse" x="18" y="1" width="2" height="2">
<path d="M19.1587 2.09001C19.45 2.24311 19.5371 2.41206 19.3493 2.47275C19.1596 2.54884 18.7508 2.47275 18.4572 2.30244C18.1713 2.14346 18.1032 1.96681 18.3079 1.91201C18.498 1.86717 18.8774 1.95142 19.1587 2.09001Z" fill="white"/>
</mask>
<g mask="url(#mask64_2683_10713)">
<path d="M19.5366 1.86719H18.1031V2.54841H19.5366V1.86719Z" fill="url(#paint64_linear_2683_10713)"/>
</g>
<mask id="mask65_2683_10713" style="mask-type:luminance" maskUnits="userSpaceOnUse" x="18" y="3" width="3" height="2">
<path d="M19.7391 3.65368C20.0472 3.88015 20.1252 4.18769 19.8974 4.33852C19.6705 4.50204 19.2195 4.44134 18.8991 4.19766C18.5946 3.96575 18.5338 3.65141 18.7725 3.50285C19.003 3.36606 19.4364 3.43581 19.7391 3.65368Z" fill="white"/>
</mask>
<g mask="url(#mask65_2683_10713)">
<path d="M20.1258 3.36621H18.5362V4.50173H20.1258V3.36621Z" fill="url(#paint65_linear_2683_10713)"/>
</g>
<mask id="mask66_2683_10713" style="mask-type:luminance" maskUnits="userSpaceOnUse" x="18" y="5" width="3" height="3">
<path d="M20.204 6.12491C20.5271 6.41208 20.5824 6.82743 20.322 7.05571C20.0597 7.29622 19.5751 7.25138 19.2515 6.95606C18.928 6.66074 18.8885 6.24087 19.149 6.00806C19.414 5.79019 19.8832 5.84409 20.204 6.12491Z" fill="white"/>
</mask>
<g mask="url(#mask66_2683_10713)">
<path d="M20.5826 5.79004H18.8878V7.29607H20.5826V5.79004Z" fill="url(#paint66_linear_2683_10713)"/>
</g>
<mask id="mask67_2683_10713" style="mask-type:luminance" maskUnits="userSpaceOnUse" x="19" y="16" width="2" height="3">
<path d="M20.7439 16.8232C21.0497 17.1484 21.0388 17.6838 20.7203 18.0235C20.4017 18.3632 19.8826 18.3804 19.5686 18.0584C19.2509 17.7273 19.26 17.181 19.5895 16.8409C19.9189 16.5007 20.4335 16.493 20.7439 16.8232Z" fill="white"/>
</mask>
<g mask="url(#mask67_2683_10713)">
<path d="M21.0495 16.4927H19.2516V18.3801H21.0495V16.4927Z" fill="url(#paint67_linear_2683_10713)"/>
</g>
<mask id="mask68_2683_10713" style="mask-type:luminance" maskUnits="userSpaceOnUse" x="22" y="20" width="2" height="2">
<path d="M23.7803 20.3122C24.0044 20.574 23.9518 21.0414 23.6641 21.3648C23.3764 21.6819 22.9557 21.734 22.7184 21.4826C22.4738 21.2194 22.5197 20.7352 22.8192 20.4118C23.1186 20.0884 23.5479 20.0436 23.7803 20.3122Z" fill="white"/>
</mask>
<g mask="url(#mask68_2683_10713)">
<path d="M24.0044 20.0435H22.4738V21.7343H24.0044V20.0435Z" fill="url(#paint68_linear_2683_10713)"/>
</g>
<mask id="mask69_2683_10713" style="mask-type:luminance" maskUnits="userSpaceOnUse" x="22" y="23" width="2" height="2">
<path d="M23.3379 23.4915C23.524 23.693 23.4391 24.0844 23.1496 24.3743C22.8601 24.6641 22.459 24.7479 22.2629 24.5554C22.0501 24.3607 22.1227 23.9544 22.4236 23.6604C22.729 23.3551 23.1324 23.2904 23.3379 23.4915Z" fill="white"/>
</mask>
<g mask="url(#mask69_2683_10713)">
<path d="M23.5241 23.29H22.0502V24.7481H23.5241V23.29Z" fill="url(#paint69_linear_2683_10713)"/>
</g>
<mask id="mask70_2683_10713" style="mask-type:luminance" maskUnits="userSpaceOnUse" x="21" y="25" width="2" height="2">
<path d="M22.6683 26.0547C22.8249 26.168 22.7137 26.4488 22.4296 26.6889C22.1456 26.9289 21.7744 27.0381 21.6128 26.9362C21.4468 26.8189 21.5416 26.5244 21.8347 26.2794C22.1338 26.0226 22.5154 25.9207 22.6683 26.0547Z" fill="white"/>
</mask>
<g mask="url(#mask70_2683_10713)">
<path d="M22.8243 25.9204H21.4475V27.036H22.8243V25.9204Z" fill="url(#paint70_linear_2683_10713)"/>
</g>
<mask id="mask71_2683_10713" style="mask-type:luminance" maskUnits="userSpaceOnUse" x="20" y="27" width="2" height="2">
<path d="M21.8211 27.7813C21.934 27.8035 21.7925 27.9625 21.5229 28.1292C21.2534 28.2958 20.9412 28.4213 20.8114 28.419C20.6753 28.4023 20.8005 28.2342 21.0773 28.0567C21.3623 27.8696 21.7008 27.7464 21.8211 27.7813Z" fill="white"/>
</mask>
<g mask="url(#mask71_2683_10713)">
<path d="M21.9343 27.7461H20.676V28.421H21.9343V27.7461Z" fill="url(#paint71_linear_2683_10713)"/>
</g>
<mask id="mask72_2683_10713" style="mask-type:luminance" maskUnits="userSpaceOnUse" x="20" y="2" width="2" height="2">
<path d="M21.5233 2.87184C21.7928 3.04079 21.9344 3.19706 21.8214 3.21834C21.7012 3.25458 21.3627 3.13229 21.0777 2.94341C20.8009 2.76631 20.6761 2.59872 20.8118 2.58106C20.9416 2.5806 21.2497 2.70833 21.5233 2.87184Z" fill="white"/>
</mask>
<g mask="url(#mask72_2683_10713)">
<path d="M21.9345 2.58057H20.6762V3.25409H21.9345V2.58057Z" fill="url(#paint72_linear_2683_10713)"/>
</g>
<mask id="mask73_2683_10713" style="mask-type:luminance" maskUnits="userSpaceOnUse" x="21" y="4" width="2" height="2">
<path d="M22.4294 4.31314C22.7135 4.55139 22.8247 4.83357 22.6681 4.94726C22.5152 5.08042 22.1336 4.97987 21.8354 4.72487C21.5423 4.47982 21.4475 4.18451 21.6135 4.0681C21.7742 3.96528 22.1404 4.08033 22.4294 4.31314Z" fill="white"/>
</mask>
<g mask="url(#mask73_2683_10713)">
<path d="M22.8239 3.96533H21.4471V5.07957H22.8239V3.96533Z" fill="url(#paint73_linear_2683_10713)"/>
</g>
<mask id="mask74_2683_10713" style="mask-type:luminance" maskUnits="userSpaceOnUse" x="22" y="6" width="2" height="2">
<path d="M23.1496 6.62788C23.4391 6.91641 23.524 7.3073 23.3379 7.5084C23.1323 7.70996 22.7289 7.64428 22.4235 7.33945C22.1227 7.04504 22.0501 6.63785 22.2629 6.44444C22.4589 6.25421 22.8569 6.34162 23.1496 6.62788Z" fill="white"/>
</mask>
<g mask="url(#mask74_2683_10713)">
<path d="M23.5241 6.25342H22.0502V7.71008H23.5241V6.25342Z" fill="url(#paint74_linear_2683_10713)"/>
</g>
<mask id="mask75_2683_10713" style="mask-type:luminance" maskUnits="userSpaceOnUse" x="22" y="9" width="2" height="2">
<path d="M23.6648 9.636C23.9525 9.9594 24.0052 10.4273 23.781 10.6882C23.5487 10.9577 23.1149 10.9147 22.8199 10.5894C22.525 10.2642 22.4746 9.78049 22.7192 9.51869C22.9565 9.26686 23.3771 9.32076 23.6648 9.636Z" fill="white"/>
</mask>
<g mask="url(#mask75_2683_10713)">
<path d="M24.0052 9.2666H22.4746V10.9574H24.0052V9.2666Z" fill="url(#paint75_linear_2683_10713)"/>
</g>
<mask id="mask76_2683_10713" style="mask-type:luminance" maskUnits="userSpaceOnUse" x="22" y="16" width="3" height="3">
<path d="M23.9871 16.7581C24.238 17.0589 24.2199 17.568 23.9499 17.8905C23.6699 18.2225 23.2329 18.246 22.9697 17.9421C22.6975 17.6355 22.7129 17.1119 23.0028 16.7848C23.2928 16.4578 23.728 16.4451 23.9871 16.7581Z" fill="white"/>
</mask>
<g mask="url(#mask76_2683_10713)">
<path d="M24.238 16.4434H22.6983V18.2447H24.238V16.4434Z" fill="url(#paint76_linear_2683_10713)"/>
</g>
<mask id="mask77_2683_10713" style="mask-type:luminance" maskUnits="userSpaceOnUse" x="25" y="19" width="2" height="3">
<path d="M26.2831 19.9405C26.4274 20.1733 26.3585 20.6032 26.1316 20.9094C25.9047 21.2155 25.5825 21.2876 25.4214 21.0652C25.2517 20.831 25.3116 20.3835 25.5575 20.0759C25.8017 19.7593 26.1293 19.6977 26.2831 19.9405Z" fill="white"/>
</mask>
<g mask="url(#mask77_2683_10713)">
<path d="M26.4274 19.6978H25.2516V21.2876H26.4274V19.6978Z" fill="url(#paint77_linear_2683_10713)"/>
</g>
<mask id="mask78_2683_10713" style="mask-type:luminance" maskUnits="userSpaceOnUse" x="24" y="22" width="2" height="2">
<path d="M25.6964 22.8707C25.8076 23.0265 25.6964 23.3798 25.4604 23.6629C25.2095 23.9528 24.9159 24.0647 24.7956 23.9134C24.6622 23.7549 24.7584 23.3821 25.0162 23.0899C25.2739 22.7978 25.5784 22.6986 25.6964 22.8707Z" fill="white"/>
</mask>
<g mask="url(#mask78_2683_10713)">
<path d="M25.8073 22.6982H24.662V24.0643H25.8073V22.6982Z" fill="url(#paint78_linear_2683_10713)"/>
</g>
<mask id="mask79_2683_10713" style="mask-type:luminance" maskUnits="userSpaceOnUse" x="23" y="25" width="2" height="2">
<path d="M24.8344 25.1875C24.8984 25.2681 24.75 25.5218 24.5063 25.765C24.2626 26.0082 23.9908 26.1554 23.9137 26.0893C23.8143 26.0209 23.9473 25.7505 24.2086 25.5005C24.475 25.2328 24.7482 25.1073 24.8344 25.1875Z" fill="white"/>
</mask>
<g mask="url(#mask79_2683_10713)">
<path d="M24.8985 25.1074H23.8144V26.156H24.8985V25.1074Z" fill="url(#paint79_linear_2683_10713)"/>
</g>
<mask id="mask80_2683_10713" style="mask-type:luminance" maskUnits="userSpaceOnUse" x="22" y="26" width="2" height="2">
<path d="M23.7099 26.7362C23.7231 26.728 23.7131 26.7362 23.7013 26.7484C23.4197 26.9809 23.1301 27.2003 22.8328 27.4065C22.8205 27.4156 22.8205 27.4142 22.8201 27.4142C22.7656 27.4378 22.9172 27.3001 23.1831 27.0972C23.4327 26.8992 23.6745 26.7385 23.7099 26.7362Z" fill="white"/>
</mask>
<g mask="url(#mask80_2683_10713)">
<path d="M23.7231 26.728H22.7647V27.4364H23.7231V26.728Z" fill="url(#paint80_linear_2683_10713)"/>
</g>
<mask id="mask81_2683_10713" style="mask-type:luminance" maskUnits="userSpaceOnUse" x="22" y="3" width="2" height="2">
<path d="M23.7024 4.25147C23.7142 4.26053 23.7242 4.2714 23.7111 4.2637C23.6757 4.2637 23.4338 4.09928 23.1838 3.90134C22.9174 3.70024 22.7658 3.56255 22.8207 3.58429C22.8207 3.58429 22.8207 3.58429 22.8335 3.59199C23.1305 3.80064 23.4202 4.02047 23.7024 4.25147Z" fill="white"/>
</mask>
<g mask="url(#mask81_2683_10713)">
<path d="M23.7232 3.56445H22.7649V4.27285H23.7232V3.56445Z" fill="url(#paint81_linear_2683_10713)"/>
</g>
<mask id="mask82_2683_10713" style="mask-type:luminance" maskUnits="userSpaceOnUse" x="23" y="4" width="2" height="2">
<path d="M24.5063 5.23572C24.75 5.4785 24.8984 5.73396 24.8344 5.81322C24.7482 5.89385 24.475 5.76793 24.2086 5.50205C23.9473 5.25022 23.8143 4.97936 23.9137 4.91323C23.9908 4.84529 24.2581 4.99748 24.5063 5.23572Z" fill="white"/>
</mask>
<g mask="url(#mask82_2683_10713)">
<path d="M24.8985 4.84521H23.8144V5.89377H24.8985V4.84521Z" fill="url(#paint82_linear_2683_10713)"/>
</g>
<mask id="mask83_2683_10713" style="mask-type:luminance" maskUnits="userSpaceOnUse" x="24" y="7" width="2" height="2">
<path d="M25.4604 7.33722C25.6978 7.62167 25.8076 7.97632 25.6964 8.13077C25.5784 8.30289 25.2712 8.20777 25.0157 7.91155C24.7603 7.61533 24.6618 7.24754 24.7952 7.08765C24.9164 6.93682 25.2095 7.0487 25.4604 7.33722Z" fill="white"/>
</mask>
<g mask="url(#mask83_2683_10713)">
<path d="M25.8077 6.93652H24.6623V8.30259H25.8077V6.93652Z" fill="url(#paint83_linear_2683_10713)"/>
</g>
<mask id="mask84_2683_10713" style="mask-type:luminance" maskUnits="userSpaceOnUse" x="25" y="9" width="2" height="3">
<path d="M26.1315 10.0908C26.3584 10.397 26.4274 10.8268 26.2831 11.0596C26.1293 11.3024 25.8016 11.2408 25.5571 10.9238C25.3102 10.6149 25.2503 10.1683 25.4209 9.93454C25.5825 9.71214 25.901 9.78959 26.1315 10.0908Z" fill="white"/>
</mask>
<g mask="url(#mask84_2683_10713)">
<path d="M26.4273 9.7124H25.2516V11.3022H26.4273V9.7124Z" fill="url(#paint84_linear_2683_10713)"/>
</g>
<mask id="mask85_2683_10713" style="mask-type:luminance" maskUnits="userSpaceOnUse" x="25" y="13" width="2" height="2">
<path d="M26.5059 13.2949C26.711 13.5961 26.7328 14.0649 26.5558 14.3412C26.3679 14.6342 26.0349 14.6129 25.8134 14.3099C25.582 13.9974 25.5625 13.5132 25.768 13.2324C25.9613 12.9538 26.2894 12.9792 26.5059 13.2949Z" fill="white"/>
</mask>
<g mask="url(#mask85_2683_10713)">
<path d="M26.7343 12.9541H25.5622V14.6345H26.7343V12.9541Z" fill="url(#paint85_linear_2683_10713)"/>
</g>
<mask id="mask86_2683_10713" style="mask-type:luminance" maskUnits="userSpaceOnUse" x="25" y="16" width="2" height="2">
<path d="M26.5557 16.6597C26.7345 16.936 26.7109 17.4048 26.5058 17.706C26.2894 18.023 25.9613 18.047 25.7666 17.7685C25.5624 17.4876 25.5819 17.003 25.812 16.6909C26.0348 16.3888 26.3679 16.3666 26.5557 16.6597Z" fill="white"/>
</mask>
<g mask="url(#mask86_2683_10713)">
<path d="M26.7343 16.3667H25.5622V18.0471H26.7343V16.3667Z" fill="url(#paint86_linear_2683_10713)"/>
</g>
<mask id="mask87_2683_10713" style="mask-type:luminance" maskUnits="userSpaceOnUse" x="27" y="19" width="1" height="2">
<path d="M27.9421 19.4745C27.997 19.6679 27.9135 20.0566 27.7606 20.3464C27.599 20.6313 27.4098 20.721 27.3395 20.5299C27.2546 20.3351 27.3299 19.9288 27.5101 19.6312C27.6807 19.3405 27.8722 19.2811 27.9421 19.4745Z" fill="white"/>
</mask>
<g mask="url(#mask87_2683_10713)">
<path d="M27.9967 19.2812H27.2525V20.7211H27.9967V19.2812Z" fill="url(#paint87_linear_2683_10713)"/>
</g>
<mask id="mask88_2683_10713" style="mask-type:luminance" maskUnits="userSpaceOnUse" x="26" y="22" width="2" height="2">
<path d="M27.2445 22.0749C27.2531 22.2108 27.1252 22.5165 26.9468 22.7964C26.7698 23.0605 26.5947 23.2041 26.5675 23.0863C26.5185 22.9713 26.6414 22.6334 26.8443 22.3444C27.0349 22.0618 27.2141 21.9472 27.2445 22.0749Z" fill="white"/>
</mask>
<g mask="url(#mask88_2683_10713)">
<path d="M27.253 21.9473H26.5183V23.2051H27.253V21.9473Z" fill="url(#paint88_linear_2683_10713)"/>
</g>
<mask id="mask89_2683_10713" style="mask-type:luminance" maskUnits="userSpaceOnUse" x="25" y="24" width="2" height="2">
<path d="M26.2006 24.1233C26.1888 24.1448 26.1754 24.1654 26.1606 24.1849C25.9613 24.4513 25.7519 24.7116 25.5326 24.9658C25.5036 24.998 25.4822 25.0183 25.4781 25.0161C25.4781 24.9771 25.6442 24.7375 25.8489 24.4934C26.0567 24.2357 26.2119 24.0785 26.2006 24.1233Z" fill="white"/>
</mask>
<g mask="url(#mask89_2683_10713)">
<path d="M26.2119 24.0786H25.4781V25.0185H26.2119V24.0786Z" fill="url(#paint89_linear_2683_10713)"/>
</g>
<mask id="mask90_2683_10713" style="mask-type:luminance" maskUnits="userSpaceOnUse" x="25" y="5" width="2" height="2">
<path d="M26.1606 6.81552C26.1755 6.83497 26.1889 6.85557 26.2006 6.87712C26.2119 6.92242 26.0567 6.76615 25.8489 6.50662C25.6442 6.26293 25.4786 6.02333 25.4781 5.98438C25.4822 5.98438 25.5036 6.00204 25.5326 6.03329C25.7522 6.28875 25.9614 6.55055 26.1606 6.81552Z" fill="white"/>
</mask>
<g mask="url(#mask90_2683_10713)">
<path d="M26.2119 5.98193H25.4781V6.92179H26.2119V5.98193Z" fill="url(#paint90_linear_2683_10713)"/>
</g>
<mask id="mask91_2683_10713" style="mask-type:luminance" maskUnits="userSpaceOnUse" x="26" y="7" width="2" height="2">
<path d="M26.9542 8.21674C27.1257 8.48398 27.2537 8.79198 27.245 8.92605C27.2146 9.05378 27.0354 8.93828 26.8448 8.65428C26.642 8.3644 26.519 8.02651 26.568 7.91236C26.5943 7.79415 26.7695 7.94045 26.9542 8.21674Z" fill="white"/>
</mask>
<g mask="url(#mask91_2683_10713)">
<path d="M27.2528 7.7959H26.5181V9.05372H27.2528V7.7959Z" fill="url(#paint91_linear_2683_10713)"/>
</g>
<mask id="mask92_2683_10713" style="mask-type:luminance" maskUnits="userSpaceOnUse" x="27" y="10" width="1" height="2">
<path d="M27.7584 10.6544C27.9131 10.9443 27.9966 11.3338 27.9399 11.5263C27.87 11.7197 27.6762 11.6622 27.5061 11.3696C27.3246 11.072 27.2506 10.6657 27.3355 10.471C27.4081 10.2785 27.5968 10.3695 27.7584 10.6544Z" fill="white"/>
</mask>
<g mask="url(#mask92_2683_10713)">
<path d="M27.9965 10.2788H27.2523V11.7201H27.9965V10.2788Z" fill="url(#paint92_linear_2683_10713)"/>
</g>
<mask id="mask93_2683_10713" style="mask-type:luminance" maskUnits="userSpaceOnUse" x="27" y="13" width="2" height="2">
<path d="M28.2058 13.5166C28.332 13.7928 28.3606 14.2236 28.2671 14.4677C28.1636 14.7218 27.9613 14.7073 27.8165 14.4224C27.6636 14.1439 27.635 13.6941 27.7602 13.4482C27.8691 13.1954 28.0711 13.2448 28.2058 13.5166Z" fill="white"/>
</mask>
<g mask="url(#mask93_2683_10713)">
<path d="M28.3605 13.1953H27.6372V14.7213H28.3605V13.1953Z" fill="url(#paint93_linear_2683_10713)"/>
</g>
<mask id="mask94_2683_10713" style="mask-type:luminance" maskUnits="userSpaceOnUse" x="27" y="16" width="2" height="2">
<path d="M28.2674 16.5328C28.3609 16.7765 28.3323 17.2072 28.2061 17.484C28.07 17.7557 27.8694 17.8038 27.7605 17.5542C27.6376 17.3082 27.6639 16.8585 27.8168 16.5799C27.9616 16.2932 28.1639 16.2778 28.2674 16.5328Z" fill="white"/>
</mask>
<g mask="url(#mask94_2683_10713)">
<path d="M28.3607 16.2778H27.6374V17.8038H28.3607V16.2778Z" fill="url(#paint94_linear_2683_10713)"/>
</g>
<mask id="mask95_2683_10713" style="mask-type:luminance" maskUnits="userSpaceOnUse" x="28" y="18" width="1" height="2">
<path d="M28.6331 18.9364C28.6276 18.9613 28.6222 18.9849 28.6163 19.0184C28.5473 19.2956 28.4697 19.5708 28.3835 19.8441C28.334 19.9773 28.3091 20.0117 28.3227 19.9044C28.3345 19.7408 28.4198 19.3898 28.5196 19.118C28.6077 18.8581 28.6589 18.7797 28.6331 18.9364Z" fill="white"/>
</mask>
<g mask="url(#mask95_2683_10713)">
<path d="M28.6596 18.7798H28.3093V20.0127H28.6596V18.7798Z" fill="url(#paint95_linear_2683_10713)"/>
</g>
<mask id="mask96_2683_10713" style="mask-type:luminance" maskUnits="userSpaceOnUse" x="27" y="21" width="1" height="1">
<path d="M27.5576 21.9129V21.9092C27.6189 21.7774 27.6938 21.6198 27.7609 21.474C27.7723 21.4486 27.7845 21.4214 27.7986 21.397C27.7214 21.5691 27.6416 21.7417 27.5576 21.9129Z" fill="white"/>
</mask>
<g mask="url(#mask96_2683_10713)">
<path d="M27.7982 21.397H27.5573V21.9129H27.7982V21.397Z" fill="url(#paint96_linear_2683_10713)"/>
</g>
<mask id="mask97_2683_10713" style="mask-type:luminance" maskUnits="userSpaceOnUse" x="27" y="9" width="1" height="1">
<path d="M27.7982 9.60574C27.7842 9.58034 27.7716 9.55418 27.7605 9.52738C27.6929 9.3829 27.6185 9.22527 27.5573 9.09301V9.08984C27.6417 9.25924 27.7215 9.43181 27.7982 9.60574Z" fill="white"/>
</mask>
<g mask="url(#mask97_2683_10713)">
<path d="M27.7982 9.0874H27.5573V9.6033H27.7982V9.0874Z" fill="url(#paint97_linear_2683_10713)"/>
</g>
<mask id="mask98_2683_10713" style="mask-type:luminance" maskUnits="userSpaceOnUse" x="28" y="11" width="1" height="2">
<path d="M28.6163 11.9804C28.6222 12.014 28.6276 12.0384 28.6331 12.062C28.6589 12.2209 28.6077 12.1426 28.5196 11.8808C28.4198 11.609 28.3345 11.2575 28.3227 11.0945C28.3091 10.9867 28.334 11.0216 28.3835 11.1547C28.4694 11.4286 28.547 11.7038 28.6163 11.9804Z" fill="white"/>
</mask>
<g mask="url(#mask98_2683_10713)">
<path d="M28.6596 10.9873H28.3093V12.2202H28.6596V10.9873Z" fill="url(#paint98_linear_2683_10713)"/>
</g>
<mask id="mask99_2683_10713" style="mask-type:luminance" maskUnits="userSpaceOnUse" x="28" y="13" width="1" height="2">
<path d="M28.9313 13.7927C28.972 14.0605 28.9947 14.3308 28.9993 14.6016C28.9871 14.82 28.9313 14.8077 28.8745 14.5514C28.8074 14.2973 28.7779 13.9127 28.8083 13.6908C28.8264 13.4851 28.8823 13.5354 28.9313 13.7927Z" fill="white"/>
</mask>
<g mask="url(#mask99_2683_10713)">
<path d="M29.0001 13.4854H28.7777V14.8202H29.0001V13.4854Z" fill="url(#paint99_linear_2683_10713)"/>
</g>
<mask id="mask100_2683_10713" style="mask-type:luminance" maskUnits="userSpaceOnUse" x="28" y="16" width="1" height="2">
<path d="M28.9991 16.4002C28.9944 16.6711 28.9717 16.9413 28.931 17.2092C28.882 17.4669 28.8262 17.5172 28.808 17.3111C28.7776 17.0905 28.808 16.7046 28.8743 16.4505C28.931 16.1923 28.9868 16.181 28.9991 16.4002Z" fill="white"/>
</mask>
<g mask="url(#mask100_2683_10713)">
<path d="M28.9999 16.1812H28.7776V17.516H28.9999V16.1812Z" fill="url(#paint100_linear_2683_10713)"/>
</g>
<mask id="mask101_2683_10713" style="mask-type:luminance" maskUnits="userSpaceOnUse" x="5" y="8" width="21" height="18">
<path d="M7.48874 9.30413C7.55092 9.37525 7.60076 9.45623 7.63621 9.54374C7.69793 9.70046 7.83996 9.78108 8.0183 9.76206C8.3187 9.73715 8.3187 9.73715 8.62726 9.70816C8.72042 9.70006 8.81002 9.66868 8.88782 9.61691C8.96562 9.56514 9.02911 9.49465 9.07242 9.41193C9.1305 9.31059 9.20159 9.21725 9.28388 9.13428C9.72949 8.69674 10.4043 8.64737 10.8054 9.02693C10.8806 9.10256 10.9437 9.18934 10.9924 9.28421C11.0686 9.45451 11.236 9.54601 11.4411 9.53378C11.7751 9.52381 11.7751 9.52381 12.1218 9.50796C12.2203 9.50545 12.3164 9.47741 12.4008 9.42658C12.4851 9.37576 12.5547 9.3039 12.6028 9.21808C12.6607 9.11558 12.7339 9.02243 12.8197 8.94178C13.2857 8.51239 14.01 8.49745 14.4592 8.906C14.5418 8.98645 14.6128 9.0779 14.6702 9.17776C14.7163 9.2633 14.7853 9.33436 14.8695 9.38299C14.9538 9.43162 15.0499 9.45592 15.1471 9.45315C15.5052 9.45315 15.5052 9.45315 15.8578 9.45315C15.9558 9.45604 16.0528 9.43196 16.1381 9.38355C16.2234 9.33515 16.2938 9.26427 16.3415 9.17867C16.3965 9.07785 16.4678 8.98679 16.5525 8.90917C16.9954 8.50152 17.7269 8.51647 18.1861 8.94495C18.2715 9.02578 18.3443 9.11891 18.4021 9.22125C18.4512 9.30777 18.5218 9.38021 18.607 9.43162C18.6923 9.48302 18.7894 9.51165 18.889 9.51475C19.2302 9.52698 19.2302 9.52698 19.5697 9.54148C19.6609 9.5488 19.7522 9.52901 19.8321 9.4846C19.9121 9.44018 19.9771 9.37313 20.0189 9.29191C20.0612 9.1937 20.1249 9.10613 20.2054 9.03554C20.6002 8.6519 21.2754 8.70127 21.721 9.13836C22.1666 9.57545 22.2106 10.254 21.8245 10.648C21.4283 11.0557 20.7354 11.024 20.2844 10.5697C20.1972 10.4841 20.1229 10.3865 20.0638 10.2798C20.0171 10.1927 19.9486 10.1193 19.8649 10.0668C19.7812 10.0142 19.6852 9.98427 19.5864 9.97992L18.9008 9.95546C18.8051 9.94899 18.7096 9.97079 18.6262 10.0182C18.5429 10.0655 18.4753 10.1363 18.432 10.2218C18.3822 10.3267 18.3124 10.4208 18.2265 10.499C17.7804 10.9334 17.0362 10.9234 16.5679 10.4732C16.4792 10.3906 16.4048 10.2939 16.3478 10.1869C16.3007 10.0987 16.2301 10.0252 16.1438 9.97444C16.0575 9.9237 15.9588 9.8977 15.8587 9.8993H15.1431C15.0431 9.89836 14.9449 9.92454 14.8587 9.97504C14.7725 10.0255 14.7017 10.0985 14.6539 10.186C14.5973 10.2917 14.5244 10.3878 14.4379 10.4709C13.97 10.9207 13.2204 10.932 12.7752 10.4981C12.6916 10.4177 12.6221 10.3238 12.5697 10.2204C12.5265 10.1349 12.459 10.0639 12.3756 10.0164C12.2923 9.96883 12.1967 9.94686 12.1009 9.9532L11.4162 9.97766C11.3173 9.98176 11.2212 10.0115 11.1374 10.0639C11.0535 10.1163 10.9848 10.1896 10.9379 10.2766C10.8804 10.3819 10.808 10.4783 10.7228 10.5629C10.269 11.0158 9.57339 11.052 9.17679 10.6444C9.10594 10.5657 9.04638 10.4776 8.99982 10.3826C8.9664 10.3039 8.90888 10.2378 8.83551 10.1938C8.76214 10.1498 8.67669 10.1301 8.59142 10.1375C8.28512 10.1611 8.28512 10.1611 7.98063 10.1869C7.8889 10.1977 7.80133 10.2311 7.72587 10.2843C7.65042 10.3375 7.58949 10.4086 7.54864 10.4913C7.49601 10.5923 7.42991 10.6857 7.35215 10.7689C6.94375 11.2165 6.35384 11.2672 6.0362 10.9017C5.73988 10.5393 5.81158 9.91062 6.20001 9.46991C6.5898 9.04143 7.16429 8.96081 7.48874 9.30413ZM10.6502 12.7234C10.7377 12.8102 10.8084 12.9123 10.8589 13.0246C10.9004 13.1152 10.9679 13.1915 11.0529 13.2437C11.1379 13.2959 11.2366 13.3216 11.3363 13.3176C11.6794 13.3086 11.6794 13.3086 12.0233 13.3032C12.1253 13.3018 12.2248 13.2722 12.3109 13.2177C12.3969 13.1631 12.4661 13.0858 12.5107 12.9942C12.5695 12.8797 12.6461 12.7751 12.7376 12.6844C12.8463 12.5678 12.9775 12.4742 13.1232 12.4093C13.269 12.3443 13.4264 12.3094 13.5859 12.3065C13.7455 12.3036 13.9041 12.3329 14.0521 12.3925C14.2001 12.4522 14.3345 12.541 14.4474 12.6536C14.5603 12.7663 14.6492 12.9005 14.709 13.0482C14.7687 13.196 14.7981 13.3542 14.7952 13.5135C14.7923 13.6728 14.7573 13.8299 14.6922 13.9754C14.6272 14.1209 14.5334 14.2518 14.4166 14.3603C14.3218 14.4552 14.212 14.5338 14.0917 14.5931C13.9959 14.6378 13.9151 14.7089 13.8588 14.7982C13.8025 14.8874 13.773 14.9909 13.774 15.0963V15.9116C13.7731 16.0171 13.8026 16.1207 13.8589 16.2099C13.9152 16.2992 13.996 16.3705 14.0917 16.4153C14.212 16.4746 14.3218 16.5533 14.4166 16.6481C14.5286 16.7585 14.6177 16.8898 14.6787 17.0347C14.7397 17.1795 14.7714 17.335 14.7719 17.4921C14.7725 17.6492 14.7419 17.8049 14.6819 17.9501C14.6219 18.0954 14.5337 18.2274 14.4225 18.3385C14.3287 18.4308 14.2205 18.5073 14.1021 18.565C14.0087 18.6074 13.9297 18.676 13.8748 18.7624C13.8198 18.8489 13.7913 18.9495 13.7926 19.0519C13.799 19.4459 13.799 19.4459 13.8026 19.8359C13.8036 19.9383 13.8341 20.0382 13.8904 20.1237C13.9467 20.2092 14.0265 20.2768 14.1202 20.3183C14.2384 20.375 14.3469 20.4497 14.442 20.5398C14.9066 20.9828 14.9121 21.6835 14.4615 22.1029C14.2907 22.257 14.0777 22.3568 13.8498 22.3896C13.8652 23.0898 13.8652 23.0898 13.8834 23.767C14.1069 23.804 14.3157 23.9024 14.4864 24.051C14.937 24.4337 14.947 25.0244 14.5191 25.369C14.103 25.6992 13.4142 25.6743 12.9799 25.3174C12.5329 24.946 12.4916 24.3599 12.9032 24.0061C13.0545 23.8795 13.2374 23.7961 13.4323 23.7647C13.4092 23.0785 13.4092 23.0785 13.3892 22.3706C13.177 22.3195 12.9814 22.2151 12.8211 22.0671C12.3673 21.6355 12.3405 20.9393 12.7793 20.5144C12.859 20.4359 12.9509 20.3708 13.0516 20.3219C13.1378 20.2796 13.2099 20.2134 13.2593 20.1312C13.3087 20.049 13.3333 19.9544 13.3302 19.8586C13.3239 19.44 13.3239 19.44 13.3198 19.0193C13.3189 18.9192 13.2907 18.8214 13.2381 18.7362C13.1856 18.651 13.1107 18.5818 13.0216 18.536C12.9182 18.4796 12.8233 18.4089 12.7398 18.3258C12.2734 17.8579 12.2638 17.1051 12.724 16.6431C12.8048 16.5585 12.8991 16.4878 13.003 16.4339C13.0929 16.3869 13.1679 16.3158 13.2194 16.2285C13.271 16.1413 13.2971 16.0414 13.2948 15.9402C13.2948 15.5049 13.2948 15.5049 13.2948 15.0664C13.2968 14.9654 13.2706 14.8658 13.2191 14.7789C13.1675 14.6919 13.0927 14.621 13.003 14.5741C12.8991 14.5202 12.8048 14.4495 12.724 14.3648C12.6377 14.2795 12.5657 14.1809 12.5107 14.0727C12.4669 13.9819 12.3978 13.9057 12.3117 13.8532C12.2255 13.8006 12.1261 13.774 12.0251 13.7765C11.6644 13.7855 11.6644 13.7855 11.3086 13.7887C11.2097 13.7909 11.1133 13.8201 11.0299 13.8731C10.9465 13.9261 10.8792 14.001 10.8353 14.0895C10.78 14.1961 10.7099 14.2945 10.6271 14.3816C10.181 14.8436 9.47537 14.8472 9.05336 14.3938C8.63997 13.9531 8.65812 13.2203 9.09012 12.7632C9.52211 12.3062 10.2237 12.2804 10.6479 12.7234H10.6502ZM23.2076 13.8503C22.8958 13.839 22.8958 13.839 22.5818 13.8358C22.4895 13.8327 22.3983 13.8575 22.3204 13.9071C22.2425 13.9566 22.1814 14.0286 22.1453 14.1135C22.0967 14.2208 22.0313 14.3197 21.9515 14.4065C21.5277 14.854 20.8225 14.8495 20.3769 14.3861C20.291 14.2975 20.2191 14.1964 20.1636 14.0863C20.12 13.9958 20.052 13.9191 19.9674 13.8649C19.8827 13.8106 19.7846 13.7808 19.684 13.7787L18.9829 13.7733C18.8819 13.7702 18.7822 13.7966 18.696 13.8493C18.6098 13.902 18.5409 13.9787 18.4978 14.07C18.4423 14.1811 18.3694 14.2826 18.2818 14.3707C18.1928 14.4577 18.0916 14.5312 17.9814 14.5891C17.8895 14.6347 17.8123 14.7053 17.7588 14.7928C17.7053 14.8803 17.6777 14.9812 17.6792 15.0837C17.6792 15.5053 17.6792 15.5054 17.6792 15.9261C17.6776 16.0288 17.7051 16.1298 17.7586 16.2175C17.812 16.3052 17.8893 16.376 17.9814 16.4216C18.0916 16.4795 18.1928 16.553 18.2818 16.64C18.4116 16.7752 18.5079 16.9388 18.5632 17.1177C18.6185 17.2966 18.6313 17.4859 18.6004 17.6706C18.5696 17.8552 18.496 18.0302 18.3856 18.1815C18.2751 18.3329 18.1308 18.4564 17.9642 18.5423C17.8728 18.5875 17.7957 18.6571 17.7418 18.7436C17.6879 18.83 17.6591 18.9297 17.6588 19.0315C17.6506 19.4391 17.6506 19.4391 17.6452 19.8427C17.6432 19.9402 17.6696 20.0363 17.7214 20.119C17.7731 20.2018 17.8479 20.2677 17.9365 20.3088C18.0433 20.3595 18.1408 20.428 18.2247 20.5113C18.6694 20.9343 18.6453 21.6305 18.1838 22.0657C17.7241 22.4929 16.9926 22.511 16.5502 22.1015C16.0992 21.6821 16.1032 20.9814 16.5666 20.5371C16.6558 20.4529 16.7565 20.3817 16.8656 20.3255C16.9567 20.2834 17.0338 20.2161 17.0879 20.1317C17.142 20.0473 17.1708 19.9493 17.171 19.8491C17.176 19.4441 17.176 19.4441 17.1814 19.0338C17.1816 18.9341 17.1536 18.8364 17.1006 18.752C17.0476 18.6675 16.9718 18.5997 16.8819 18.5564C16.7712 18.5 16.6698 18.4271 16.5811 18.3403C16.4698 18.229 16.3817 18.0969 16.3218 17.9515C16.2619 17.8062 16.2313 17.6504 16.2319 17.4932C16.2324 17.336 16.2641 17.1805 16.325 17.0355C16.3859 16.8906 16.475 16.7591 16.587 16.6486C16.6762 16.5591 16.779 16.484 16.8915 16.4262C16.9843 16.3805 17.0623 16.3094 17.1164 16.2212C17.1705 16.133 17.1984 16.0313 17.1968 15.9279C17.1968 15.5063 17.1968 15.5063 17.1968 15.0846C17.1981 14.9812 17.1701 14.8797 17.116 14.7915C17.062 14.7034 16.9842 14.6323 16.8915 14.5863C16.779 14.5288 16.6763 14.4541 16.587 14.3648C16.4664 14.2433 16.3735 14.0972 16.3148 13.9365C16.2561 13.7757 16.2329 13.6042 16.2469 13.4337C16.2609 13.2632 16.3116 13.0978 16.3957 12.9487C16.4797 12.7996 16.5951 12.6705 16.7339 12.5701C16.8727 12.4697 17.0316 12.4005 17.1997 12.3672C17.3678 12.3339 17.5411 12.3373 17.7078 12.3772C17.8745 12.417 18.0305 12.4924 18.1652 12.5981C18.3 12.7039 18.4102 12.8375 18.4883 12.9897C18.5336 13.0812 18.6034 13.1582 18.6901 13.2124C18.7767 13.2665 18.8766 13.2956 18.9788 13.2964C19.3291 13.2986 19.3291 13.2986 19.6781 13.3041C19.7768 13.3086 19.8746 13.2832 19.9587 13.2314C20.0427 13.1795 20.1091 13.1035 20.1491 13.0133C20.2021 12.9082 20.2707 12.8117 20.3524 12.727C20.7817 12.2886 21.4787 12.3076 21.9193 12.775C22.0009 12.8604 22.0696 12.9573 22.1231 13.0626C22.217 13.2551 22.3831 13.3657 22.5714 13.3693C22.8863 13.3783 22.8863 13.3783 23.1967 13.3883C23.2848 13.3935 23.3722 13.37 23.4458 13.3214C23.5195 13.2728 23.5753 13.2017 23.6051 13.1188C23.6478 13.0185 23.7053 12.9253 23.7757 12.8421C24.1387 12.4371 24.7336 12.4729 25.1094 12.9127C25.4774 13.3625 25.5014 14.0482 25.1638 14.46C24.8126 14.8921 24.2109 14.8798 23.8225 14.4378C23.7473 14.3492 23.6837 14.2515 23.6332 14.147C23.547 13.9599 23.3891 13.8517 23.2076 13.8503Z" fill="white"/>
</mask>
<g mask="url(#mask101_2683_10713)">
<path d="M25.5001 8.49707H5.73859V25.7007H25.5001V8.49707Z" fill="url(#paint101_linear_2683_10713)"/>
</g>
</g>
<defs>
<linearGradient id="paint0_linear_2683_10713" x1="18.6828" y1="0.391419" x2="-1.87254" y2="21.9947" gradientUnits="userSpaceOnUse">
<stop stop-color="#FF00FF"/>
<stop offset="1" stop-color="#0000FF"/>
</linearGradient>
<linearGradient id="paint1_linear_2683_10713" x1="22.0498" y1="-0.247552" x2="-0.606076" y2="23.8032" gradientUnits="userSpaceOnUse">
<stop stop-color="#FF00FF"/>
<stop offset="1" stop-color="#0000FF"/>
</linearGradient>
<linearGradient id="paint2_linear_2683_10713" x1="15.9134" y1="-6.09426" x2="-6.78284" y2="17.9992" gradientUnits="userSpaceOnUse">
<stop stop-color="#FF00FF"/>
<stop offset="1" stop-color="#0000FF"/>
</linearGradient>
<linearGradient id="paint3_linear_2683_10713" x1="15.186" y1="-3.77733" x2="-5.3752" y2="17.8441" gradientUnits="userSpaceOnUse">
<stop stop-color="#FF00FF"/>
<stop offset="1" stop-color="#0000FF"/>
</linearGradient>
<linearGradient id="paint4_linear_2683_10713" x1="16.4839" y1="-2.61239" x2="-4.37755" y2="18.8158" gradientUnits="userSpaceOnUse">
<stop stop-color="#FF00FF"/>
<stop offset="1" stop-color="#0000FF"/>
</linearGradient>
<linearGradient id="paint5_linear_2683_10713" x1="17.6941" y1="-1.13739" x2="-3.16189" y2="20.2849" gradientUnits="userSpaceOnUse">
<stop stop-color="#FF00FF"/>
<stop offset="1" stop-color="#0000FF"/>
</linearGradient>
<linearGradient id="paint6_linear_2683_10713" x1="18.9395" y1="1.47984" x2="-1.06932" y2="22.6731" gradientUnits="userSpaceOnUse">
<stop stop-color="#FF00FF"/>
<stop offset="1" stop-color="#0000FF"/>
</linearGradient>
<linearGradient id="paint7_linear_2683_10713" x1="21.7611" y1="3.08092" x2="0.544303" y2="24.2221" gradientUnits="userSpaceOnUse">
<stop stop-color="#FF00FF"/>
<stop offset="1" stop-color="#0000FF"/>
</linearGradient>
<linearGradient id="paint8_linear_2683_10713" x1="24.0881" y1="3.09118" x2="1.87386" y2="25.9667" gradientUnits="userSpaceOnUse">
<stop stop-color="#FF00FF"/>
<stop offset="1" stop-color="#0000FF"/>
</linearGradient>
<linearGradient id="paint9_linear_2683_10713" x1="15.4781" y1="-6.2021" x2="-6.74561" y2="16.6938" gradientUnits="userSpaceOnUse">
<stop stop-color="#FF00FF"/>
<stop offset="1" stop-color="#0000FF"/>
</linearGradient>
<linearGradient id="paint10_linear_2683_10713" x1="15.5445" y1="-4.91228" x2="-5.68189" y2="16.2385" gradientUnits="userSpaceOnUse">
<stop stop-color="#FF00FF"/>
<stop offset="1" stop-color="#0000FF"/>
</linearGradient>
<linearGradient id="paint11_linear_2683_10713" x1="14.9666" y1="-3.35249" x2="-5.04671" y2="17.8571" gradientUnits="userSpaceOnUse">
<stop stop-color="#FF00FF"/>
<stop offset="1" stop-color="#0000FF"/>
</linearGradient>
<linearGradient id="paint12_linear_2683_10713" x1="15.9948" y1="-2.14048" x2="-4.09403" y2="19.4886" gradientUnits="userSpaceOnUse">
<stop stop-color="#FF00FF"/>
<stop offset="1" stop-color="#0000FF"/>
</linearGradient>
<linearGradient id="paint13_linear_2683_10713" x1="17.4029" y1="-0.537766" x2="-2.69457" y2="21.1009" gradientUnits="userSpaceOnUse">
<stop stop-color="#FF00FF"/>
<stop offset="1" stop-color="#0000FF"/>
</linearGradient>
<linearGradient id="paint14_linear_2683_10713" x1="20.1198" y1="2.45977" x2="0.175587" y2="23.7716" gradientUnits="userSpaceOnUse">
<stop stop-color="#FF00FF"/>
<stop offset="1" stop-color="#0000FF"/>
</linearGradient>
<linearGradient id="paint15_linear_2683_10713" x1="21.7395" y1="4.39579" x2="1.81363" y2="25.5409" gradientUnits="userSpaceOnUse">
<stop stop-color="#FF00FF"/>
<stop offset="1" stop-color="#0000FF"/>
</linearGradient>
<linearGradient id="paint16_linear_2683_10713" x1="23.6507" y1="5.54346" x2="3.28055" y2="27.1681" gradientUnits="userSpaceOnUse">
<stop stop-color="#FF00FF"/>
<stop offset="1" stop-color="#0000FF"/>
</linearGradient>
<linearGradient id="paint17_linear_2683_10713" x1="26.0214" y1="5.30208" x2="4.53642" y2="28.5014" gradientUnits="userSpaceOnUse">
<stop stop-color="#FF00FF"/>
<stop offset="1" stop-color="#0000FF"/>
</linearGradient>
<linearGradient id="paint18_linear_2683_10713" x1="14.8514" y1="-5.86405" x2="-6.63536" y2="17.338" gradientUnits="userSpaceOnUse">
<stop stop-color="#FF00FF"/>
<stop offset="1" stop-color="#0000FF"/>
</linearGradient>
<linearGradient id="paint19_linear_2683_10713" x1="14.5548" y1="-5.10904" x2="-5.81539" y2="16.5152" gradientUnits="userSpaceOnUse">
<stop stop-color="#FF00FF"/>
<stop offset="1" stop-color="#0000FF"/>
</linearGradient>
<linearGradient id="paint20_linear_2683_10713" x1="14.8155" y1="-4.05187" x2="-5.1068" y2="17.0778" gradientUnits="userSpaceOnUse">
<stop stop-color="#FF00FF"/>
<stop offset="1" stop-color="#0000FF"/>
</linearGradient>
<linearGradient id="paint21_linear_2683_10713" x1="15.681" y1="-2.83039" x2="-4.26145" y2="18.4683" gradientUnits="userSpaceOnUse">
<stop stop-color="#FF00FF"/>
<stop offset="1" stop-color="#0000FF"/>
</linearGradient>
<linearGradient id="paint22_linear_2683_10713" x1="17.2153" y1="-1.49969" x2="-3.09987" y2="20.1847" gradientUnits="userSpaceOnUse">
<stop stop-color="#FF00FF"/>
<stop offset="1" stop-color="#0000FF"/>
</linearGradient>
<linearGradient id="paint23_linear_2683_10713" x1="18.774" y1="0.292741" x2="-1.54114" y2="21.9771" gradientUnits="userSpaceOnUse">
<stop stop-color="#FF00FF"/>
<stop offset="1" stop-color="#0000FF"/>
</linearGradient>
<linearGradient id="paint24_linear_2683_10713" x1="22.0014" y1="3.76062" x2="1.85309" y2="25.1054" gradientUnits="userSpaceOnUse">
<stop stop-color="#FF00FF"/>
<stop offset="1" stop-color="#0000FF"/>
</linearGradient>
<linearGradient id="paint25_linear_2683_10713" x1="23.4434" y1="5.79379" x2="3.53111" y2="26.9484" gradientUnits="userSpaceOnUse">
<stop stop-color="#FF00FF"/>
<stop offset="1" stop-color="#0000FF"/>
</linearGradient>
<linearGradient id="paint26_linear_2683_10713" x1="24.8231" y1="7.39159" x2="5.01293" y2="28.5464" gradientUnits="userSpaceOnUse">
<stop stop-color="#FF00FF"/>
<stop offset="1" stop-color="#0000FF"/>
</linearGradient>
<linearGradient id="paint27_linear_2683_10713" x1="26.2732" y1="6.95283" x2="6.34321" y2="29.7192" gradientUnits="userSpaceOnUse">
<stop stop-color="#FF00FF"/>
<stop offset="1" stop-color="#0000FF"/>
</linearGradient>
<linearGradient id="paint28_linear_2683_10713" x1="14.4634" y1="-4.7796" x2="-5.46439" y2="17.9619" gradientUnits="userSpaceOnUse">
<stop stop-color="#FF00FF"/>
<stop offset="1" stop-color="#0000FF"/>
</linearGradient>
<linearGradient id="paint29_linear_2683_10713" x1="15.1715" y1="-4.31339" x2="-4.63871" y2="16.8415" gradientUnits="userSpaceOnUse">
<stop stop-color="#FF00FF"/>
<stop offset="1" stop-color="#0000FF"/>
</linearGradient>
<linearGradient id="paint30_linear_2683_10713" x1="15.9556" y1="-3.32751" x2="-3.95667" y2="17.8271" gradientUnits="userSpaceOnUse">
<stop stop-color="#FF00FF"/>
<stop offset="1" stop-color="#0000FF"/>
</linearGradient>
<linearGradient id="paint31_linear_2683_10713" x1="18.8498" y1="-0.451766" x2="-1.63585" y2="21.3235" gradientUnits="userSpaceOnUse">
<stop stop-color="#FF00FF"/>
<stop offset="1" stop-color="#0000FF"/>
</linearGradient>
<linearGradient id="paint32_linear_2683_10713" x1="20.5268" y1="1.47865" x2="0.0411364" y2="23.2417" gradientUnits="userSpaceOnUse">
<stop stop-color="#FF00FF"/>
<stop offset="1" stop-color="#0000FF"/>
</linearGradient>
<linearGradient id="paint33_linear_2683_10713" x1="24.154" y1="5.15167" x2="3.78516" y2="26.7519" gradientUnits="userSpaceOnUse">
<stop stop-color="#FF00FF"/>
<stop offset="1" stop-color="#0000FF"/>
</linearGradient>
<linearGradient id="paint34_linear_2683_10713" x1="25.6516" y1="7.19962" x2="5.45879" y2="28.5653" gradientUnits="userSpaceOnUse">
<stop stop-color="#FF00FF"/>
<stop offset="1" stop-color="#0000FF"/>
</linearGradient>
<linearGradient id="paint35_linear_2683_10713" x1="26.9373" y1="8.91236" x2="6.86592" y2="30.1112" gradientUnits="userSpaceOnUse">
<stop stop-color="#FF00FF"/>
<stop offset="1" stop-color="#0000FF"/>
</linearGradient>
<linearGradient id="paint36_linear_2683_10713" x1="27.9642" y1="9.79111" x2="7.99073" y2="31.2243" gradientUnits="userSpaceOnUse">
<stop stop-color="#FF00FF"/>
<stop offset="1" stop-color="#0000FF"/>
</linearGradient>
<linearGradient id="paint37_linear_2683_10713" x1="30.9189" y1="8.24607" x2="8.34323" y2="32.2056" gradientUnits="userSpaceOnUse">
<stop stop-color="#FF00FF"/>
<stop offset="1" stop-color="#0000FF"/>
</linearGradient>
<linearGradient id="paint38_linear_2683_10713" x1="16.9467" y1="-5.04006" x2="-5.63135" y2="18.9222" gradientUnits="userSpaceOnUse">
<stop stop-color="#FF00FF"/>
<stop offset="1" stop-color="#0000FF"/>
</linearGradient>
<linearGradient id="paint39_linear_2683_10713" x1="16.1304" y1="-4.15209" x2="-3.8426" y2="17.2807" gradientUnits="userSpaceOnUse">
<stop stop-color="#FF00FF"/>
<stop offset="1" stop-color="#0000FF"/>
</linearGradient>
<linearGradient id="paint40_linear_2683_10713" x1="16.7467" y1="-3.50285" x2="-3.32889" y2="17.6887" gradientUnits="userSpaceOnUse">
<stop stop-color="#FF00FF"/>
<stop offset="1" stop-color="#0000FF"/>
</linearGradient>
<linearGradient id="paint41_linear_2683_10713" x1="17.6977" y1="-2.33541" x2="-2.49237" y2="19.028" gradientUnits="userSpaceOnUse">
<stop stop-color="#FF00FF"/>
<stop offset="1" stop-color="#0000FF"/>
</linearGradient>
<linearGradient id="paint42_linear_2683_10713" x1="22.5321" y1="2.95676" x2="1.96856" y2="24.8096" gradientUnits="userSpaceOnUse">
<stop stop-color="#FF00FF"/>
<stop offset="1" stop-color="#0000FF"/>
</linearGradient>
<linearGradient id="paint43_linear_2683_10713" x1="29.1734" y1="10.1678" x2="8.77996" y2="31.7355" gradientUnits="userSpaceOnUse">
<stop stop-color="#FF00FF"/>
<stop offset="1" stop-color="#0000FF"/>
</linearGradient>
<linearGradient id="paint44_linear_2683_10713" x1="29.9589" y1="11.4666" x2="9.65615" y2="32.7596" gradientUnits="userSpaceOnUse">
<stop stop-color="#FF00FF"/>
<stop offset="1" stop-color="#0000FF"/>
</linearGradient>
<linearGradient id="paint45_linear_2683_10713" x1="30.5937" y1="11.1363" x2="10.2996" y2="33.1661" gradientUnits="userSpaceOnUse">
<stop stop-color="#FF00FF"/>
<stop offset="1" stop-color="#0000FF"/>
</linearGradient>
<linearGradient id="paint46_linear_2683_10713" x1="17.4383" y1="-3.466" x2="-2.85831" y2="18.486" gradientUnits="userSpaceOnUse">
<stop stop-color="#FF00FF"/>
<stop offset="1" stop-color="#0000FF"/>
</linearGradient>
<linearGradient id="paint47_linear_2683_10713" x1="17.8653" y1="-3.21029" x2="-2.43561" y2="18.0805" gradientUnits="userSpaceOnUse">
<stop stop-color="#FF00FF"/>
<stop offset="1" stop-color="#0000FF"/>
</linearGradient>
<linearGradient id="paint48_linear_2683_10713" x1="18.5318" y1="-2.3592" x2="-1.85568" y2="19.2139" gradientUnits="userSpaceOnUse">
<stop stop-color="#FF00FF"/>
<stop offset="1" stop-color="#0000FF"/>
</linearGradient>
<linearGradient id="paint49_linear_2683_10713" x1="19.6453" y1="-1.02435" x2="-0.76833" y2="20.6779" gradientUnits="userSpaceOnUse">
<stop stop-color="#FF00FF"/>
<stop offset="1" stop-color="#0000FF"/>
</linearGradient>
<linearGradient id="paint50_linear_2683_10713" x1="30.0317" y1="10.1957" x2="9.51198" y2="31.9126" gradientUnits="userSpaceOnUse">
<stop stop-color="#FF00FF"/>
<stop offset="1" stop-color="#0000FF"/>
</linearGradient>
<linearGradient id="paint51_linear_2683_10713" x1="31.0564" y1="11.6827" x2="10.672" y2="33.2182" gradientUnits="userSpaceOnUse">
<stop stop-color="#FF00FF"/>
<stop offset="1" stop-color="#0000FF"/>
</linearGradient>
<linearGradient id="paint52_linear_2683_10713" x1="31.6954" y1="12.8317" x2="11.2915" y2="34.1227" gradientUnits="userSpaceOnUse">
<stop stop-color="#FF00FF"/>
<stop offset="1" stop-color="#0000FF"/>
</linearGradient>
<linearGradient id="paint53_linear_2683_10713" x1="32.0535" y1="12.4949" x2="11.7318" y2="34.345" gradientUnits="userSpaceOnUse">
<stop stop-color="#FF00FF"/>
<stop offset="1" stop-color="#0000FF"/>
</linearGradient>
<linearGradient id="paint54_linear_2683_10713" x1="18.9376" y1="-2.32086" x2="-1.39251" y2="19.676" gradientUnits="userSpaceOnUse">
<stop stop-color="#FF00FF"/>
<stop offset="1" stop-color="#0000FF"/>
</linearGradient>
<linearGradient id="paint55_linear_2683_10713" x1="19.6004" y1="-1.90896" x2="-0.80524" y2="19.3951" gradientUnits="userSpaceOnUse">
<stop stop-color="#FF00FF"/>
<stop offset="1" stop-color="#0000FF"/>
</linearGradient>
<linearGradient id="paint56_linear_2683_10713" x1="20.434" y1="-0.871669" x2="0.0541231" y2="20.6706" gradientUnits="userSpaceOnUse">
<stop stop-color="#FF00FF"/>
<stop offset="1" stop-color="#0000FF"/>
</linearGradient>
<linearGradient id="paint57_linear_2683_10713" x1="21.7453" y1="0.57245" x2="1.2319" y2="22.2826" gradientUnits="userSpaceOnUse">
<stop stop-color="#FF00FF"/>
<stop offset="1" stop-color="#0000FF"/>
</linearGradient>
<linearGradient id="paint58_linear_2683_10713" x1="30.4904" y1="10.0771" x2="10.161" y2="31.66" gradientUnits="userSpaceOnUse">
<stop stop-color="#FF00FF"/>
<stop offset="1" stop-color="#0000FF"/>
</linearGradient>
<linearGradient id="paint59_linear_2683_10713" x1="31.7075" y1="11.8362" x2="11.5061" y2="33.2114" gradientUnits="userSpaceOnUse">
<stop stop-color="#FF00FF"/>
<stop offset="1" stop-color="#0000FF"/>
</linearGradient>
<linearGradient id="paint60_linear_2683_10713" x1="32.4821" y1="13.2255" x2="12.4945" y2="34.3399" gradientUnits="userSpaceOnUse">
<stop stop-color="#FF00FF"/>
<stop offset="1" stop-color="#0000FF"/>
</linearGradient>
<linearGradient id="paint61_linear_2683_10713" x1="32.9845" y1="13.7036" x2="13.0616" y2="35.0063" gradientUnits="userSpaceOnUse">
<stop stop-color="#FF00FF"/>
<stop offset="1" stop-color="#0000FF"/>
</linearGradient>
<linearGradient id="paint62_linear_2683_10713" x1="34.8023" y1="12.0381" x2="12.2845" y2="35.8826" gradientUnits="userSpaceOnUse">
<stop stop-color="#FF00FF"/>
<stop offset="1" stop-color="#0000FF"/>
</linearGradient>
<linearGradient id="paint63_linear_2683_10713" x1="20.9003" y1="-1.3451" x2="-1.60808" y2="22.4894" gradientUnits="userSpaceOnUse">
<stop stop-color="#FF00FF"/>
<stop offset="1" stop-color="#0000FF"/>
</linearGradient>
<linearGradient id="paint64_linear_2683_10713" x1="21.231" y1="-0.359017" x2="1.30989" y2="20.9301" gradientUnits="userSpaceOnUse">
<stop stop-color="#FF00FF"/>
<stop offset="1" stop-color="#0000FF"/>
</linearGradient>
<linearGradient id="paint65_linear_2683_10713" x1="22.3321" y1="0.77403" x2="2.34444" y2="21.9002" gradientUnits="userSpaceOnUse">
<stop stop-color="#FF00FF"/>
<stop offset="1" stop-color="#0000FF"/>
</linearGradient>
<linearGradient id="paint66_linear_2683_10713" x1="23.7532" y1="2.30738" x2="3.55586" y2="23.6781" gradientUnits="userSpaceOnUse">
<stop stop-color="#FF00FF"/>
<stop offset="1" stop-color="#0000FF"/>
</linearGradient>
<linearGradient id="paint67_linear_2683_10713" x1="28.9965" y1="8.09016" x2="8.43608" y2="29.8937" gradientUnits="userSpaceOnUse">
<stop stop-color="#FF00FF"/>
<stop offset="1" stop-color="#0000FF"/>
</linearGradient>
<linearGradient id="paint68_linear_2683_10713" x1="32.1593" y1="11.4276" x2="12.0333" y2="32.853" gradientUnits="userSpaceOnUse">
<stop stop-color="#FF00FF"/>
<stop offset="1" stop-color="#0000FF"/>
</linearGradient>
<linearGradient id="paint69_linear_2683_10713" x1="33.1804" y1="13.0187" x2="13.2392" y2="34.2019" gradientUnits="userSpaceOnUse">
<stop stop-color="#FF00FF"/>
<stop offset="1" stop-color="#0000FF"/>
</linearGradient>
<linearGradient id="paint70_linear_2683_10713" x1="33.8225" y1="14.148" x2="13.9296" y2="35.2143" gradientUnits="userSpaceOnUse">
<stop stop-color="#FF00FF"/>
<stop offset="1" stop-color="#0000FF"/>
</linearGradient>
<linearGradient id="paint71_linear_2683_10713" x1="34.7513" y1="12.6314" x2="14.8374" y2="35.6011" gradientUnits="userSpaceOnUse">
<stop stop-color="#FF00FF"/>
<stop offset="1" stop-color="#0000FF"/>
</linearGradient>
<linearGradient id="paint72_linear_2683_10713" x1="22.8507" y1="1.14203" x2="2.93961" y2="24.1081" gradientUnits="userSpaceOnUse">
<stop stop-color="#FF00FF"/>
<stop offset="1" stop-color="#0000FF"/>
</linearGradient>
<linearGradient id="paint73_linear_2683_10713" x1="24.2175" y1="2.32523" x2="4.33407" y2="23.3924" gradientUnits="userSpaceOnUse">
<stop stop-color="#FF00FF"/>
<stop offset="1" stop-color="#0000FF"/>
</linearGradient>
<linearGradient id="paint74_linear_2683_10713" x1="25.6822" y1="3.9176" x2="5.73735" y2="25.1044" gradientUnits="userSpaceOnUse">
<stop stop-color="#FF00FF"/>
<stop offset="1" stop-color="#0000FF"/>
</linearGradient>
<linearGradient id="paint75_linear_2683_10713" x1="27.3631" y1="5.73864" x2="7.23218" y2="27.1695" gradientUnits="userSpaceOnUse">
<stop stop-color="#FF00FF"/>
<stop offset="1" stop-color="#0000FF"/>
</linearGradient>
<linearGradient id="paint76_linear_2683_10713" x1="30.8296" y1="9.55186" x2="10.3734" y2="31.2854" gradientUnits="userSpaceOnUse">
<stop stop-color="#FF00FF"/>
<stop offset="1" stop-color="#0000FF"/>
</linearGradient>
<linearGradient id="paint77_linear_2683_10713" x1="33.431" y1="12.4453" x2="13.4848" y2="33.6679" gradientUnits="userSpaceOnUse">
<stop stop-color="#FF00FF"/>
<stop offset="1" stop-color="#0000FF"/>
</linearGradient>
<linearGradient id="paint78_linear_2683_10713" x1="34.2834" y1="13.8288" x2="14.3982" y2="34.8981" gradientUnits="userSpaceOnUse">
<stop stop-color="#FF00FF"/>
<stop offset="1" stop-color="#0000FF"/>
</linearGradient>
<linearGradient id="paint79_linear_2683_10713" x1="35.0191" y1="14.2971" x2="14.7533" y2="35.9202" gradientUnits="userSpaceOnUse">
<stop stop-color="#FF00FF"/>
<stop offset="1" stop-color="#0000FF"/>
</linearGradient>
<linearGradient id="paint80_linear_2683_10713" x1="35.8543" y1="13.5153" x2="14.3644" y2="36.7205" gradientUnits="userSpaceOnUse">
<stop stop-color="#FF00FF"/>
<stop offset="1" stop-color="#0000FF"/>
</linearGradient>
<linearGradient id="paint81_linear_2683_10713" x1="24.6902" y1="2.36325" x2="3.20886" y2="25.5476" gradientUnits="userSpaceOnUse">
<stop stop-color="#FF00FF"/>
<stop offset="1" stop-color="#0000FF"/>
</linearGradient>
<linearGradient id="paint82_linear_2683_10713" x1="25.9209" y1="3.70697" x2="5.65502" y2="25.3188" gradientUnits="userSpaceOnUse">
<stop stop-color="#FF00FF"/>
<stop offset="1" stop-color="#0000FF"/>
</linearGradient>
<linearGradient id="paint83_linear_2683_10713" x1="27.3868" y1="5.34761" x2="7.50207" y2="26.417" gradientUnits="userSpaceOnUse">
<stop stop-color="#FF00FF"/>
<stop offset="1" stop-color="#0000FF"/>
</linearGradient>
<linearGradient id="paint84_linear_2683_10713" x1="29.0275" y1="7.12837" x2="9.0813" y2="28.351" gradientUnits="userSpaceOnUse">
<stop stop-color="#FF00FF"/>
<stop offset="1" stop-color="#0000FF"/>
</linearGradient>
<linearGradient id="paint85_linear_2683_10713" x1="30.7426" y1="8.92701" x2="10.4055" y2="30.5525" gradientUnits="userSpaceOnUse">
<stop stop-color="#FF00FF"/>
<stop offset="1" stop-color="#0000FF"/>
</linearGradient>
<linearGradient id="paint86_linear_2683_10713" x1="32.2767" y1="10.714" x2="11.9402" y2="32.3395" gradientUnits="userSpaceOnUse">
<stop stop-color="#FF00FF"/>
<stop offset="1" stop-color="#0000FF"/>
</linearGradient>
<linearGradient id="paint87_linear_2683_10713" x1="34.2602" y1="12.9908" x2="14.2582" y2="34.2003" gradientUnits="userSpaceOnUse">
<stop stop-color="#FF00FF"/>
<stop offset="1" stop-color="#0000FF"/>
</linearGradient>
<linearGradient id="paint88_linear_2683_10713" x1="34.9" y1="14.6241" x2="13.6628" y2="35.7744" gradientUnits="userSpaceOnUse">
<stop stop-color="#FF00FF"/>
<stop offset="1" stop-color="#0000FF"/>
</linearGradient>
<linearGradient id="paint89_linear_2683_10713" x1="36.0326" y1="14.0881" x2="13.6675" y2="37.1374" gradientUnits="userSpaceOnUse">
<stop stop-color="#FF00FF"/>
<stop offset="1" stop-color="#0000FF"/>
</linearGradient>
<linearGradient id="paint90_linear_2683_10713" x1="27.3718" y1="4.8831" x2="5.0276" y2="27.9224" gradientUnits="userSpaceOnUse">
<stop stop-color="#FF00FF"/>
<stop offset="1" stop-color="#0000FF"/>
</linearGradient>
<linearGradient id="paint91_linear_2683_10713" x1="28.669" y1="6.65494" x2="7.41545" y2="27.822" gradientUnits="userSpaceOnUse">
<stop stop-color="#FF00FF"/>
<stop offset="1" stop-color="#0000FF"/>
</linearGradient>
<linearGradient id="paint92_linear_2683_10713" x1="30.2858" y1="8.18939" x2="10.2806" y2="29.3908" gradientUnits="userSpaceOnUse">
<stop stop-color="#FF00FF"/>
<stop offset="1" stop-color="#0000FF"/>
</linearGradient>
<linearGradient id="paint93_linear_2683_10713" x1="31.8832" y1="9.80686" x2="11.8141" y2="31.3363" gradientUnits="userSpaceOnUse">
<stop stop-color="#FF00FF"/>
<stop offset="1" stop-color="#0000FF"/>
</linearGradient>
<linearGradient id="paint94_linear_2683_10713" x1="33.2629" y1="11.4178" x2="13.1956" y2="32.9336" gradientUnits="userSpaceOnUse">
<stop stop-color="#FF00FF"/>
<stop offset="1" stop-color="#0000FF"/>
</linearGradient>
<linearGradient id="paint95_linear_2683_10713" x1="34.5964" y1="13.0261" x2="13.8267" y2="34.7522" gradientUnits="userSpaceOnUse">
<stop stop-color="#FF00FF"/>
<stop offset="1" stop-color="#0000FF"/>
</linearGradient>
<linearGradient id="paint96_linear_2683_10713" x1="36.0102" y1="12.8418" x2="13.3099" y2="36.9393" gradientUnits="userSpaceOnUse">
<stop stop-color="#FF00FF"/>
<stop offset="1" stop-color="#0000FF"/>
</linearGradient>
<linearGradient id="paint97_linear_2683_10713" x1="29.8502" y1="7.04736" x2="7.14944" y2="31.1458" gradientUnits="userSpaceOnUse">
<stop stop-color="#FF00FF"/>
<stop offset="1" stop-color="#0000FF"/>
</linearGradient>
<linearGradient id="paint98_linear_2683_10713" x1="31.091" y1="8.88747" x2="10.3317" y2="30.6027" gradientUnits="userSpaceOnUse">
<stop stop-color="#FF00FF"/>
<stop offset="1" stop-color="#0000FF"/>
</linearGradient>
<linearGradient id="paint99_linear_2683_10713" x1="32.4071" y1="10.5231" x2="11.6492" y2="32.0196" gradientUnits="userSpaceOnUse">
<stop stop-color="#FF00FF"/>
<stop offset="1" stop-color="#0000FF"/>
</linearGradient>
<linearGradient id="paint100_linear_2683_10713" x1="33.623" y1="11.9588" x2="12.8783" y2="33.4648" gradientUnits="userSpaceOnUse">
<stop stop-color="#FF00FF"/>
<stop offset="1" stop-color="#0000FF"/>
</linearGradient>
<linearGradient id="paint101_linear_2683_10713" x1="27.6842" y1="4.36806" x2="5.24192" y2="28.1372" gradientUnits="userSpaceOnUse">
<stop stop-color="#FF00FF"/>
<stop offset="1" stop-color="#0000FF"/>
</linearGradient>
<clipPath id="clip0_2683_10713">
<rect width="29" height="29" fill="white" transform="translate(0 1)"/>
</clipPath>
</defs>
</svg>
