<svg width="16" height="16" viewBox="0 0 16 16" fill="none" xmlns="http://www.w3.org/2000/svg">
<g clip-path="url(#clip0_2684_13824)">
<rect width="16" height="16" fill="black"/>
<g clip-path="url(#clip1_2684_13824)">
<mask id="mask0_2684_13824" style="mask-type:luminance" maskUnits="userSpaceOnUse" x="2" y="9" width="1" height="1">
<path d="M2.20051 9.5071C2.24201 9.61955 2.27768 9.76499 2.2805 9.82572C2.2882 9.87576 2.27768 9.86152 2.25572 9.80173C2.22029 9.68927 2.18831 9.57582 2.15977 9.46137C2.15808 9.45124 2.15563 9.4415 2.15338 9.43138C2.14118 9.36072 2.16277 9.39277 2.20051 9.5071Z" fill="white"/>
</mask>
<g mask="url(#mask0_2684_13824)">
<path d="M2.2882 9.36035H2.14117V9.87614H2.2882V9.36035Z" fill="url(#paint0_linear_2684_13824)"/>
</g>
<mask id="mask1_2684_13824" style="mask-type:luminance" maskUnits="userSpaceOnUse" x="2" y="10" width="1" height="1">
<path d="M2.51651 10.4811C2.54448 10.5412 2.57284 10.601 2.598 10.6556V10.6571C2.5642 10.5881 2.53178 10.5188 2.50073 10.4492C2.50663 10.4595 2.51189 10.4702 2.51651 10.4811Z" fill="white"/>
</mask>
<g mask="url(#mask1_2684_13824)">
<path d="M2.598 10.4492H2.50073V10.6571H2.598V10.4492Z" fill="url(#paint1_linear_2684_13824)"/>
</g>
<mask id="mask2_2684_13824" style="mask-type:luminance" maskUnits="userSpaceOnUse" x="2" y="5" width="1" height="1">
<path d="M2.598 5.34424V5.34518C2.57265 5.3999 2.54448 5.4595 2.51651 5.51929C2.51197 5.53044 2.5067 5.54127 2.50073 5.55172C2.5319 5.48181 2.56345 5.41284 2.598 5.34424Z" fill="white"/>
</mask>
<g mask="url(#mask2_2684_13824)">
<path d="M2.598 5.34424H2.50073V5.55172H2.598V5.34424Z" fill="url(#paint2_linear_2684_13824)"/>
</g>
<mask id="mask3_2684_13824" style="mask-type:luminance" maskUnits="userSpaceOnUse" x="2" y="6" width="1" height="1">
<path d="M2.28048 6.17458C2.27767 6.23606 2.24293 6.38075 2.20049 6.4932C2.16294 6.60697 2.14116 6.63902 2.15336 6.56817C2.15562 6.55805 2.15806 6.54831 2.15975 6.53856C2.18829 6.42436 2.22027 6.31103 2.2557 6.19857C2.27767 6.13841 2.28818 6.12454 2.28048 6.17458Z" fill="white"/>
</mask>
<g mask="url(#mask3_2684_13824)">
<path d="M2.2882 6.12451H2.14117V6.63974H2.2882V6.12451Z" fill="url(#paint3_linear_2684_13824)"/>
</g>
<mask id="mask4_2684_13824" style="mask-type:luminance" maskUnits="userSpaceOnUse" x="2" y="7" width="1" height="1">
<path d="M2.07961 7.24794C2.08964 7.36736 2.08025 7.48761 2.05182 7.60404C2.02854 7.70394 2.00507 7.71462 2 7.62485C2.00215 7.51064 2.01175 7.3967 2.02873 7.28374C2.04901 7.18403 2.07173 7.16266 2.07961 7.24794Z" fill="white"/>
</mask>
<g mask="url(#mask4_2684_13824)">
<path d="M2.09163 7.1626H2V7.71494H2.09163V7.1626Z" fill="url(#paint4_linear_2684_13824)"/>
</g>
<mask id="mask5_2684_13824" style="mask-type:luminance" maskUnits="userSpaceOnUse" x="2" y="8" width="1" height="1">
<path d="M2.05182 8.39621C2.0803 8.51264 2.08968 8.6329 2.07961 8.75232C2.07173 8.83816 2.04901 8.81717 2.02873 8.71671C2.01178 8.60381 2.00218 8.48993 2 8.37579C2.00507 8.28507 2.02854 8.29613 2.05182 8.39621Z" fill="white"/>
</mask>
<g mask="url(#mask5_2684_13824)">
<path d="M2.09163 8.28516H2V8.83806H2.09163V8.28516Z" fill="url(#paint5_linear_2684_13824)"/>
</g>
<mask id="mask6_2684_13824" style="mask-type:luminance" maskUnits="userSpaceOnUse" x="2" y="9" width="1" height="2">
<path d="M2.61972 9.71781C2.69483 9.84113 2.72581 10.0091 2.69088 10.0897C2.65971 10.1646 2.58141 10.1271 2.51457 10.0087C2.44772 9.89024 2.41749 9.73355 2.43946 9.65352C2.46706 9.56787 2.54686 9.59242 2.61972 9.71781Z" fill="white"/>
</mask>
<g mask="url(#mask6_2684_13824)">
<path d="M2.7258 9.56787H2.4173V10.1643H2.7258V9.56787Z" fill="url(#paint6_linear_2684_13824)"/>
</g>
<mask id="mask7_2684_13824" style="mask-type:luminance" maskUnits="userSpaceOnUse" x="2" y="10" width="2" height="2">
<path d="M2.89611 10.8401C2.97685 10.955 3.02755 11.0948 3.01084 11.1471C2.99657 11.1915 2.92709 11.1364 2.85067 11.0224C2.77425 10.9085 2.72374 10.7788 2.73031 10.7289C2.7397 10.6707 2.81687 10.7235 2.89611 10.8401Z" fill="white"/>
</mask>
<g mask="url(#mask7_2684_13824)">
<path d="M3.02794 10.6704H2.72375V11.1913H3.02794V10.6704Z" fill="url(#paint7_linear_2684_13824)"/>
</g>
<mask id="mask8_2684_13824" style="mask-type:luminance" maskUnits="userSpaceOnUse" x="3" y="11" width="1" height="1">
<path d="M3.30568 11.7243C3.3945 11.8294 3.4589 11.9243 3.4589 11.9402C3.46134 11.9462 3.45252 11.9378 3.43656 11.9198C3.34555 11.8143 3.25886 11.7064 3.17649 11.5961C3.16973 11.5864 3.16298 11.576 3.15997 11.571C3.15528 11.5526 3.21949 11.6169 3.30568 11.7243Z" fill="white"/>
</mask>
<g mask="url(#mask8_2684_13824)">
<path d="M3.46128 11.5522H3.15521V11.9458H3.46128V11.5522Z" fill="url(#paint8_linear_2684_13824)"/>
</g>
<mask id="mask9_2684_13824" style="mask-type:luminance" maskUnits="userSpaceOnUse" x="3" y="4" width="1" height="1">
<path d="M3.45889 4.05983C3.45889 4.07595 3.39449 4.17041 3.30567 4.27612C3.21686 4.38183 3.15546 4.4478 3.15996 4.42887C3.16503 4.42022 3.17054 4.41183 3.17649 4.40376C3.25873 4.29355 3.34535 4.18572 3.43636 4.08026C3.45251 4.06264 3.46133 4.05421 3.45889 4.05983Z" fill="white"/>
</mask>
<g mask="url(#mask9_2684_13824)">
<path d="M3.46128 4.0542H3.15521V4.44779H3.46128V4.0542Z" fill="url(#paint9_linear_2684_13824)"/>
</g>
<mask id="mask10_2684_13824" style="mask-type:luminance" maskUnits="userSpaceOnUse" x="2" y="4" width="2" height="2">
<path d="M3.01106 4.85341C3.02814 4.9057 2.97707 5.04514 2.89633 5.16041C2.81559 5.27567 2.73992 5.32909 2.73053 5.27136C2.72396 5.22094 2.7771 5.09406 2.85089 4.97785C2.92468 4.86165 2.99679 4.80936 3.01106 4.85341Z" fill="white"/>
</mask>
<g mask="url(#mask10_2684_13824)">
<path d="M3.02819 4.80908H2.724V5.329H3.02819V4.80908Z" fill="url(#paint10_linear_2684_13824)"/>
</g>
<mask id="mask11_2684_13824" style="mask-type:luminance" maskUnits="userSpaceOnUse" x="2" y="5" width="1" height="2">
<path d="M2.69069 5.91077C2.72599 5.99136 2.69445 6.15929 2.61953 6.28205C2.54724 6.408 2.46706 6.43199 2.44002 6.3469C2.4173 6.26669 2.45035 6.11169 2.51513 5.9908C2.57991 5.86991 2.65952 5.83674 2.69069 5.91077Z" fill="white"/>
</mask>
<g mask="url(#mask11_2684_13824)">
<path d="M2.72599 5.83691H2.4173V6.43273H2.72599V5.83691Z" fill="url(#paint11_linear_2684_13824)"/>
</g>
<mask id="mask12_2684_13824" style="mask-type:luminance" maskUnits="userSpaceOnUse" x="2" y="7" width="1" height="1">
<path d="M2.51393 7.14105C2.5635 7.24845 2.55336 7.42893 2.48914 7.5502C2.42981 7.66265 2.34625 7.66884 2.30306 7.56332C2.26457 7.4623 2.27621 7.29005 2.3286 7.17516C2.38549 7.05765 2.46774 7.04284 2.51393 7.14105Z" fill="white"/>
</mask>
<g mask="url(#mask12_2684_13824)">
<path d="M2.56358 7.04346H2.26465V7.66927H2.56358V7.04346Z" fill="url(#paint12_linear_2684_13824)"/>
</g>
<mask id="mask13_2684_13824" style="mask-type:luminance" maskUnits="userSpaceOnUse" x="2" y="8" width="1" height="1">
<path d="M2.48914 8.45004C2.55336 8.57037 2.56425 8.75142 2.51393 8.85881C2.46774 8.95702 2.38549 8.94222 2.3286 8.82414C2.27621 8.70981 2.26457 8.53757 2.30306 8.43617C2.34625 8.33103 2.42981 8.33759 2.48914 8.45004Z" fill="white"/>
</mask>
<g mask="url(#mask13_2684_13824)">
<path d="M2.56358 8.33057H2.26465V8.95656H2.56358V8.33057Z" fill="url(#paint13_linear_2684_13824)"/>
</g>
<mask id="mask14_2684_13824" style="mask-type:luminance" maskUnits="userSpaceOnUse" x="3" y="9" width="1" height="2">
<path d="M3.42449 9.89659C3.52871 10.0278 3.55349 10.2133 3.48364 10.3104C3.41717 10.4026 3.28517 10.3702 3.18734 10.2415C3.09345 10.1146 3.06491 9.93689 3.12444 9.84055C3.18978 9.74515 3.32366 9.76558 3.42449 9.89659Z" fill="white"/>
</mask>
<g mask="url(#mask14_2684_13824)">
<path d="M3.55352 9.74512H3.06494V10.4026H3.55352V9.74512Z" fill="url(#paint14_linear_2684_13824)"/>
</g>
<mask id="mask15_2684_13824" style="mask-type:luminance" maskUnits="userSpaceOnUse" x="3" y="11" width="1" height="1">
<path d="M3.6495 11.1436C3.75671 11.2644 3.79971 11.4223 3.74469 11.4886C3.69099 11.5469 3.57007 11.5006 3.46961 11.3851C3.36915 11.2697 3.3254 11.1214 3.3684 11.0528C3.41722 10.9811 3.54416 11.0204 3.6495 11.1436Z" fill="white"/>
</mask>
<g mask="url(#mask15_2684_13824)">
<path d="M3.79993 10.981H3.32544V11.5468H3.79993V10.981Z" fill="url(#paint15_linear_2684_13824)"/>
</g>
<mask id="mask16_2684_13824" style="mask-type:luminance" maskUnits="userSpaceOnUse" x="3" y="12" width="2" height="1">
<path d="M3.98458 12.1398C4.09273 12.244 4.14756 12.3561 4.11095 12.3885C4.07339 12.4115 3.96824 12.3527 3.86516 12.2541C3.76207 12.1555 3.70292 12.0479 3.72959 12.0157C3.76132 11.9778 3.87755 12.0343 3.98458 12.1398Z" fill="white"/>
</mask>
<g mask="url(#mask16_2684_13824)">
<path d="M4.14783 11.978H3.703V12.4119H4.14783V11.978Z" fill="url(#paint16_linear_2684_13824)"/>
</g>
<mask id="mask17_2684_13824" style="mask-type:luminance" maskUnits="userSpaceOnUse" x="4" y="12" width="1" height="1">
<path d="M4.41434 12.8048C4.51987 12.8839 4.58728 12.9446 4.56456 12.9349C4.56456 12.9349 4.55949 12.9311 4.55949 12.9317C4.43681 12.8461 4.31689 12.7556 4.19972 12.6603C4.19033 12.6524 4.1862 12.6483 4.19127 12.6515C4.20573 12.6524 4.30581 12.7191 4.41434 12.8048Z" fill="white"/>
</mask>
<g mask="url(#mask17_2684_13824)">
<path d="M4.58724 12.6479H4.18579V12.9443H4.58724V12.6479Z" fill="url(#paint17_linear_2684_13824)"/>
</g>
<mask id="mask18_2684_13824" style="mask-type:luminance" maskUnits="userSpaceOnUse" x="4" y="3" width="1" height="1">
<path d="M4.56487 3.06548C4.58741 3.05574 4.52 3.11646 4.41466 3.19555C4.30613 3.28121 4.20605 3.34793 4.19121 3.34924C4.18614 3.35205 4.19027 3.34737 4.19966 3.34006C4.31683 3.24485 4.43681 3.15395 4.55943 3.06886L4.56487 3.06548Z" fill="white"/>
</mask>
<g mask="url(#mask18_2684_13824)">
<path d="M4.58737 3.05566H4.18591V3.35198H4.58737V3.05566Z" fill="url(#paint18_linear_2684_13824)"/>
</g>
<mask id="mask19_2684_13824" style="mask-type:luminance" maskUnits="userSpaceOnUse" x="3" y="3" width="2" height="1">
<path d="M4.11098 3.61194C4.1476 3.64436 4.09221 3.75644 3.98462 3.86065C3.87702 3.96486 3.76136 4.02258 3.72962 3.98472C3.70296 3.95136 3.76436 3.84622 3.86519 3.74632C3.96603 3.64642 4.07437 3.58907 4.11098 3.61194Z" fill="white"/>
</mask>
<g mask="url(#mask19_2684_13824)">
<path d="M4.14783 3.58887H3.703V4.02275H4.14783V3.58887Z" fill="url(#paint19_linear_2684_13824)"/>
</g>
<mask id="mask20_2684_13824" style="mask-type:luminance" maskUnits="userSpaceOnUse" x="3" y="4" width="1" height="1">
<path d="M3.74492 4.51162C3.80012 4.57778 3.75694 4.73653 3.64972 4.85667C3.5425 4.97681 3.41745 5.0186 3.36806 4.94738C3.32507 4.87879 3.37069 4.73203 3.46927 4.61489C3.56785 4.49775 3.69122 4.4539 3.74492 4.51162Z" fill="white"/>
</mask>
<g mask="url(#mask20_2684_13824)">
<path d="M3.8 4.4541H3.3255V5.01937H3.8V4.4541Z" fill="url(#paint20_linear_2684_13824)"/>
</g>
<mask id="mask21_2684_13824" style="mask-type:luminance" maskUnits="userSpaceOnUse" x="3" y="5" width="1" height="2">
<path d="M3.48322 5.69007C3.55307 5.78715 3.52829 5.9712 3.42408 6.1039C3.32324 6.2351 3.18936 6.25534 3.12364 6.16013C3.06412 6.06379 3.09266 5.88592 3.18655 5.75904C3.28513 5.63028 3.41713 5.5986 3.48322 5.69007Z" fill="white"/>
</mask>
<g mask="url(#mask21_2684_13824)">
<path d="M3.55352 5.59766H3.06494V6.25495H3.55352V5.59766Z" fill="url(#paint21_linear_2684_13824)"/>
</g>
<mask id="mask22_2684_13824" style="mask-type:luminance" maskUnits="userSpaceOnUse" x="2" y="6" width="2" height="2">
<path d="M3.33909 7.05428C3.42321 7.17104 3.4142 7.37571 3.31881 7.50409C3.227 7.62911 3.08917 7.63323 3.01125 7.51703C2.93727 7.40345 2.94722 7.2089 3.03284 7.0792C3.12166 6.95438 3.25816 6.93901 3.33909 7.05428Z" fill="white"/>
</mask>
<g mask="url(#mask22_2684_13824)">
<path d="M3.42308 6.93896H2.93713V7.63393H3.42308V6.93896Z" fill="url(#paint22_linear_2684_13824)"/>
</g>
<mask id="mask23_2684_13824" style="mask-type:luminance" maskUnits="userSpaceOnUse" x="2" y="8" width="2" height="2">
<path d="M3.3188 8.49558C3.41418 8.62471 3.4232 8.82938 3.33908 8.94539C3.25871 9.06066 3.12164 9.04529 3.03301 8.9199C2.9472 8.79058 2.93725 8.59679 3.01123 8.48189C3.08915 8.36644 3.22698 8.37056 3.3188 8.49558Z" fill="white"/>
</mask>
<g mask="url(#mask23_2684_13824)">
<path d="M3.42308 8.3667H2.93713V9.06167H3.42308V8.3667Z" fill="url(#paint23_linear_2684_13824)"/>
</g>
<mask id="mask24_2684_13824" style="mask-type:luminance" maskUnits="userSpaceOnUse" x="4" y="9" width="1" height="2">
<path d="M4.55809 10.0342C4.68427 10.1714 4.70098 10.3689 4.60015 10.4773C4.50401 10.5852 4.32789 10.5597 4.20865 10.4293C4.08942 10.2988 4.06989 10.1056 4.16227 9.99726C4.25653 9.88237 4.43585 9.90055 4.55809 10.0342Z" fill="white"/>
</mask>
<g mask="url(#mask24_2684_13824)">
<path d="M4.70092 9.88232H4.06982V10.5852H4.70092V9.88232Z" fill="url(#paint24_linear_2684_13824)"/>
</g>
<mask id="mask25_2684_13824" style="mask-type:luminance" maskUnits="userSpaceOnUse" x="4" y="11" width="1" height="1">
<path d="M4.72249 11.3791C4.85055 11.5042 4.88078 11.6723 4.79328 11.7529C4.70841 11.8278 4.54336 11.7922 4.42224 11.6741C4.30113 11.5561 4.26696 11.393 4.34714 11.313C4.429 11.226 4.59912 11.256 4.72249 11.3791Z" fill="white"/>
</mask>
<g mask="url(#mask25_2684_13824)">
<path d="M4.88073 11.2261H4.26691V11.8288H4.88073V11.2261Z" fill="url(#paint25_linear_2684_13824)"/>
</g>
<mask id="mask26_2684_13824" style="mask-type:luminance" maskUnits="userSpaceOnUse" x="4" y="12" width="2" height="1">
<path d="M4.96678 12.4613C5.09221 12.565 5.13183 12.6874 5.0586 12.7327C4.99195 12.7753 4.84511 12.7308 4.72531 12.6345C4.60551 12.5382 4.55632 12.416 4.62166 12.3691C4.68964 12.3172 4.84342 12.3558 4.96678 12.4613Z" fill="white"/>
</mask>
<g mask="url(#mask26_2684_13824)">
<path d="M5.13201 12.3174H4.55743V12.7753H5.13201V12.3174Z" fill="url(#paint26_linear_2684_13824)"/>
</g>
<mask id="mask27_2684_13824" style="mask-type:luminance" maskUnits="userSpaceOnUse" x="4" y="13" width="2" height="1">
<path d="M5.28079 13.1974C5.40059 13.2735 5.44678 13.3406 5.39063 13.3473C5.34238 13.3505 5.20962 13.2954 5.0964 13.2277C4.98317 13.1601 4.92628 13.093 4.97285 13.0842C5.02317 13.0692 5.16287 13.1198 5.28079 13.1974Z" fill="white"/>
</mask>
<g mask="url(#mask27_2684_13824)">
<path d="M5.44671 13.0693H4.92621V13.3505H5.44671V13.0693Z" fill="url(#paint27_linear_2684_13824)"/>
</g>
<mask id="mask28_2684_13824" style="mask-type:luminance" maskUnits="userSpaceOnUse" x="4" y="2" width="2" height="1">
<path d="M5.39048 2.653C5.44681 2.66012 5.40043 2.72666 5.28063 2.80294C5.16084 2.87922 5.02264 2.93151 4.97269 2.91671C4.92612 2.90808 4.98471 2.84361 5.09624 2.77333C5.20778 2.70304 5.34222 2.64944 5.39048 2.653Z" fill="white"/>
</mask>
<g mask="url(#mask28_2684_13824)">
<path d="M5.44671 2.6499H4.92621V2.93141H5.44671V2.6499Z" fill="url(#paint28_linear_2684_13824)"/>
</g>
<mask id="mask29_2684_13824" style="mask-type:luminance" maskUnits="userSpaceOnUse" x="4" y="3" width="2" height="1">
<path d="M5.05862 3.26855C5.13185 3.31354 5.09223 3.43574 4.9668 3.53994C4.84137 3.64415 4.68946 3.68388 4.62168 3.63159C4.55727 3.58418 4.60778 3.46479 4.72532 3.3662C4.84287 3.26762 4.99196 3.22601 5.05862 3.26855Z" fill="white"/>
</mask>
<g mask="url(#mask29_2684_13824)">
<path d="M5.13195 3.22559H4.55737V3.68346H5.13195V3.22559Z" fill="url(#paint29_linear_2684_13824)"/>
</g>
<mask id="mask30_2684_13824" style="mask-type:luminance" maskUnits="userSpaceOnUse" x="4" y="4" width="1" height="1">
<path d="M4.79309 4.24764C4.88059 4.32823 4.85036 4.49616 4.7223 4.62118C4.59912 4.74431 4.429 4.77449 4.34676 4.68734C4.2662 4.60731 4.30169 4.44612 4.42187 4.32636C4.54204 4.2066 4.70821 4.17173 4.79309 4.24764Z" fill="white"/>
</mask>
<g mask="url(#mask30_2684_13824)">
<path d="M4.88073 4.17188H4.26691V4.77463H4.88073V4.17188Z" fill="url(#paint30_linear_2684_13824)"/>
</g>
<mask id="mask31_2684_13824" style="mask-type:luminance" maskUnits="userSpaceOnUse" x="4" y="6" width="1" height="2">
<path d="M4.49749 6.98559C4.60847 7.11679 4.60246 7.33233 4.48228 7.46802C4.36211 7.60372 4.18185 7.60822 4.07539 7.47814C3.97192 7.34938 3.97868 7.14284 4.09172 7.0064C4.20476 6.86995 4.38652 6.86264 4.49749 6.98559Z" fill="white"/>
</mask>
<g mask="url(#mask31_2684_13824)">
<path d="M4.60749 6.86279H3.97095V7.6078H4.60749V6.86279Z" fill="url(#paint31_linear_2684_13824)"/>
</g>
<mask id="mask32_2684_13824" style="mask-type:luminance" maskUnits="userSpaceOnUse" x="4" y="8" width="1" height="2">
<path d="M4.48119 8.53309C4.60136 8.66878 4.60737 8.88488 4.4964 9.01552C4.38637 9.13772 4.20554 9.12797 4.09063 8.99471C3.97571 8.86145 3.97158 8.65154 4.07429 8.5224C4.18095 8.39289 4.36346 8.39608 4.48119 8.53309Z" fill="white"/>
</mask>
<g mask="url(#mask32_2684_13824)">
<path d="M4.60743 8.39258H3.97089V9.13759H4.60743V8.39258Z" fill="url(#paint32_linear_2684_13824)"/>
</g>
<mask id="mask33_2684_13824" style="mask-type:luminance" maskUnits="userSpaceOnUse" x="5" y="10" width="2" height="1">
<path d="M5.9397 10.1284C6.07677 10.2645 6.08785 10.4733 5.96561 10.5938C5.84375 10.71 5.63908 10.6965 5.50388 10.5632C5.36869 10.43 5.35611 10.2259 5.47365 10.1054C5.59307 9.98128 5.80338 9.99272 5.9397 10.1284Z" fill="white"/>
</mask>
<g mask="url(#mask33_2684_13824)">
<path d="M6.08788 9.98096H5.35614V10.7097H6.08788V9.98096Z" fill="url(#paint33_linear_2684_13824)"/>
</g>
<mask id="mask34_2684_13824" style="mask-type:luminance" maskUnits="userSpaceOnUse" x="5" y="11" width="2" height="1">
<path d="M6.03867 11.54C6.1733 11.6605 6.1902 11.836 6.07791 11.9299C5.96844 12.0202 5.77429 11.9985 5.64153 11.8823C5.50878 11.7661 5.4885 11.5938 5.59234 11.4965C5.70087 11.3963 5.90141 11.4148 6.03867 11.54Z" fill="white"/>
</mask>
<g mask="url(#mask34_2684_13824)">
<path d="M6.1901 11.3965H5.4884V12.0197H6.1901V11.3965Z" fill="url(#paint34_linear_2684_13824)"/>
</g>
<mask id="mask35_2684_13824" style="mask-type:luminance" maskUnits="userSpaceOnUse" x="5" y="12" width="2" height="1">
<path d="M6.18072 12.6788C6.31216 12.776 6.33188 12.9037 6.2333 12.9659C6.13941 13.0221 5.96441 12.9955 5.8341 12.9035C5.7113 12.8122 5.67863 12.6853 5.76801 12.6205C5.8679 12.5549 6.04853 12.5779 6.18072 12.6788Z" fill="white"/>
</mask>
<g mask="url(#mask35_2684_13824)">
<path d="M6.33171 12.5547H5.67865V13.0227H6.33171V12.5547Z" fill="url(#paint35_linear_2684_13824)"/>
</g>
<mask id="mask36_2684_13824" style="mask-type:luminance" maskUnits="userSpaceOnUse" x="5" y="13" width="2" height="1">
<path d="M6.36535 13.4628C6.48928 13.5295 6.51181 13.6013 6.43276 13.6253C6.34864 13.6424 6.19223 13.6092 6.076 13.5503C5.95977 13.4915 5.91921 13.4169 5.99695 13.392C6.07994 13.3627 6.24368 13.3929 6.36535 13.4628Z" fill="white"/>
</mask>
<g mask="url(#mask36_2684_13824)">
<path d="M6.51181 13.3628H5.91827V13.6424H6.51181V13.3628Z" fill="url(#paint36_linear_2684_13824)"/>
</g>
<mask id="mask37_2684_13824" style="mask-type:luminance" maskUnits="userSpaceOnUse" x="6" y="13" width="1" height="1">
<path d="M6.58151 13.8304C6.65305 13.8508 6.69304 13.8643 6.69098 13.866C6.53801 13.8322 6.38654 13.7924 6.23657 13.7466C6.24665 13.7465 6.25668 13.7481 6.26624 13.7513C6.3728 13.7714 6.47807 13.7978 6.58151 13.8304Z" fill="white"/>
</mask>
<g mask="url(#mask37_2684_13824)">
<path d="M6.69291 13.7456H6.23663V13.8659H6.69291V13.7456Z" fill="url(#paint37_linear_2684_13824)"/>
</g>
<mask id="mask38_2684_13824" style="mask-type:luminance" maskUnits="userSpaceOnUse" x="6" y="2" width="1" height="1">
<path d="M6.69098 2.13428C6.69304 2.13615 6.65342 2.14965 6.58151 2.16951C6.47807 2.20221 6.3728 2.2288 6.26624 2.24917C6.25668 2.25238 6.24665 2.25397 6.23657 2.25385C6.38666 2.208 6.53813 2.16814 6.69098 2.13428Z" fill="white"/>
</mask>
<g mask="url(#mask38_2684_13824)">
<path d="M6.69285 2.13428H6.23657V2.2546H6.69285V2.13428Z" fill="url(#paint38_linear_2684_13824)"/>
</g>
<mask id="mask39_2684_13824" style="mask-type:luminance" maskUnits="userSpaceOnUse" x="5" y="2" width="2" height="1">
<path d="M6.43258 2.37526C6.51163 2.39925 6.48891 2.47103 6.36517 2.53775C6.24406 2.60766 6.07976 2.63765 5.99582 2.6086C5.91809 2.58349 5.95977 2.51133 6.07488 2.45023C6.18998 2.38913 6.34846 2.3582 6.43258 2.37526Z" fill="white"/>
</mask>
<g mask="url(#mask39_2684_13824)">
<path d="M6.51169 2.35791H5.91815V2.63755H6.51169V2.35791Z" fill="url(#paint39_linear_2684_13824)"/>
</g>
<mask id="mask40_2684_13824" style="mask-type:luminance" maskUnits="userSpaceOnUse" x="5" y="3" width="2" height="1">
<path d="M6.23351 3.03506C6.33209 3.09654 6.31162 3.22492 6.18094 3.32201C6.0495 3.42303 5.86717 3.44665 5.76784 3.38049C5.67846 3.31564 5.71151 3.18913 5.83394 3.0971C5.96462 3.00545 6.13906 2.97809 6.23351 3.03506Z" fill="white"/>
</mask>
<g mask="url(#mask40_2684_13824)">
<path d="M6.3319 2.97803H5.67883V3.44659H6.3319V2.97803Z" fill="url(#paint40_linear_2684_13824)"/>
</g>
<mask id="mask41_2684_13824" style="mask-type:luminance" maskUnits="userSpaceOnUse" x="5" y="4" width="2" height="1">
<path d="M6.07794 4.07162C6.1906 4.16533 6.17333 4.34095 6.0387 4.46146C5.90144 4.58591 5.70071 4.6039 5.59237 4.50438C5.48853 4.40767 5.51125 4.23599 5.64157 4.11922C5.77188 4.00246 5.96847 3.98128 6.07794 4.07162Z" fill="white"/>
</mask>
<g mask="url(#mask41_2684_13824)">
<path d="M6.19022 3.98096H5.48853V4.60377H6.19022V3.98096Z" fill="url(#paint41_linear_2684_13824)"/>
</g>
<mask id="mask42_2684_13824" style="mask-type:luminance" maskUnits="userSpaceOnUse" x="5" y="8" width="1" height="2">
<path d="M5.89408 8.55636C6.03116 8.69899 6.03397 8.92296 5.90272 9.05959C5.77316 9.19341 5.56042 9.18741 5.42729 9.04853C5.29416 8.90965 5.2904 8.68643 5.41677 8.55111C5.54314 8.41579 5.75889 8.4156 5.89408 8.55636Z" fill="white"/>
</mask>
<g mask="url(#mask42_2684_13824)">
<path d="M6.03397 8.41455H5.29041V9.1933H6.03397V8.41455Z" fill="url(#paint42_linear_2684_13824)"/>
</g>
<mask id="mask43_2684_13824" style="mask-type:luminance" maskUnits="userSpaceOnUse" x="7" y="12" width="1" height="2">
<path d="M7.5328 12.7783C7.65673 12.8667 7.66255 12.9991 7.54501 13.0731C7.42934 13.1436 7.23688 13.1344 7.11314 13.0529C6.98395 12.9666 6.97043 12.8356 7.08591 12.7594C7.20364 12.6782 7.40399 12.6866 7.5328 12.7783Z" fill="white"/>
</mask>
<g mask="url(#mask43_2684_13824)">
<path d="M7.66256 12.6782H6.97119V13.1436H7.66256V12.6782Z" fill="url(#paint43_linear_2684_13824)"/>
</g>
<mask id="mask44_2684_13824" style="mask-type:luminance" maskUnits="userSpaceOnUse" x="7" y="13" width="1" height="1">
<path d="M7.57798 13.5851C7.6929 13.6395 7.70041 13.7163 7.59432 13.7538C7.49255 13.7872 7.3243 13.7761 7.21296 13.7293C7.09785 13.6779 7.08152 13.6033 7.17916 13.5623C7.28149 13.5158 7.45969 13.5263 7.57798 13.5851Z" fill="white"/>
</mask>
<g mask="url(#mask44_2684_13824)">
<path d="M7.70032 13.5161H7.08124V13.7869H7.70032V13.5161Z" fill="url(#paint44_linear_2684_13824)"/>
</g>
<mask id="mask45_2684_13824" style="mask-type:luminance" maskUnits="userSpaceOnUse" x="7" y="13" width="1" height="1">
<path d="M7.63314 13.9702C7.73379 13.9868 7.7398 14 7.6568 13.9988C7.54414 13.9928 7.4321 13.9835 7.32069 13.9707C7.22362 13.9572 7.20315 13.9449 7.28671 13.9434C7.40283 13.9392 7.51904 13.9482 7.63314 13.9702Z" fill="white"/>
</mask>
<g mask="url(#mask45_2684_13824)">
<path d="M7.73996 13.937H7.20312V14H7.73996V13.937Z" fill="url(#paint45_linear_2684_13824)"/>
</g>
<mask id="mask46_2684_13824" style="mask-type:luminance" maskUnits="userSpaceOnUse" x="7" y="2" width="1" height="1">
<path d="M7.6568 2.00098C7.7398 2.00098 7.73379 2.01353 7.63314 2.02965C7.51906 2.05168 7.40283 2.06061 7.28671 2.05627C7.20315 2.05477 7.22362 2.0424 7.32069 2.0289C7.43236 2.01678 7.54439 2.00747 7.6568 2.00098Z" fill="white"/>
</mask>
<g mask="url(#mask46_2684_13824)">
<path d="M7.73996 2H7.20312V2.06335H7.73996V2Z" fill="url(#paint46_linear_2684_13824)"/>
</g>
<mask id="mask47_2684_13824" style="mask-type:luminance" maskUnits="userSpaceOnUse" x="7" y="2" width="1" height="1">
<path d="M7.59435 2.24717C7.70044 2.28559 7.69293 2.35962 7.57801 2.41585C7.45972 2.47507 7.28152 2.48538 7.17919 2.43946C7.08117 2.39823 7.09789 2.32382 7.21299 2.27228C7.32434 2.22524 7.49258 2.2138 7.59435 2.24717Z" fill="white"/>
</mask>
<g mask="url(#mask47_2684_13824)">
<path d="M7.70038 2.21338H7.0813V2.48421H7.70038V2.21338Z" fill="url(#paint47_linear_2684_13824)"/>
</g>
<mask id="mask48_2684_13824" style="mask-type:luminance" maskUnits="userSpaceOnUse" x="7" y="2" width="1" height="2">
<path d="M7.54505 2.9264C7.6626 3.00137 7.65678 3.13256 7.53285 3.22178C7.40404 3.31343 7.20369 3.32167 7.08671 3.24052C6.97123 3.16405 6.98475 3.03323 7.11393 2.94701C7.23692 2.86623 7.42939 2.85593 7.54505 2.9264Z" fill="white"/>
</mask>
<g mask="url(#mask48_2684_13824)">
<path d="M7.66256 2.85596H6.97119V3.32171H7.66256V2.85596Z" fill="url(#paint48_linear_2684_13824)"/>
</g>
<mask id="mask49_2684_13824" style="mask-type:luminance" maskUnits="userSpaceOnUse" x="6" y="3" width="2" height="2">
<path d="M7.50607 3.9896C7.63394 4.09474 7.62812 4.27392 7.49255 4.38975C7.35698 4.50557 7.1403 4.5142 7.01299 4.40399C6.88756 4.29716 6.90033 4.11798 7.03627 4.00496C7.1694 3.89513 7.38008 3.88726 7.50607 3.9896Z" fill="white"/>
</mask>
<g mask="url(#mask49_2684_13824)">
<path d="M7.63383 3.88672H6.88763V4.51365H7.63383V3.88672Z" fill="url(#paint49_linear_2684_13824)"/>
</g>
<mask id="mask50_2684_13824" style="mask-type:luminance" maskUnits="userSpaceOnUse" x="8" y="11" width="2" height="2">
<path d="M8.9879 11.5963C9.1137 11.7033 9.10394 11.881 8.96912 11.994C8.8343 12.107 8.62512 12.1121 8.49969 12.0107C8.37182 11.9056 8.3737 11.7264 8.50871 11.6111C8.64691 11.4921 8.86096 11.4861 8.9879 11.5963Z" fill="white"/>
</mask>
<g mask="url(#mask50_2684_13824)">
<path d="M9.11359 11.4863H8.37152V12.1121H9.11359V11.4863Z" fill="url(#paint50_linear_2684_13824)"/>
</g>
<mask id="mask51_2684_13824" style="mask-type:luminance" maskUnits="userSpaceOnUse" x="8" y="12" width="1" height="2">
<path d="M8.91543 12.7584C9.03091 12.8353 9.01739 12.9663 8.88802 13.0523C8.76503 13.1335 8.57294 13.1432 8.45709 13.0731C8.33954 12.9981 8.34536 12.8669 8.47417 12.7779C8.5981 12.6866 8.80296 12.6774 8.91543 12.7584Z" fill="white"/>
</mask>
<g mask="url(#mask51_2684_13824)">
<path d="M9.03097 12.6772H8.3396V13.1436H9.03097V12.6772Z" fill="url(#paint51_linear_2684_13824)"/>
</g>
<mask id="mask52_2684_13824" style="mask-type:luminance" maskUnits="userSpaceOnUse" x="8" y="13" width="1" height="1">
<path d="M8.82363 13.5617C8.92728 13.602 8.91038 13.6765 8.79546 13.7279C8.67886 13.7755 8.51005 13.7868 8.40847 13.7534C8.30801 13.715 8.30951 13.64 8.42462 13.5847C8.54291 13.5268 8.7211 13.5157 8.82363 13.5617Z" fill="white"/>
</mask>
<g mask="url(#mask52_2684_13824)">
<path d="M8.927 13.5156H8.30792V13.7865H8.927V13.5156Z" fill="url(#paint52_linear_2684_13824)"/>
</g>
<mask id="mask53_2684_13824" style="mask-type:luminance" maskUnits="userSpaceOnUse" x="8" y="13" width="1" height="1">
<path d="M8.71667 13.943C8.8006 13.943 8.78501 13.9556 8.68643 13.9698C8.57509 13.9824 8.46336 13.9916 8.35183 13.9981C8.26339 13.9996 8.2694 13.9865 8.3706 13.9698C8.48452 13.9475 8.60066 13.9385 8.71667 13.943Z" fill="white"/>
</mask>
<g mask="url(#mask53_2684_13824)">
<path d="M8.80064 13.936H8.26324V13.9994H8.80064V13.936Z" fill="url(#paint53_linear_2684_13824)"/>
</g>
<mask id="mask54_2684_13824" style="mask-type:luminance" maskUnits="userSpaceOnUse" x="8" y="2" width="1" height="1">
<path d="M8.68645 2.03072C8.78503 2.04422 8.80062 2.05621 8.71669 2.05715C8.60049 2.06147 8.48418 2.05241 8.37006 2.03016C8.26942 2.01367 8.26341 2.00073 8.35129 2.00204C8.4632 2.00842 8.57492 2.01798 8.68645 2.03072Z" fill="white"/>
</mask>
<g mask="url(#mask54_2684_13824)">
<path d="M8.8007 2.00049H8.26331V2.06346H8.8007V2.00049Z" fill="url(#paint54_linear_2684_13824)"/>
</g>
<mask id="mask55_2684_13824" style="mask-type:luminance" maskUnits="userSpaceOnUse" x="8" y="2" width="1" height="1">
<path d="M8.7954 2.27287C8.91032 2.32422 8.92684 2.39882 8.82357 2.43911C8.72104 2.48447 8.54285 2.47416 8.42455 2.4155C8.30945 2.36077 8.30795 2.2858 8.40841 2.24681C8.50999 2.21402 8.6788 2.22507 8.7954 2.27287Z" fill="white"/>
</mask>
<g mask="url(#mask55_2684_13824)">
<path d="M8.927 2.21338H8.30792V2.48383H8.927V2.21338Z" fill="url(#paint55_linear_2684_13824)"/>
</g>
<mask id="mask56_2684_13824" style="mask-type:luminance" maskUnits="userSpaceOnUse" x="8" y="2" width="1" height="2">
<path d="M8.88802 2.9476C9.01739 3.03381 9.03091 3.16482 8.91543 3.24166C8.80277 3.32319 8.5981 3.31401 8.47417 3.22292C8.34536 3.13446 8.33954 3.00214 8.45709 2.92754C8.57294 2.85651 8.76503 2.86625 8.88802 2.9476Z" fill="white"/>
</mask>
<g mask="url(#mask56_2684_13824)">
<path d="M9.03097 2.85645H8.3396V3.32313H9.03097V2.85645Z" fill="url(#paint56_linear_2684_13824)"/>
</g>
<mask id="mask57_2684_13824" style="mask-type:luminance" maskUnits="userSpaceOnUse" x="8" y="3" width="2" height="2">
<path d="M8.96949 4.00648C9.10394 4.11893 9.1137 4.29717 8.98827 4.40419C8.86134 4.5144 8.64672 4.50784 8.50871 4.38939C8.3737 4.27412 8.37182 4.09494 8.49969 3.9898C8.6255 3.88784 8.83242 3.89534 8.96949 4.00648Z" fill="white"/>
</mask>
<g mask="url(#mask57_2684_13824)">
<path d="M9.11359 3.8877H8.37152V4.51407H9.11359V3.8877Z" fill="url(#paint57_linear_2684_13824)"/>
</g>
<mask id="mask58_2684_13824" style="mask-type:luminance" maskUnits="userSpaceOnUse" x="9" y="10" width="2" height="1">
<path d="M10.5288 10.1008C10.6465 10.2207 10.6308 10.4276 10.4993 10.5592C10.3645 10.6925 10.1568 10.7082 10.0376 10.5901C9.91273 10.4721 9.92362 10.2629 10.0607 10.1272C10.1978 9.99151 10.4075 9.97951 10.5288 10.1008Z" fill="white"/>
</mask>
<g mask="url(#mask58_2684_13824)">
<path d="M10.6465 9.97949H9.91272V10.7082H10.6465V9.97949Z" fill="url(#paint58_linear_2684_13824)"/>
</g>
<mask id="mask59_2684_13824" style="mask-type:luminance" maskUnits="userSpaceOnUse" x="9" y="11" width="2" height="1">
<path d="M10.4091 11.4951C10.5168 11.5888 10.4939 11.7612 10.3602 11.8802C10.2266 11.9993 10.0333 12.0187 9.92368 11.9284C9.81553 11.8323 9.83186 11.6566 9.96612 11.5363C10.1004 11.416 10.3005 11.3956 10.4091 11.4951Z" fill="white"/>
</mask>
<g mask="url(#mask59_2684_13824)">
<path d="M10.5168 11.395H9.81549V12.0182H10.5168V11.395Z" fill="url(#paint59_linear_2684_13824)"/>
</g>
<mask id="mask60_2684_13824" style="mask-type:luminance" maskUnits="userSpaceOnUse" x="9" y="12" width="2" height="1">
<path d="M10.2336 12.6187C10.3275 12.6811 10.2955 12.8076 10.168 12.902C10.0426 12.9922 9.86329 13.0214 9.76884 12.9639C9.67007 12.903 9.69523 12.7727 9.82122 12.6769C9.95304 12.5759 10.1393 12.5506 10.2336 12.6187Z" fill="white"/>
</mask>
<g mask="url(#mask60_2684_13824)">
<path d="M10.3279 12.5508H9.6701V13.0216H10.3279V12.5508Z" fill="url(#paint60_linear_2684_13824)"/>
</g>
<mask id="mask61_2684_13824" style="mask-type:luminance" maskUnits="userSpaceOnUse" x="9" y="13" width="2" height="1">
<path d="M10.0064 13.3905C10.0842 13.4154 10.0481 13.4859 9.92756 13.5487C9.81039 13.6075 9.65417 13.6413 9.57549 13.6236C9.49081 13.601 9.51916 13.5277 9.63727 13.4625C9.75876 13.3918 9.92794 13.3599 10.0064 13.3905Z" fill="white"/>
</mask>
<g mask="url(#mask61_2684_13824)">
<path d="M10.084 13.3599H9.49084V13.6414H10.084V13.3599Z" fill="url(#paint61_linear_2684_13824)"/>
</g>
<mask id="mask62_2684_13824" style="mask-type:luminance" maskUnits="userSpaceOnUse" x="9" y="13" width="1" height="1">
<path d="M9.74219 13.7486C9.75796 13.7449 9.76904 13.743 9.76772 13.7449C9.61901 13.7902 9.46879 13.8297 9.31708 13.8633C9.31539 13.8615 9.34975 13.8495 9.42073 13.8292C9.52616 13.7959 9.63351 13.769 9.74219 13.7486Z" fill="white"/>
</mask>
<g mask="url(#mask62_2684_13824)">
<path d="M9.76913 13.7432H9.31604V13.8635H9.76913V13.7432Z" fill="url(#paint62_linear_2684_13824)"/>
</g>
<mask id="mask63_2684_13824" style="mask-type:luminance" maskUnits="userSpaceOnUse" x="9" y="2" width="1" height="1">
<path d="M9.76753 2.25524C9.76884 2.25712 9.75776 2.25524 9.74199 2.2515C9.63348 2.23103 9.52631 2.20399 9.42109 2.17053C9.35011 2.15066 9.31575 2.13848 9.31744 2.13623C9.46878 2.17047 9.61881 2.21014 9.76753 2.25524Z" fill="white"/>
</mask>
<g mask="url(#mask63_2684_13824)">
<path d="M9.76882 2.13623H9.31573V2.25712H9.76882V2.13623Z" fill="url(#paint63_linear_2684_13824)"/>
</g>
<mask id="mask64_2684_13824" style="mask-type:luminance" maskUnits="userSpaceOnUse" x="9" y="2" width="2" height="1">
<path d="M9.92774 2.45123C10.0483 2.51458 10.0843 2.58448 10.0066 2.6096C9.92811 2.64109 9.75893 2.6096 9.63744 2.53913C9.51915 2.47334 9.49098 2.40025 9.57567 2.37757C9.65434 2.35901 9.81132 2.39387 9.92774 2.45123Z" fill="white"/>
</mask>
<g mask="url(#mask64_2684_13824)">
<path d="M10.0841 2.35889H9.49097V2.64077H10.0841V2.35889Z" fill="url(#paint64_linear_2684_13824)"/>
</g>
<mask id="mask65_2684_13824" style="mask-type:luminance" maskUnits="userSpaceOnUse" x="9" y="3" width="2" height="1">
<path d="M10.1679 3.09782C10.2954 3.19153 10.3277 3.31879 10.2335 3.38121C10.1396 3.44887 9.95294 3.42375 9.82037 3.32292C9.69438 3.22696 9.66922 3.09688 9.76798 3.03541C9.86337 2.97881 10.0427 3.00767 10.1679 3.09782Z" fill="white"/>
</mask>
<g mask="url(#mask65_2684_13824)">
<path d="M10.328 2.979H9.67023V3.44888H10.328V2.979Z" fill="url(#paint65_linear_2684_13824)"/>
</g>
<mask id="mask66_2684_13824" style="mask-type:luminance" maskUnits="userSpaceOnUse" x="9" y="4" width="2" height="1">
<path d="M10.3603 4.12091C10.494 4.23973 10.5169 4.4116 10.4091 4.50606C10.3006 4.60559 10.1 4.58703 9.96615 4.46483C9.83227 4.34263 9.81593 4.16889 9.92371 4.07255C10.0334 3.9824 10.2275 4.0047 10.3603 4.12091Z" fill="white"/>
</mask>
<g mask="url(#mask66_2684_13824)">
<path d="M10.5169 3.98193H9.81561V4.60512H10.5169V3.98193Z" fill="url(#paint66_linear_2684_13824)"/>
</g>
<mask id="mask67_2684_13824" style="mask-type:luminance" maskUnits="userSpaceOnUse" x="10" y="8" width="1" height="2">
<path d="M10.5837 8.54767C10.7102 8.68224 10.7057 8.90377 10.5739 9.04434C10.4421 9.18491 10.2273 9.19203 10.0974 9.05877C9.96593 8.92177 9.96968 8.69573 10.106 8.55498C10.2423 8.41422 10.4553 8.41104 10.5837 8.54767Z" fill="white"/>
</mask>
<g mask="url(#mask67_2684_13824)">
<path d="M10.7101 8.41064H9.96619V9.19164H10.7101V8.41064Z" fill="url(#paint67_linear_2684_13824)"/>
</g>
<mask id="mask68_2684_13824" style="mask-type:luminance" maskUnits="userSpaceOnUse" x="11" y="9" width="1" height="2">
<path d="M11.8401 9.99107C11.9329 10.0994 11.9111 10.2928 11.7921 10.4266C11.673 10.5578 11.4989 10.5794 11.4007 10.4754C11.2995 10.3665 11.3185 10.1661 11.4424 10.0323C11.5664 9.89848 11.744 9.87992 11.8401 9.99107Z" fill="white"/>
</mask>
<g mask="url(#mask68_2684_13824)">
<path d="M11.9329 9.87988H11.2996V10.5795H11.9329V9.87988Z" fill="url(#paint68_linear_2684_13824)"/>
</g>
<mask id="mask69_2684_13824" style="mask-type:luminance" maskUnits="userSpaceOnUse" x="11" y="11" width="1" height="1">
<path d="M11.6571 11.3071C11.734 11.3905 11.6989 11.5524 11.5791 11.6724C11.4593 11.7923 11.2933 11.827 11.2122 11.7473C11.1242 11.6667 11.1542 11.4986 11.2787 11.377C11.4051 11.2507 11.572 11.2239 11.6571 11.3071Z" fill="white"/>
</mask>
<g mask="url(#mask69_2684_13824)">
<path d="M11.7341 11.2236H11.1242V11.827H11.7341V11.2236Z" fill="url(#paint69_linear_2684_13824)"/>
</g>
<mask id="mask70_2684_13824" style="mask-type:luminance" maskUnits="userSpaceOnUse" x="10" y="12" width="2" height="1">
<path d="M11.38 12.3677C11.4448 12.4146 11.3988 12.5308 11.2812 12.6301C11.1637 12.7295 11.0101 12.7746 10.9432 12.7325C10.8745 12.6839 10.9138 12.5621 11.0351 12.4607C11.1588 12.3544 11.3167 12.3123 11.38 12.3677Z" fill="white"/>
</mask>
<g mask="url(#mask70_2684_13824)">
<path d="M11.4446 12.312H10.8749V12.7736H11.4446V12.312Z" fill="url(#paint70_linear_2684_13824)"/>
</g>
<mask id="mask71_2684_13824" style="mask-type:luminance" maskUnits="userSpaceOnUse" x="10" y="13" width="2" height="1">
<path d="M11.0294 13.082C11.0762 13.0912 11.0176 13.157 10.906 13.226C10.7945 13.2949 10.6653 13.3469 10.6116 13.3459C10.5553 13.339 10.6071 13.2695 10.7217 13.196C10.8396 13.1186 10.9797 13.0676 11.0294 13.082Z" fill="white"/>
</mask>
<g mask="url(#mask71_2684_13824)">
<path d="M11.0763 13.0674H10.5556V13.3466H11.0763V13.0674Z" fill="url(#paint71_linear_2684_13824)"/>
</g>
<mask id="mask72_2684_13824" style="mask-type:luminance" maskUnits="userSpaceOnUse" x="10" y="2" width="2" height="1">
<path d="M10.9062 2.77462C11.0177 2.84453 11.0763 2.90919 11.0296 2.918C10.9798 2.933 10.8397 2.88239 10.7218 2.80424C10.6073 2.73095 10.5556 2.66161 10.6118 2.6543C10.6655 2.65411 10.793 2.70696 10.9062 2.77462Z" fill="white"/>
</mask>
<g mask="url(#mask72_2684_13824)">
<path d="M11.0763 2.6543H10.5557V2.933H11.0763V2.6543Z" fill="url(#paint72_linear_2684_13824)"/>
</g>
<mask id="mask73_2684_13824" style="mask-type:luminance" maskUnits="userSpaceOnUse" x="10" y="3" width="2" height="1">
<path d="M11.2811 3.37096C11.3986 3.46954 11.4446 3.58631 11.3799 3.63335C11.3166 3.68845 11.1587 3.64684 11.0353 3.54132C10.914 3.43993 10.8748 3.31773 10.9435 3.26956C11.01 3.22701 11.1615 3.27462 11.2811 3.37096Z" fill="white"/>
</mask>
<g mask="url(#mask73_2684_13824)">
<path d="M11.4443 3.22705H10.8746V3.68811H11.4443V3.22705Z" fill="url(#paint73_linear_2684_13824)"/>
</g>
<mask id="mask74_2684_13824" style="mask-type:luminance" maskUnits="userSpaceOnUse" x="11" y="4" width="1" height="1">
<path d="M11.5791 4.32871C11.6989 4.4481 11.734 4.60985 11.6571 4.69306C11.572 4.77647 11.4051 4.74929 11.2787 4.62316C11.1542 4.50133 11.1242 4.33284 11.2122 4.25281C11.2933 4.17409 11.458 4.21026 11.5791 4.32871Z" fill="white"/>
</mask>
<g mask="url(#mask74_2684_13824)">
<path d="M11.7341 4.17383H11.1242V4.77658H11.7341V4.17383Z" fill="url(#paint74_linear_2684_13824)"/>
</g>
<mask id="mask75_2684_13824" style="mask-type:luminance" maskUnits="userSpaceOnUse" x="11" y="5" width="1" height="2">
<path d="M11.7924 5.57325C11.9114 5.70707 11.9332 5.90068 11.8404 6.00863C11.7443 6.12015 11.5648 6.10235 11.4427 5.96778C11.3207 5.83321 11.2999 5.63304 11.4011 5.52471C11.4993 5.4205 11.6733 5.4428 11.7924 5.57325Z" fill="white"/>
</mask>
<g mask="url(#mask75_2684_13824)">
<path d="M11.9332 5.4209H11.2998V6.12055H11.9332V5.4209Z" fill="url(#paint75_linear_2684_13824)"/>
</g>
<mask id="mask76_2684_13824" style="mask-type:luminance" maskUnits="userSpaceOnUse" x="11" y="8" width="1" height="2">
<path d="M11.9257 8.52063C12.0296 8.64508 12.0221 8.85575 11.9103 8.98919C11.7945 9.12658 11.6137 9.13632 11.5047 9.01056C11.3921 8.88367 11.3985 8.66701 11.5185 8.53169C11.6384 8.39637 11.8185 8.39112 11.9257 8.52063Z" fill="white"/>
</mask>
<g mask="url(#mask76_2684_13824)">
<path d="M12.0296 8.39062H11.3925V9.13601H12.0296V8.39062Z" fill="url(#paint76_linear_2684_13824)"/>
</g>
<mask id="mask77_2684_13824" style="mask-type:luminance" maskUnits="userSpaceOnUse" x="12" y="9" width="1" height="2">
<path d="M12.8758 9.83734C12.9355 9.93367 12.9069 10.1115 12.8131 10.2382C12.7192 10.3649 12.5859 10.3947 12.5192 10.3027C12.449 10.2058 12.4738 10.0206 12.5755 9.89338C12.6766 9.76237 12.8121 9.73688 12.8758 9.83734Z" fill="white"/>
</mask>
<g mask="url(#mask77_2684_13824)">
<path d="M12.9355 9.73682H12.449V10.3947H12.9355V9.73682Z" fill="url(#paint77_linear_2684_13824)"/>
</g>
<mask id="mask78_2684_13824" style="mask-type:luminance" maskUnits="userSpaceOnUse" x="12" y="11" width="1" height="1">
<path d="M12.633 11.0501C12.679 11.1146 12.633 11.2608 12.5354 11.3779C12.4315 11.4979 12.31 11.5442 12.2603 11.4816C12.2051 11.416 12.2449 11.2617 12.3515 11.1408C12.4582 11.02 12.5842 10.9789 12.633 11.0501Z" fill="white"/>
</mask>
<g mask="url(#mask78_2684_13824)">
<path d="M12.6789 10.9785H12.205V11.5438H12.6789V10.9785Z" fill="url(#paint78_linear_2684_13824)"/>
</g>
<mask id="mask79_2684_13824" style="mask-type:luminance" maskUnits="userSpaceOnUse" x="11" y="11" width="2" height="2">
<path d="M12.2763 12.0084C12.3028 12.0418 12.2414 12.1468 12.1405 12.2474C12.0397 12.3481 11.9272 12.409 11.8953 12.3816C11.8542 12.3533 11.9092 12.2414 12.0173 12.1379C12.1276 12.0272 12.2406 11.9753 12.2763 12.0084Z" fill="white"/>
</mask>
<g mask="url(#mask79_2684_13824)">
<path d="M12.3028 11.9751H11.8542V12.409H12.3028V11.9751Z" fill="url(#paint79_linear_2684_13824)"/>
</g>
<mask id="mask80_2684_13824" style="mask-type:luminance" maskUnits="userSpaceOnUse" x="11" y="12" width="1" height="1">
<path d="M11.811 12.6493C11.8165 12.6459 11.8123 12.6493 11.8074 12.6544C11.6909 12.7506 11.5711 12.8414 11.448 12.9267C11.443 12.9304 11.443 12.9299 11.4428 12.9299C11.4203 12.9396 11.483 12.8826 11.593 12.7987C11.6963 12.7168 11.7964 12.6502 11.811 12.6493Z" fill="white"/>
</mask>
<g mask="url(#mask80_2684_13824)">
<path d="M11.8164 12.6465H11.4199V12.9396H11.8164V12.6465Z" fill="url(#paint80_linear_2684_13824)"/>
</g>
<mask id="mask81_2684_13824" style="mask-type:luminance" maskUnits="userSpaceOnUse" x="11" y="3" width="1" height="1">
<path d="M11.8079 3.34537C11.8128 3.34912 11.817 3.35361 11.8115 3.35043C11.7969 3.35043 11.6968 3.28239 11.5933 3.20049C11.4831 3.11727 11.4204 3.0603 11.4431 3.06929C11.4431 3.06929 11.4431 3.06929 11.4484 3.07248C11.5713 3.15882 11.6911 3.24978 11.8079 3.34537Z" fill="white"/>
</mask>
<g mask="url(#mask81_2684_13824)">
<path d="M11.8166 3.06104H11.42V3.35417H11.8166V3.06104Z" fill="url(#paint81_linear_2684_13824)"/>
</g>
<mask id="mask82_2684_13824" style="mask-type:luminance" maskUnits="userSpaceOnUse" x="11" y="3" width="2" height="2">
<path d="M12.1405 3.75297C12.2414 3.85343 12.3028 3.95913 12.2763 3.99193C12.2406 4.02529 12.1276 3.97319 12.0173 3.86317C11.9092 3.75896 11.8542 3.64688 11.8953 3.61952C11.9272 3.59141 12.0378 3.65438 12.1405 3.75297Z" fill="white"/>
</mask>
<g mask="url(#mask82_2684_13824)">
<path d="M12.3028 3.59131H11.8542V4.02519H12.3028V3.59131Z" fill="url(#paint82_linear_2684_13824)"/>
</g>
<mask id="mask83_2684_13824" style="mask-type:luminance" maskUnits="userSpaceOnUse" x="12" y="4" width="1" height="1">
<path d="M12.5354 4.62226C12.6336 4.73997 12.679 4.88672 12.633 4.95063C12.5842 5.02185 12.4571 4.98249 12.3513 4.85992C12.2456 4.73734 12.2049 4.58515 12.2601 4.51899C12.3102 4.45658 12.4315 4.50288 12.5354 4.62226Z" fill="white"/>
</mask>
<g mask="url(#mask83_2684_13824)">
<path d="M12.679 4.45654H12.2051V5.02181H12.679V4.45654Z" fill="url(#paint83_linear_2684_13824)"/>
</g>
<mask id="mask84_2684_13824" style="mask-type:luminance" maskUnits="userSpaceOnUse" x="12" y="5" width="1" height="2">
<path d="M12.8131 5.76211C12.907 5.88881 12.9355 6.06668 12.8758 6.16301C12.8121 6.26347 12.6766 6.23798 12.5754 6.10679C12.4732 5.97896 12.4484 5.79416 12.519 5.69745C12.5859 5.60543 12.7177 5.63748 12.8131 5.76211Z" fill="white"/>
</mask>
<g mask="url(#mask84_2684_13824)">
<path d="M12.9355 5.60498H12.449V6.26284H12.9355V5.60498Z" fill="url(#paint84_linear_2684_13824)"/>
</g>
<mask id="mask85_2684_13824" style="mask-type:luminance" maskUnits="userSpaceOnUse" x="12" y="6" width="2" height="2">
<path d="M12.9679 7.08758C13.0528 7.21222 13.0618 7.4062 12.9886 7.52053C12.9108 7.64179 12.773 7.63299 12.6814 7.5076C12.5856 7.37828 12.5776 7.17792 12.6626 7.06172C12.7426 6.94645 12.8784 6.95695 12.9679 7.08758Z" fill="white"/>
</mask>
<g mask="url(#mask85_2684_13824)">
<path d="M13.0625 6.94629H12.5775V7.64163H13.0625V6.94629Z" fill="url(#paint85_linear_2684_13824)"/>
</g>
<mask id="mask86_2684_13824" style="mask-type:luminance" maskUnits="userSpaceOnUse" x="12" y="8" width="2" height="2">
<path d="M12.9886 8.48012C13.0626 8.59444 13.0528 8.78843 12.9679 8.91306C12.8784 9.04426 12.7426 9.05419 12.6621 8.93893C12.5776 8.82273 12.5856 8.62218 12.6808 8.49305C12.773 8.36804 12.9109 8.35885 12.9886 8.48012Z" fill="white"/>
</mask>
<g mask="url(#mask86_2684_13824)">
<path d="M13.0625 8.35889H12.5775V9.05423H13.0625V8.35889Z" fill="url(#paint86_linear_2684_13824)"/>
</g>
<mask id="mask87_2684_13824" style="mask-type:luminance" maskUnits="userSpaceOnUse" x="13" y="9" width="1" height="2">
<path d="M13.5622 9.64458C13.5849 9.72461 13.5504 9.88542 13.4871 10.0054C13.4203 10.1233 13.342 10.1604 13.3129 10.0813C13.2778 10.0007 13.3089 9.83257 13.3835 9.70943C13.4541 9.5891 13.5333 9.56455 13.5622 9.64458Z" fill="white"/>
</mask>
<g mask="url(#mask87_2684_13824)">
<path d="M13.5849 9.56445H13.2769V10.1603H13.5849V9.56445Z" fill="url(#paint87_linear_2684_13824)"/>
</g>
<mask id="mask88_2684_13824" style="mask-type:luminance" maskUnits="userSpaceOnUse" x="12" y="10" width="2" height="2">
<path d="M13.2736 10.7207C13.2772 10.7769 13.2242 10.9035 13.1504 11.0193C13.0772 11.1285 13.0047 11.188 12.9935 11.1392C12.9732 11.0916 13.0241 10.9518 13.108 10.8322C13.1869 10.7153 13.261 10.6679 13.2736 10.7207Z" fill="white"/>
</mask>
<g mask="url(#mask88_2684_13824)">
<path d="M13.2771 10.6675H12.9731V11.188H13.2771V10.6675Z" fill="url(#paint88_linear_2684_13824)"/>
</g>
<mask id="mask89_2684_13824" style="mask-type:luminance" maskUnits="userSpaceOnUse" x="12" y="11" width="1" height="1">
<path d="M12.8416 11.5681C12.8367 11.577 12.8312 11.5855 12.8251 11.5936C12.7426 11.7038 12.656 11.8115 12.5652 11.9167C12.5532 11.93 12.5444 11.9384 12.5427 11.9375C12.5427 11.9214 12.6114 11.8222 12.6961 11.7212C12.7821 11.6146 12.8463 11.5495 12.8416 11.5681Z" fill="white"/>
</mask>
<g mask="url(#mask89_2684_13824)">
<path d="M12.8463 11.5498H12.5427V11.9387H12.8463V11.5498Z" fill="url(#paint89_linear_2684_13824)"/>
</g>
<mask id="mask90_2684_13824" style="mask-type:luminance" maskUnits="userSpaceOnUse" x="12" y="4" width="1" height="1">
<path d="M12.8251 4.40642C12.8312 4.41447 12.8368 4.42299 12.8416 4.43191C12.8463 4.45065 12.7821 4.38599 12.6961 4.2786C12.6114 4.17777 12.5429 4.07862 12.5427 4.0625C12.5444 4.0625 12.5532 4.06981 12.5652 4.08274C12.6561 4.18845 12.7426 4.29678 12.8251 4.40642Z" fill="white"/>
</mask>
<g mask="url(#mask90_2684_13824)">
<path d="M12.8463 4.06152H12.5427V4.45043H12.8463V4.06152Z" fill="url(#paint90_linear_2684_13824)"/>
</g>
<mask id="mask91_2684_13824" style="mask-type:luminance" maskUnits="userSpaceOnUse" x="12" y="4" width="2" height="2">
<path d="M13.1534 4.98629C13.2244 5.09687 13.2774 5.22432 13.2738 5.27979C13.2612 5.33265 13.1871 5.28485 13.1082 5.16734C13.0243 5.04739 12.9734 4.90757 12.9936 4.86034C13.0045 4.81142 13.077 4.87196 13.1534 4.98629Z" fill="white"/>
</mask>
<g mask="url(#mask91_2684_13824)">
<path d="M13.277 4.81201H12.973V5.33249H13.277V4.81201Z" fill="url(#paint91_linear_2684_13824)"/>
</g>
<mask id="mask92_2684_13824" style="mask-type:luminance" maskUnits="userSpaceOnUse" x="13" y="5" width="1" height="2">
<path d="M13.4862 5.995C13.5502 6.11495 13.5848 6.27614 13.5613 6.35579C13.5324 6.43582 13.4522 6.41202 13.3818 6.29094C13.3067 6.16781 13.2761 5.99969 13.3112 5.9191C13.3412 5.83944 13.4194 5.87711 13.4862 5.995Z" fill="white"/>
</mask>
<g mask="url(#mask92_2684_13824)">
<path d="M13.5847 5.83936H13.2768V6.43574H13.5847V5.83936Z" fill="url(#paint92_linear_2684_13824)"/>
</g>
<mask id="mask93_2684_13824" style="mask-type:luminance" maskUnits="userSpaceOnUse" x="13" y="7" width="1" height="1">
<path d="M13.6714 7.17908C13.7236 7.29341 13.7354 7.47165 13.6967 7.57267C13.6539 7.67781 13.5702 7.67182 13.5103 7.55393C13.447 7.43866 13.4352 7.25255 13.487 7.15078C13.5321 7.0462 13.6156 7.06662 13.6714 7.17908Z" fill="white"/>
</mask>
<g mask="url(#mask93_2684_13824)">
<path d="M13.7354 7.04639H13.4361V7.67782H13.7354V7.04639Z" fill="url(#paint93_linear_2684_13824)"/>
</g>
<mask id="mask94_2684_13824" style="mask-type:luminance" maskUnits="userSpaceOnUse" x="13" y="8" width="1" height="1">
<path d="M13.6968 8.42762C13.7355 8.52845 13.7237 8.70669 13.6715 8.82121C13.6151 8.93367 13.5321 8.95353 13.4871 8.85026C13.4362 8.74849 13.4471 8.56238 13.5104 8.44711C13.5703 8.32847 13.654 8.3221 13.6968 8.42762Z" fill="white"/>
</mask>
<g mask="url(#mask94_2684_13824)">
<path d="M13.7355 8.32227H13.4362V8.9537H13.7355V8.32227Z" fill="url(#paint94_linear_2684_13824)"/>
</g>
<mask id="mask95_2684_13824" style="mask-type:luminance" maskUnits="userSpaceOnUse" x="13" y="9" width="1" height="1">
<path d="M13.8482 9.42197C13.8459 9.43227 13.8437 9.44202 13.8412 9.45589C13.8127 9.57059 13.7806 9.68448 13.7449 9.79756C13.7244 9.85267 13.7141 9.86691 13.7197 9.82249C13.7246 9.75483 13.7599 9.60958 13.8012 9.49712C13.8376 9.38954 13.8589 9.35712 13.8482 9.42197Z" fill="white"/>
</mask>
<g mask="url(#mask95_2684_13824)">
<path d="M13.8591 9.35742H13.7142V9.86759H13.8591V9.35742Z" fill="url(#paint95_linear_2684_13824)"/>
</g>
<mask id="mask96_2684_13824" style="mask-type:luminance" maskUnits="userSpaceOnUse" x="13" y="10" width="1" height="1">
<path d="M13.4031 10.6534V10.6519C13.4285 10.5974 13.4595 10.5322 13.4873 10.4718C13.492 10.4613 13.497 10.4501 13.5028 10.4399C13.4709 10.5112 13.4379 10.5826 13.4031 10.6534Z" fill="white"/>
</mask>
<g mask="url(#mask96_2684_13824)">
<path d="M13.5024 10.4399H13.4027V10.6534H13.5024V10.4399Z" fill="url(#paint96_linear_2684_13824)"/>
</g>
<mask id="mask97_2684_13824" style="mask-type:luminance" maskUnits="userSpaceOnUse" x="13" y="5" width="1" height="1">
<path d="M13.5027 5.56113C13.4969 5.55062 13.4917 5.5398 13.4871 5.52871C13.4591 5.46892 13.4283 5.4037 13.403 5.34897V5.34766C13.4379 5.41775 13.4709 5.48916 13.5027 5.56113Z" fill="white"/>
</mask>
<g mask="url(#mask97_2684_13824)">
<path d="M13.5027 5.34668H13.403V5.56016H13.5027V5.34668Z" fill="url(#paint97_linear_2684_13824)"/>
</g>
<mask id="mask98_2684_13824" style="mask-type:luminance" maskUnits="userSpaceOnUse" x="13" y="6" width="1" height="1">
<path d="M13.8412 6.54336C13.8437 6.55723 13.8459 6.56735 13.8482 6.57709C13.8589 6.64288 13.8376 6.61046 13.8012 6.50213C13.7599 6.38967 13.7246 6.24423 13.7197 6.17676C13.7141 6.13215 13.7244 6.14658 13.7449 6.20168C13.7804 6.31501 13.8125 6.4289 13.8412 6.54336Z" fill="white"/>
</mask>
<g mask="url(#mask98_2684_13824)">
<path d="M13.8591 6.13281H13.7142V6.64298H13.8591V6.13281Z" fill="url(#paint98_linear_2684_13824)"/>
</g>
<mask id="mask99_2684_13824" style="mask-type:luminance" maskUnits="userSpaceOnUse" x="13" y="7" width="1" height="1">
<path d="M13.9715 7.29358C13.9884 7.40441 13.9978 7.51623 13.9997 7.62831C13.9946 7.71865 13.9715 7.71359 13.9481 7.60751C13.9203 7.50237 13.9081 7.34324 13.9207 7.25141C13.9282 7.16631 13.9513 7.18712 13.9715 7.29358Z" fill="white"/>
</mask>
<g mask="url(#mask99_2684_13824)">
<path d="M14 7.1665H13.908V7.71884H14V7.1665Z" fill="url(#paint99_linear_2684_13824)"/>
</g>
<mask id="mask100_2684_13824" style="mask-type:luminance" maskUnits="userSpaceOnUse" x="13" y="8" width="1" height="1">
<path d="M13.9996 8.37258C13.9977 8.48466 13.9883 8.59649 13.9714 8.70732C13.9511 8.81396 13.9281 8.83477 13.9205 8.74949C13.908 8.65821 13.9205 8.49853 13.948 8.39338C13.9714 8.28655 13.9945 8.28187 13.9996 8.37258Z" fill="white"/>
</mask>
<g mask="url(#mask100_2684_13824)">
<path d="M13.9999 8.28174H13.9079V8.83408H13.9999V8.28174Z" fill="url(#paint100_linear_2684_13824)"/>
</g>
<mask id="mask101_2684_13824" style="mask-type:luminance" maskUnits="userSpaceOnUse" x="4" y="5" width="9" height="8">
<path d="M5.09878 5.43592C5.12451 5.46535 5.14514 5.49886 5.15981 5.53507C5.18535 5.59992 5.24412 5.63328 5.31791 5.62541C5.44221 5.6151 5.44221 5.6151 5.5699 5.60311C5.60844 5.59976 5.64552 5.58677 5.67772 5.56535C5.70991 5.54393 5.73618 5.51476 5.7541 5.48053C5.77813 5.4386 5.80755 5.39997 5.8416 5.36564C6.02599 5.18459 6.30521 5.16416 6.47119 5.32122C6.50233 5.35251 6.52842 5.38842 6.54856 5.42768C6.5801 5.49815 6.64939 5.53601 6.73426 5.53095C6.87246 5.52682 6.87246 5.52682 7.01591 5.52027C7.05667 5.51923 7.09645 5.50762 7.13134 5.48659C7.16624 5.46556 7.19505 5.43583 7.21495 5.40031C7.23892 5.3579 7.26918 5.31936 7.3047 5.28599C7.49754 5.10831 7.79723 5.10212 7.98312 5.27118C8.01727 5.30447 8.04666 5.34231 8.07043 5.38363C8.0895 5.41903 8.11806 5.44843 8.15291 5.46855C8.18776 5.48868 8.22753 5.49873 8.26778 5.49759C8.41593 5.49759 8.41593 5.49759 8.56182 5.49759C8.60241 5.49878 8.64255 5.48882 8.67785 5.46879C8.71315 5.44876 8.74225 5.41943 8.76199 5.38401C8.78474 5.34229 8.81424 5.30461 8.8493 5.27249C9.03256 5.10381 9.33525 5.10999 9.52527 5.2873C9.56061 5.32074 9.59074 5.35928 9.61465 5.40163C9.63497 5.43743 9.66418 5.46741 9.69946 5.48868C9.73475 5.50995 9.77493 5.52179 9.81613 5.52308C9.95733 5.52814 9.95733 5.52814 10.0978 5.53413C10.1355 5.53717 10.1733 5.52898 10.2064 5.5106C10.2395 5.49222 10.2664 5.46448 10.2837 5.43086C10.3012 5.39023 10.3276 5.35399 10.3608 5.32478C10.5242 5.16603 10.8036 5.18646 10.988 5.36733C11.1724 5.54819 11.1906 5.82895 11.0308 5.99201C10.8669 6.16069 10.5802 6.14757 10.3935 5.95959C10.3575 5.9242 10.3267 5.8838 10.3023 5.83964C10.283 5.80363 10.2546 5.77325 10.22 5.7515C10.1853 5.72974 10.1456 5.71736 10.1047 5.71556L9.82101 5.70544C9.78141 5.70276 9.74189 5.71178 9.7074 5.73138C9.6729 5.75098 9.64495 5.78029 9.62704 5.81564C9.60643 5.85903 9.57754 5.898 9.54198 5.93035C9.35741 6.11009 9.04946 6.10596 8.85568 5.91967C8.81896 5.8855 8.78818 5.84547 8.76462 5.80121C8.74511 5.76471 8.71589 5.73429 8.68018 5.71329C8.64446 5.69229 8.60364 5.68154 8.5622 5.6822H8.26609C8.22474 5.68181 8.18407 5.69264 8.14842 5.71354C8.11277 5.73444 8.08347 5.76461 8.06367 5.80084C8.04026 5.84457 8.0101 5.88435 7.97429 5.91873C7.7807 6.10484 7.47051 6.10953 7.2863 5.92997C7.2517 5.8967 7.22295 5.85786 7.20124 5.81508C7.18337 5.77967 7.15544 5.7503 7.12094 5.73064C7.08645 5.71097 7.04692 5.70188 7.00728 5.7045L6.72393 5.71462C6.68302 5.71632 6.64326 5.72862 6.60856 5.75031C6.57386 5.772 6.54542 5.80233 6.52602 5.83832C6.50225 5.8819 6.47227 5.9218 6.43702 5.95678C6.24925 6.1442 5.9614 6.15919 5.79729 5.99051C5.76797 5.95796 5.74332 5.9215 5.72406 5.88218C5.71023 5.84963 5.68643 5.82228 5.65607 5.80407C5.62571 5.78585 5.59035 5.7777 5.55506 5.78078C5.42832 5.79053 5.42832 5.79053 5.30233 5.80121C5.26437 5.80566 5.22813 5.81951 5.19691 5.84151C5.16569 5.86351 5.14048 5.89295 5.12357 5.92716C5.10179 5.96895 5.07444 6.0076 5.04226 6.04205C4.87327 6.22723 4.62917 6.24822 4.49773 6.09697C4.37512 5.94703 4.40479 5.68688 4.56552 5.50452C4.72681 5.32722 4.96453 5.29386 5.09878 5.43592ZM6.40698 6.85079C6.44316 6.88671 6.47244 6.92895 6.49335 6.97542C6.5105 7.01292 6.53844 7.04448 6.57362 7.06607C6.6088 7.08767 6.64962 7.09833 6.69088 7.09669C6.83284 7.09294 6.83284 7.09294 6.97517 7.09069C7.01735 7.09013 7.05854 7.07788 7.09415 7.05531C7.12977 7.03274 7.15839 7.00073 7.17683 6.96287C7.20117 6.91547 7.23286 6.8722 7.27072 6.83467C7.31571 6.7864 7.36998 6.74767 7.43029 6.72081C7.49061 6.69394 7.55573 6.67948 7.62176 6.67829C7.6878 6.6771 7.7534 6.6892 7.81465 6.71388C7.8759 6.73856 7.93153 6.77531 7.97824 6.82192C8.02494 6.86854 8.06175 6.92407 8.08648 6.98521C8.1112 7.04634 8.12333 7.11182 8.12214 7.17774C8.12095 7.24365 8.10646 7.30865 8.07954 7.36886C8.05262 7.42906 8.01383 7.48323 7.96547 7.52814C7.92624 7.56738 7.88082 7.59993 7.83102 7.62447C7.79142 7.64295 7.75797 7.6724 7.73466 7.70932C7.71136 7.74624 7.69918 7.78907 7.69959 7.8327V8.17006C7.69922 8.21372 7.71141 8.25656 7.7347 8.2935C7.758 8.33044 7.79143 8.35994 7.83102 8.37848C7.88082 8.40302 7.92624 8.43557 7.96547 8.47481C8.01184 8.52047 8.04871 8.57483 8.07394 8.63476C8.09918 8.6947 8.11229 8.75903 8.11252 8.82404C8.11275 8.88905 8.10009 8.95347 8.07527 9.01358C8.05045 9.07369 8.01396 9.1283 7.96791 9.17428C7.9291 9.21249 7.88433 9.24414 7.83534 9.26799C7.7967 9.28553 7.76401 9.31393 7.74127 9.34971C7.71853 9.38549 7.70672 9.4271 7.70728 9.46947C7.70991 9.63253 7.70991 9.63253 7.71141 9.7939C7.71184 9.83625 7.72445 9.87759 7.74776 9.91298C7.77106 9.94837 7.80407 9.97633 7.84285 9.99351C7.89174 10.017 7.93665 10.0479 7.97598 10.0852C8.16826 10.2685 8.17051 10.5584 7.98406 10.732C7.91337 10.7957 7.82525 10.837 7.73094 10.8506C7.73733 11.1404 7.73733 11.1404 7.74484 11.4206C7.83732 11.4359 7.92372 11.4766 7.99438 11.5381C8.18084 11.6964 8.18497 11.9408 8.0079 12.0835C7.83572 12.2201 7.55068 12.2098 7.37099 12.0621C7.18603 11.9084 7.16895 11.6659 7.33925 11.5195C7.40187 11.4671 7.47753 11.4326 7.55819 11.4196C7.54862 11.1357 7.54862 11.1357 7.54036 10.8427C7.45253 10.8216 7.37159 10.7784 7.30527 10.7172C7.1175 10.5385 7.10642 10.2505 7.28799 10.0747C7.32094 10.0422 7.359 10.0152 7.40066 9.99501C7.43631 9.97751 7.46616 9.95011 7.48661 9.9161C7.50706 9.88209 7.51724 9.84292 7.51595 9.80327C7.51332 9.6301 7.51332 9.6301 7.51163 9.45598C7.51127 9.41459 7.49959 9.37408 7.47785 9.33884C7.4561 9.30359 7.42513 9.27495 7.38826 9.256C7.34545 9.23268 7.30619 9.2034 7.27166 9.16903C7.07863 8.97542 7.07469 8.66392 7.26509 8.47275C7.29852 8.43772 7.33754 8.40846 7.38056 8.38616C7.41776 8.36672 7.44877 8.33729 7.4701 8.30119C7.49144 8.2651 7.50224 8.22377 7.5013 8.18187C7.5013 8.00176 7.5013 8.00176 7.5013 7.82033C7.50214 7.77853 7.49128 7.73732 7.46995 7.70133C7.44863 7.66534 7.41767 7.636 7.38056 7.6166C7.33754 7.5943 7.29852 7.56505 7.26509 7.53001C7.22937 7.49469 7.19958 7.45388 7.17683 7.40912C7.15871 7.37156 7.13011 7.34002 7.09448 7.31828C7.05884 7.29654 7.01767 7.28552 6.97592 7.28655C6.82664 7.2903 6.82664 7.2903 6.67943 7.29161C6.63851 7.29251 6.59862 7.30459 6.5641 7.32653C6.52957 7.34847 6.50173 7.37943 6.48359 7.41606C6.4607 7.4602 6.43169 7.5009 6.3974 7.53695C6.21282 7.72812 5.92084 7.72962 5.74621 7.54201C5.57516 7.35964 5.58267 7.05639 5.76142 6.86728C5.94018 6.67817 6.23047 6.66749 6.40604 6.85079H6.40698ZM11.6031 7.3171C11.4741 7.31241 11.4741 7.31241 11.3442 7.3111C11.306 7.3098 11.2683 7.32008 11.236 7.34059C11.2038 7.3611 11.1785 7.39087 11.1636 7.42599C11.1435 7.47041 11.1164 7.51134 11.0834 7.54725C10.908 7.73243 10.6162 7.73055 10.4318 7.53882C10.3963 7.50216 10.3665 7.46033 10.3436 7.41475C10.3255 7.3773 10.2974 7.34558 10.2624 7.32312C10.2273 7.30065 10.1867 7.28832 10.1451 7.28748L9.855 7.28524C9.81319 7.28395 9.77193 7.29489 9.73627 7.3167C9.70061 7.33851 9.67211 7.37024 9.65427 7.408C9.6313 7.45396 9.60113 7.49598 9.56489 7.53245C9.52806 7.56842 9.48619 7.59885 9.44059 7.62279C9.40253 7.64166 9.37059 7.67089 9.34846 7.7071C9.32634 7.74332 9.31492 7.78504 9.31553 7.82745C9.31553 8.00194 9.31553 8.00194 9.31553 8.17606C9.31485 8.21854 9.32623 8.26034 9.34836 8.29663C9.3705 8.33291 9.40247 8.3622 9.44059 8.3811C9.48619 8.40504 9.52806 8.43547 9.56489 8.47144C9.61858 8.5274 9.65844 8.59508 9.68133 8.66911C9.70422 8.74314 9.70949 8.82148 9.69673 8.8979C9.68397 8.97432 9.65353 9.04671 9.60782 9.10933C9.56212 9.17195 9.50242 9.22307 9.43345 9.25862C9.39562 9.2773 9.36375 9.30614 9.34143 9.34189C9.31911 9.37765 9.30721 9.41891 9.30708 9.46104C9.3037 9.62972 9.3037 9.62972 9.30145 9.79671C9.30061 9.83707 9.31156 9.8768 9.33297 9.91105C9.35438 9.9453 9.38531 9.97258 9.422 9.98957C9.4662 10.0106 9.50652 10.0389 9.54123 10.0734C9.72525 10.2484 9.7153 10.5365 9.52433 10.7166C9.33412 10.8933 9.03144 10.9008 8.84836 10.7314C8.66172 10.5578 8.66341 10.2679 8.85512 10.084C8.89204 10.0492 8.9337 10.0197 8.97886 9.99651C9.01654 9.97906 9.04845 9.95124 9.07084 9.91631C9.09322 9.88138 9.10516 9.8408 9.10523 9.79934C9.1073 9.63178 9.1073 9.63178 9.10955 9.46198C9.10963 9.42074 9.09804 9.38032 9.07611 9.34537C9.05419 9.31042 9.02282 9.28237 8.98562 9.26443C8.93982 9.2411 8.89784 9.21096 8.86113 9.17503C8.8151 9.12898 8.77865 9.07431 8.75385 9.01416C8.72905 8.95401 8.7164 8.88956 8.71663 8.82451C8.71686 8.75946 8.72995 8.6951 8.75517 8.63512C8.78039 8.57515 8.81723 8.52073 8.86357 8.475C8.90051 8.43797 8.94302 8.40692 8.98956 8.38298C9.028 8.36406 9.06028 8.33464 9.08264 8.29815C9.10501 8.26166 9.11655 8.21959 9.11593 8.17681C9.11593 8.00232 9.11593 8.00232 9.11593 7.82783C9.11644 7.78507 9.10485 7.74305 9.0825 7.70658C9.06014 7.67011 9.02793 7.64067 8.98956 7.62166C8.94303 7.59786 8.90052 7.56693 8.86357 7.53001C8.81366 7.47972 8.77524 7.41925 8.75095 7.35274C8.72666 7.28624 8.71708 7.21528 8.72285 7.14472C8.72863 7.07417 8.74963 7.0057 8.78441 6.94402C8.8192 6.88233 8.86694 6.82888 8.92437 6.78735C8.98179 6.74582 9.04754 6.71718 9.11711 6.7034C9.18667 6.68962 9.25839 6.69102 9.32736 6.70752C9.39632 6.72401 9.46089 6.75521 9.51664 6.79896C9.57239 6.84271 9.618 6.89799 9.65033 6.96099C9.66907 6.99883 9.69797 7.03073 9.73381 7.05313C9.76965 7.07554 9.81102 7.08756 9.85331 7.08788C9.99826 7.08882 9.99826 7.08881 10.1427 7.09106C10.1835 7.09294 10.224 7.08245 10.2588 7.06098C10.2935 7.03951 10.321 7.00806 10.3376 6.97074C10.3595 6.92727 10.3879 6.88734 10.4217 6.85229C10.5993 6.67086 10.8877 6.67873 11.0701 6.87215C11.1038 6.9075 11.1322 6.9476 11.1544 6.99117C11.1932 7.07082 11.262 7.11655 11.3399 7.11805C11.4702 7.1218 11.4702 7.1218 11.5986 7.12593C11.6351 7.12806 11.6713 7.11835 11.7017 7.09824C11.7322 7.07814 11.7553 7.04873 11.7676 7.01441C11.7853 6.97292 11.8091 6.93432 11.8382 6.89989C11.9884 6.73234 12.2346 6.74714 12.3901 6.92913C12.5424 7.11524 12.5523 7.399 12.4126 7.56937C12.2673 7.74817 12.0183 7.74311 11.8576 7.56019C11.8265 7.52355 11.8001 7.48312 11.7793 7.43986C11.7436 7.36245 11.6782 7.31766 11.6031 7.3171Z" fill="white"/>
</mask>
<g mask="url(#mask101_2684_13824)">
<path d="M12.5518 5.10205H4.37457V12.2208H12.5518V5.10205Z" fill="url(#paint101_linear_2684_13824)"/>
</g>
</g>
</g>
<defs>
<linearGradient id="paint0_linear_2684_13824" x1="9.73083" y1="1.74794" x2="1.22517" y2="10.6872" gradientUnits="userSpaceOnUse">
<stop stop-color="#FF00FF"/>
<stop offset="1" stop-color="#0000FF"/>
</linearGradient>
<linearGradient id="paint1_linear_2684_13824" x1="11.1241" y1="1.48418" x2="1.7492" y2="11.4362" gradientUnits="userSpaceOnUse">
<stop stop-color="#FF00FF"/>
<stop offset="1" stop-color="#0000FF"/>
</linearGradient>
<linearGradient id="paint2_linear_2684_13824" x1="8.58485" y1="-0.935403" x2="-0.806696" y2="9.03429" gradientUnits="userSpaceOnUse">
<stop stop-color="#FF00FF"/>
<stop offset="1" stop-color="#0000FF"/>
</linearGradient>
<linearGradient id="paint3_linear_2684_13824" x1="8.28388" y1="0.0234924" x2="-0.2242" y2="8.97029" gradientUnits="userSpaceOnUse">
<stop stop-color="#FF00FF"/>
<stop offset="1" stop-color="#0000FF"/>
</linearGradient>
<linearGradient id="paint4_linear_2684_13824" x1="8.82093" y1="0.505301" x2="0.188597" y2="9.37212" gradientUnits="userSpaceOnUse">
<stop stop-color="#FF00FF"/>
<stop offset="1" stop-color="#0000FF"/>
</linearGradient>
<linearGradient id="paint5_linear_2684_13824" x1="9.32171" y1="1.11563" x2="0.69163" y2="9.98001" gradientUnits="userSpaceOnUse">
<stop stop-color="#FF00FF"/>
<stop offset="1" stop-color="#0000FF"/>
</linearGradient>
<linearGradient id="paint6_linear_2684_13824" x1="9.83703" y1="2.19874" x2="1.5575" y2="10.9684" gradientUnits="userSpaceOnUse">
<stop stop-color="#FF00FF"/>
<stop offset="1" stop-color="#0000FF"/>
</linearGradient>
<linearGradient id="paint7_linear_2684_13824" x1="11.0046" y1="2.86102" x2="2.22521" y2="11.6091" gradientUnits="userSpaceOnUse">
<stop stop-color="#FF00FF"/>
<stop offset="1" stop-color="#0000FF"/>
</linearGradient>
<linearGradient id="paint8_linear_2684_13824" x1="11.9674" y1="2.86496" x2="2.77535" y2="12.3307" gradientUnits="userSpaceOnUse">
<stop stop-color="#FF00FF"/>
<stop offset="1" stop-color="#0000FF"/>
</linearGradient>
<linearGradient id="paint9_linear_2684_13824" x1="8.4047" y1="-0.980195" x2="-0.791332" y2="8.49398" gradientUnits="userSpaceOnUse">
<stop stop-color="#FF00FF"/>
<stop offset="1" stop-color="#0000FF"/>
</linearGradient>
<linearGradient id="paint10_linear_2684_13824" x1="8.4322" y1="-0.446846" x2="-0.351116" y2="8.30518" gradientUnits="userSpaceOnUse">
<stop stop-color="#FF00FF"/>
<stop offset="1" stop-color="#0000FF"/>
</linearGradient>
<linearGradient id="paint11_linear_2684_13824" x1="8.1931" y1="0.199206" x2="-0.0882868" y2="8.97559" gradientUnits="userSpaceOnUse">
<stop stop-color="#FF00FF"/>
<stop offset="1" stop-color="#0000FF"/>
</linearGradient>
<linearGradient id="paint12_linear_2684_13824" x1="8.61859" y1="0.700843" x2="0.30596" y2="9.65082" gradientUnits="userSpaceOnUse">
<stop stop-color="#FF00FF"/>
<stop offset="1" stop-color="#0000FF"/>
</linearGradient>
<linearGradient id="paint13_linear_2684_13824" x1="9.20125" y1="1.36289" x2="0.885048" y2="10.3168" gradientUnits="userSpaceOnUse">
<stop stop-color="#FF00FF"/>
<stop offset="1" stop-color="#0000FF"/>
</linearGradient>
<linearGradient id="paint14_linear_2684_13824" x1="10.3254" y1="2.60408" x2="2.07266" y2="11.4228" gradientUnits="userSpaceOnUse">
<stop stop-color="#FF00FF"/>
<stop offset="1" stop-color="#0000FF"/>
</linearGradient>
<linearGradient id="paint15_linear_2684_13824" x1="10.9957" y1="3.4051" x2="2.75046" y2="12.1548" gradientUnits="userSpaceOnUse">
<stop stop-color="#FF00FF"/>
<stop offset="1" stop-color="#0000FF"/>
</linearGradient>
<linearGradient id="paint16_linear_2684_13824" x1="11.7865" y1="3.88037" x2="3.35745" y2="12.8285" gradientUnits="userSpaceOnUse">
<stop stop-color="#FF00FF"/>
<stop offset="1" stop-color="#0000FF"/>
</linearGradient>
<linearGradient id="paint17_linear_2684_13824" x1="12.7674" y1="3.77962" x2="3.8771" y2="13.3793" gradientUnits="userSpaceOnUse">
<stop stop-color="#FF00FF"/>
<stop offset="1" stop-color="#0000FF"/>
</linearGradient>
<linearGradient id="paint18_linear_2684_13824" x1="8.14542" y1="-0.840128" x2="-0.745666" y2="8.76071" gradientUnits="userSpaceOnUse">
<stop stop-color="#FF00FF"/>
<stop offset="1" stop-color="#0000FF"/>
</linearGradient>
<linearGradient id="paint19_linear_2684_13824" x1="8.02265" y1="-0.527711" x2="-0.406387" y2="8.42025" gradientUnits="userSpaceOnUse">
<stop stop-color="#FF00FF"/>
<stop offset="1" stop-color="#0000FF"/>
</linearGradient>
<linearGradient id="paint20_linear_2684_13824" x1="8.13053" y1="-0.0899897" x2="-0.113176" y2="8.65333" gradientUnits="userSpaceOnUse">
<stop stop-color="#FF00FF"/>
<stop offset="1" stop-color="#0000FF"/>
</linearGradient>
<linearGradient id="paint21_linear_2684_13824" x1="8.48868" y1="0.415012" x2="0.23664" y2="9.22825" gradientUnits="userSpaceOnUse">
<stop stop-color="#FF00FF"/>
<stop offset="1" stop-color="#0000FF"/>
</linearGradient>
<linearGradient id="paint22_linear_2684_13824" x1="9.12359" y1="0.965763" x2="0.717309" y2="9.9386" gradientUnits="userSpaceOnUse">
<stop stop-color="#FF00FF"/>
<stop offset="1" stop-color="#0000FF"/>
</linearGradient>
<linearGradient id="paint23_linear_2684_13824" x1="9.76858" y1="1.70753" x2="1.3623" y2="10.6804" gradientUnits="userSpaceOnUse">
<stop stop-color="#FF00FF"/>
<stop offset="1" stop-color="#0000FF"/>
</linearGradient>
<linearGradient id="paint24_linear_2684_13824" x1="11.1041" y1="3.14237" x2="2.76682" y2="11.9747" gradientUnits="userSpaceOnUse">
<stop stop-color="#FF00FF"/>
<stop offset="1" stop-color="#0000FF"/>
</linearGradient>
<linearGradient id="paint25_linear_2684_13824" x1="11.7007" y1="3.98382" x2="3.46115" y2="12.7374" gradientUnits="userSpaceOnUse">
<stop stop-color="#FF00FF"/>
<stop offset="1" stop-color="#0000FF"/>
</linearGradient>
<linearGradient id="paint26_linear_2684_13824" x1="12.2716" y1="4.64463" x2="4.07427" y2="13.3984" gradientUnits="userSpaceOnUse">
<stop stop-color="#FF00FF"/>
<stop offset="1" stop-color="#0000FF"/>
</linearGradient>
<linearGradient id="paint27_linear_2684_13824" x1="12.8717" y1="4.46321" x2="4.62479" y2="13.8838" gradientUnits="userSpaceOnUse">
<stop stop-color="#FF00FF"/>
<stop offset="1" stop-color="#0000FF"/>
</linearGradient>
<linearGradient id="paint28_linear_2684_13824" x1="7.98479" y1="-0.391238" x2="-0.261186" y2="9.01903" gradientUnits="userSpaceOnUse">
<stop stop-color="#FF00FF"/>
<stop offset="1" stop-color="#0000FF"/>
</linearGradient>
<linearGradient id="paint29_linear_2684_13824" x1="8.27785" y1="-0.198273" x2="0.0805296" y2="8.55546" gradientUnits="userSpaceOnUse">
<stop stop-color="#FF00FF"/>
<stop offset="1" stop-color="#0000FF"/>
</linearGradient>
<linearGradient id="paint30_linear_2684_13824" x1="8.60233" y1="0.209173" x2="0.362767" y2="8.9628" gradientUnits="userSpaceOnUse">
<stop stop-color="#FF00FF"/>
<stop offset="1" stop-color="#0000FF"/>
</linearGradient>
<linearGradient id="paint31_linear_2684_13824" x1="9.79989" y1="1.39939" x2="1.32308" y2="10.4098" gradientUnits="userSpaceOnUse">
<stop stop-color="#FF00FF"/>
<stop offset="1" stop-color="#0000FF"/>
</linearGradient>
<linearGradient id="paint32_linear_2684_13824" x1="10.4938" y1="2.19766" x2="2.01701" y2="11.2031" gradientUnits="userSpaceOnUse">
<stop stop-color="#FF00FF"/>
<stop offset="1" stop-color="#0000FF"/>
</linearGradient>
<linearGradient id="paint33_linear_2684_13824" x1="11.9947" y1="3.71781" x2="3.56625" y2="12.6558" gradientUnits="userSpaceOnUse">
<stop stop-color="#FF00FF"/>
<stop offset="1" stop-color="#0000FF"/>
</linearGradient>
<linearGradient id="paint34_linear_2684_13824" x1="12.6145" y1="4.56563" x2="4.25882" y2="13.4066" gradientUnits="userSpaceOnUse">
<stop stop-color="#FF00FF"/>
<stop offset="1" stop-color="#0000FF"/>
</linearGradient>
<linearGradient id="paint35_linear_2684_13824" x1="13.1464" y1="5.27422" x2="4.84103" y2="14.0461" gradientUnits="userSpaceOnUse">
<stop stop-color="#FF00FF"/>
<stop offset="1" stop-color="#0000FF"/>
</linearGradient>
<linearGradient id="paint36_linear_2684_13824" x1="13.5714" y1="5.63775" x2="5.30651" y2="14.5067" gradientUnits="userSpaceOnUse">
<stop stop-color="#FF00FF"/>
<stop offset="1" stop-color="#0000FF"/>
</linearGradient>
<linearGradient id="paint37_linear_2684_13824" x1="14.7941" y1="4.99856" x2="5.45238" y2="14.9129" gradientUnits="userSpaceOnUse">
<stop stop-color="#FF00FF"/>
<stop offset="1" stop-color="#0000FF"/>
</linearGradient>
<linearGradient id="paint38_linear_2684_13824" x1="9.01237" y1="-0.499215" x2="-0.330261" y2="9.41621" gradientUnits="userSpaceOnUse">
<stop stop-color="#FF00FF"/>
<stop offset="1" stop-color="#0000FF"/>
</linearGradient>
<linearGradient id="paint39_linear_2684_13824" x1="8.67461" y1="-0.132016" x2="0.409908" y2="8.73672" gradientUnits="userSpaceOnUse">
<stop stop-color="#FF00FF"/>
<stop offset="1" stop-color="#0000FF"/>
</linearGradient>
<linearGradient id="paint40_linear_2684_13824" x1="8.92969" y1="0.136869" x2="0.62257" y2="8.9058" gradientUnits="userSpaceOnUse">
<stop stop-color="#FF00FF"/>
<stop offset="1" stop-color="#0000FF"/>
</linearGradient>
<linearGradient id="paint41_linear_2684_13824" x1="9.32316" y1="0.61951" x2="0.968662" y2="9.45956" gradientUnits="userSpaceOnUse">
<stop stop-color="#FF00FF"/>
<stop offset="1" stop-color="#0000FF"/>
</linearGradient>
<linearGradient id="paint42_linear_2684_13824" x1="11.3236" y1="2.80964" x2="2.8146" y2="11.8522" gradientUnits="userSpaceOnUse">
<stop stop-color="#FF00FF"/>
<stop offset="1" stop-color="#0000FF"/>
</linearGradient>
<linearGradient id="paint43_linear_2684_13824" x1="14.0717" y1="5.79339" x2="5.63305" y2="14.7179" gradientUnits="userSpaceOnUse">
<stop stop-color="#FF00FF"/>
<stop offset="1" stop-color="#0000FF"/>
</linearGradient>
<linearGradient id="paint44_linear_2684_13824" x1="14.3968" y1="6.33103" x2="5.99563" y2="15.1419" gradientUnits="userSpaceOnUse">
<stop stop-color="#FF00FF"/>
<stop offset="1" stop-color="#0000FF"/>
</linearGradient>
<linearGradient id="paint45_linear_2684_13824" x1="14.6595" y1="6.19438" x2="6.26192" y2="15.3102" gradientUnits="userSpaceOnUse">
<stop stop-color="#FF00FF"/>
<stop offset="1" stop-color="#0000FF"/>
</linearGradient>
<linearGradient id="paint46_linear_2684_13824" x1="9.21583" y1="0.152" x2="0.817252" y2="9.23557" gradientUnits="userSpaceOnUse">
<stop stop-color="#FF00FF"/>
<stop offset="1" stop-color="#0000FF"/>
</linearGradient>
<linearGradient id="paint47_linear_2684_13824" x1="9.39256" y1="0.257423" x2="0.992193" y2="9.06739" gradientUnits="userSpaceOnUse">
<stop stop-color="#FF00FF"/>
<stop offset="1" stop-color="#0000FF"/>
</linearGradient>
<linearGradient id="paint48_linear_2684_13824" x1="9.66832" y1="0.609869" x2="1.23211" y2="9.53667" gradientUnits="userSpaceOnUse">
<stop stop-color="#FF00FF"/>
<stop offset="1" stop-color="#0000FF"/>
</linearGradient>
<linearGradient id="paint49_linear_2684_13824" x1="10.1291" y1="1.16214" x2="1.6821" y2="10.1424" gradientUnits="userSpaceOnUse">
<stop stop-color="#FF00FF"/>
<stop offset="1" stop-color="#0000FF"/>
</linearGradient>
<linearGradient id="paint50_linear_2684_13824" x1="14.4269" y1="5.80551" x2="5.93599" y2="14.7918" gradientUnits="userSpaceOnUse">
<stop stop-color="#FF00FF"/>
<stop offset="1" stop-color="#0000FF"/>
</linearGradient>
<linearGradient id="paint51_linear_2684_13824" x1="14.8509" y1="6.42047" x2="6.41598" y2="15.3317" gradientUnits="userSpaceOnUse">
<stop stop-color="#FF00FF"/>
<stop offset="1" stop-color="#0000FF"/>
</linearGradient>
<linearGradient id="paint52_linear_2684_13824" x1="15.1153" y1="6.89581" x2="6.67234" y2="15.7059" gradientUnits="userSpaceOnUse">
<stop stop-color="#FF00FF"/>
<stop offset="1" stop-color="#0000FF"/>
</linearGradient>
<linearGradient id="paint53_linear_2684_13824" x1="15.2635" y1="6.75638" x2="6.85451" y2="15.7978" gradientUnits="userSpaceOnUse">
<stop stop-color="#FF00FF"/>
<stop offset="1" stop-color="#0000FF"/>
</linearGradient>
<linearGradient id="paint54_linear_2684_13824" x1="9.83625" y1="0.625734" x2="1.42382" y2="9.72789" gradientUnits="userSpaceOnUse">
<stop stop-color="#FF00FF"/>
<stop offset="1" stop-color="#0000FF"/>
</linearGradient>
<linearGradient id="paint55_linear_2684_13824" x1="10.1105" y1="0.795705" x2="1.66679" y2="9.61119" gradientUnits="userSpaceOnUse">
<stop stop-color="#FF00FF"/>
<stop offset="1" stop-color="#0000FF"/>
</linearGradient>
<linearGradient id="paint56_linear_2684_13824" x1="10.4554" y1="1.22548" x2="2.02235" y2="10.1395" gradientUnits="userSpaceOnUse">
<stop stop-color="#FF00FF"/>
<stop offset="1" stop-color="#0000FF"/>
</linearGradient>
<linearGradient id="paint57_linear_2684_13824" x1="10.998" y1="1.82285" x2="2.50975" y2="10.8063" gradientUnits="userSpaceOnUse">
<stop stop-color="#FF00FF"/>
<stop offset="1" stop-color="#0000FF"/>
</linearGradient>
<linearGradient id="paint58_linear_2684_13824" x1="14.6167" y1="5.75627" x2="6.20456" y2="14.6871" gradientUnits="userSpaceOnUse">
<stop stop-color="#FF00FF"/>
<stop offset="1" stop-color="#0000FF"/>
</linearGradient>
<linearGradient id="paint59_linear_2684_13824" x1="15.1204" y1="6.48376" x2="6.76117" y2="15.3287" gradientUnits="userSpaceOnUse">
<stop stop-color="#FF00FF"/>
<stop offset="1" stop-color="#0000FF"/>
</linearGradient>
<linearGradient id="paint60_linear_2684_13824" x1="15.4408" y1="7.0587" x2="7.17008" y2="15.7957" gradientUnits="userSpaceOnUse">
<stop stop-color="#FF00FF"/>
<stop offset="1" stop-color="#0000FF"/>
</linearGradient>
<linearGradient id="paint61_linear_2684_13824" x1="15.6488" y1="7.2564" x2="7.40479" y2="16.0713" gradientUnits="userSpaceOnUse">
<stop stop-color="#FF00FF"/>
<stop offset="1" stop-color="#0000FF"/>
</linearGradient>
<linearGradient id="paint62_linear_2684_13824" x1="16.4012" y1="6.56747" x2="7.08344" y2="16.4341" gradientUnits="userSpaceOnUse">
<stop stop-color="#FF00FF"/>
<stop offset="1" stop-color="#0000FF"/>
</linearGradient>
<linearGradient id="paint63_linear_2684_13824" x1="10.6483" y1="1.02987" x2="1.33453" y2="10.8924" gradientUnits="userSpaceOnUse">
<stop stop-color="#FF00FF"/>
<stop offset="1" stop-color="#0000FF"/>
</linearGradient>
<linearGradient id="paint64_linear_2684_13824" x1="10.7853" y1="1.4377" x2="2.54205" y2="10.247" gradientUnits="userSpaceOnUse">
<stop stop-color="#FF00FF"/>
<stop offset="1" stop-color="#0000FF"/>
</linearGradient>
<linearGradient id="paint65_linear_2684_13824" x1="11.2409" y1="1.90638" x2="2.97018" y2="10.6483" gradientUnits="userSpaceOnUse">
<stop stop-color="#FF00FF"/>
<stop offset="1" stop-color="#0000FF"/>
</linearGradient>
<linearGradient id="paint66_linear_2684_13824" x1="11.8289" y1="2.54083" x2="3.47138" y2="11.3839" gradientUnits="userSpaceOnUse">
<stop stop-color="#FF00FF"/>
<stop offset="1" stop-color="#0000FF"/>
</linearGradient>
<linearGradient id="paint67_linear_2684_13824" x1="13.9985" y1="4.93374" x2="5.49078" y2="13.9559" gradientUnits="userSpaceOnUse">
<stop stop-color="#FF00FF"/>
<stop offset="1" stop-color="#0000FF"/>
</linearGradient>
<linearGradient id="paint68_linear_2684_13824" x1="15.3073" y1="6.3147" x2="6.97934" y2="15.1804" gradientUnits="userSpaceOnUse">
<stop stop-color="#FF00FF"/>
<stop offset="1" stop-color="#0000FF"/>
</linearGradient>
<linearGradient id="paint69_linear_2684_13824" x1="15.7298" y1="6.97342" x2="7.47827" y2="15.7389" gradientUnits="userSpaceOnUse">
<stop stop-color="#FF00FF"/>
<stop offset="1" stop-color="#0000FF"/>
</linearGradient>
<linearGradient id="paint70_linear_2684_13824" x1="15.9956" y1="7.44068" x2="7.764" y2="16.1577" gradientUnits="userSpaceOnUse">
<stop stop-color="#FF00FF"/>
<stop offset="1" stop-color="#0000FF"/>
</linearGradient>
<linearGradient id="paint71_linear_2684_13824" x1="16.3798" y1="6.81304" x2="8.13963" y2="16.3177" gradientUnits="userSpaceOnUse">
<stop stop-color="#FF00FF"/>
<stop offset="1" stop-color="#0000FF"/>
</linearGradient>
<linearGradient id="paint72_linear_2684_13824" x1="11.4555" y1="2.05904" x2="3.21638" y2="11.5622" gradientUnits="userSpaceOnUse">
<stop stop-color="#FF00FF"/>
<stop offset="1" stop-color="#0000FF"/>
</linearGradient>
<linearGradient id="paint73_linear_2684_13824" x1="12.021" y1="2.54839" x2="3.79336" y2="11.2658" gradientUnits="userSpaceOnUse">
<stop stop-color="#FF00FF"/>
<stop offset="1" stop-color="#0000FF"/>
</linearGradient>
<linearGradient id="paint74_linear_2684_13824" x1="12.6271" y1="3.20728" x2="4.37406" y2="11.9742" gradientUnits="userSpaceOnUse">
<stop stop-color="#FF00FF"/>
<stop offset="1" stop-color="#0000FF"/>
</linearGradient>
<linearGradient id="paint75_linear_2684_13824" x1="13.3227" y1="3.96105" x2="4.99261" y2="12.829" gradientUnits="userSpaceOnUse">
<stop stop-color="#FF00FF"/>
<stop offset="1" stop-color="#0000FF"/>
</linearGradient>
<linearGradient id="paint76_linear_2684_13824" x1="14.7571" y1="5.53897" x2="6.29247" y2="14.5322" gradientUnits="userSpaceOnUse">
<stop stop-color="#FF00FF"/>
<stop offset="1" stop-color="#0000FF"/>
</linearGradient>
<linearGradient id="paint77_linear_2684_13824" x1="15.8335" y1="6.73578" x2="7.57994" y2="15.5176" gradientUnits="userSpaceOnUse">
<stop stop-color="#FF00FF"/>
<stop offset="1" stop-color="#0000FF"/>
</linearGradient>
<linearGradient id="paint78_linear_2684_13824" x1="16.1862" y1="7.30838" x2="7.95788" y2="16.0267" gradientUnits="userSpaceOnUse">
<stop stop-color="#FF00FF"/>
<stop offset="1" stop-color="#0000FF"/>
</linearGradient>
<linearGradient id="paint79_linear_2684_13824" x1="16.4906" y1="7.50185" x2="8.10474" y2="16.4494" gradientUnits="userSpaceOnUse">
<stop stop-color="#FF00FF"/>
<stop offset="1" stop-color="#0000FF"/>
</linearGradient>
<linearGradient id="paint80_linear_2684_13824" x1="16.8363" y1="7.17916" x2="7.9439" y2="16.7813" gradientUnits="userSpaceOnUse">
<stop stop-color="#FF00FF"/>
<stop offset="1" stop-color="#0000FF"/>
</linearGradient>
<linearGradient id="paint81_linear_2684_13824" x1="12.2167" y1="2.56399" x2="3.32784" y2="12.1575" gradientUnits="userSpaceOnUse">
<stop stop-color="#FF00FF"/>
<stop offset="1" stop-color="#0000FF"/>
</linearGradient>
<linearGradient id="paint82_linear_2684_13824" x1="12.7258" y1="3.12031" x2="4.33995" y2="12.0631" gradientUnits="userSpaceOnUse">
<stop stop-color="#FF00FF"/>
<stop offset="1" stop-color="#0000FF"/>
</linearGradient>
<linearGradient id="paint83_linear_2684_13824" x1="13.3324" y1="3.79906" x2="5.10428" y2="12.5174" gradientUnits="userSpaceOnUse">
<stop stop-color="#FF00FF"/>
<stop offset="1" stop-color="#0000FF"/>
</linearGradient>
<linearGradient id="paint84_linear_2684_13824" x1="14.0114" y1="4.53573" x2="5.75782" y2="13.3175" gradientUnits="userSpaceOnUse">
<stop stop-color="#FF00FF"/>
<stop offset="1" stop-color="#0000FF"/>
</linearGradient>
<linearGradient id="paint85_linear_2684_13824" x1="14.721" y1="5.2799" x2="6.30571" y2="14.2284" gradientUnits="userSpaceOnUse">
<stop stop-color="#FF00FF"/>
<stop offset="1" stop-color="#0000FF"/>
</linearGradient>
<linearGradient id="paint86_linear_2684_13824" x1="15.3559" y1="6.01984" x2="6.94081" y2="14.9683" gradientUnits="userSpaceOnUse">
<stop stop-color="#FF00FF"/>
<stop offset="1" stop-color="#0000FF"/>
</linearGradient>
<linearGradient id="paint87_linear_2684_13824" x1="16.1766" y1="6.96151" x2="7.89994" y2="15.7379" gradientUnits="userSpaceOnUse">
<stop stop-color="#FF00FF"/>
<stop offset="1" stop-color="#0000FF"/>
</linearGradient>
<linearGradient id="paint88_linear_2684_13824" x1="16.4414" y1="7.63721" x2="7.65362" y2="16.3891" gradientUnits="userSpaceOnUse">
<stop stop-color="#FF00FF"/>
<stop offset="1" stop-color="#0000FF"/>
</linearGradient>
<linearGradient id="paint89_linear_2684_13824" x1="16.91" y1="7.41579" x2="7.65551" y2="16.9535" gradientUnits="userSpaceOnUse">
<stop stop-color="#FF00FF"/>
<stop offset="1" stop-color="#0000FF"/>
</linearGradient>
<linearGradient id="paint90_linear_2684_13824" x1="13.3263" y1="3.60683" x2="4.08043" y2="13.1404" gradientUnits="userSpaceOnUse">
<stop stop-color="#FF00FF"/>
<stop offset="1" stop-color="#0000FF"/>
</linearGradient>
<linearGradient id="paint91_linear_2684_13824" x1="13.863" y1="4.33989" x2="5.06842" y2="13.0987" gradientUnits="userSpaceOnUse">
<stop stop-color="#FF00FF"/>
<stop offset="1" stop-color="#0000FF"/>
</linearGradient>
<linearGradient id="paint92_linear_2684_13824" x1="14.532" y1="4.97477" x2="6.25402" y2="13.7478" gradientUnits="userSpaceOnUse">
<stop stop-color="#FF00FF"/>
<stop offset="1" stop-color="#0000FF"/>
</linearGradient>
<linearGradient id="paint93_linear_2684_13824" x1="15.1931" y1="5.64427" x2="6.88862" y2="14.553" gradientUnits="userSpaceOnUse">
<stop stop-color="#FF00FF"/>
<stop offset="1" stop-color="#0000FF"/>
</linearGradient>
<linearGradient id="paint94_linear_2684_13824" x1="15.7639" y1="6.31121" x2="7.46024" y2="15.2143" gradientUnits="userSpaceOnUse">
<stop stop-color="#FF00FF"/>
<stop offset="1" stop-color="#0000FF"/>
</linearGradient>
<linearGradient id="paint95_linear_2684_13824" x1="16.3157" y1="6.97658" x2="7.72136" y2="15.9667" gradientUnits="userSpaceOnUse">
<stop stop-color="#FF00FF"/>
<stop offset="1" stop-color="#0000FF"/>
</linearGradient>
<linearGradient id="paint96_linear_2684_13824" x1="16.9005" y1="6.89988" x2="7.50727" y2="16.8713" gradientUnits="userSpaceOnUse">
<stop stop-color="#FF00FF"/>
<stop offset="1" stop-color="#0000FF"/>
</linearGradient>
<linearGradient id="paint97_linear_2684_13824" x1="14.3518" y1="4.50252" x2="4.95834" y2="14.4743" gradientUnits="userSpaceOnUse">
<stop stop-color="#FF00FF"/>
<stop offset="1" stop-color="#0000FF"/>
</linearGradient>
<linearGradient id="paint98_linear_2684_13824" x1="14.8652" y1="5.26392" x2="6.27514" y2="14.2495" gradientUnits="userSpaceOnUse">
<stop stop-color="#FF00FF"/>
<stop offset="1" stop-color="#0000FF"/>
</linearGradient>
<linearGradient id="paint99_linear_2684_13824" x1="15.4098" y1="5.94075" x2="6.82034" y2="14.8358" gradientUnits="userSpaceOnUse">
<stop stop-color="#FF00FF"/>
<stop offset="1" stop-color="#0000FF"/>
</linearGradient>
<linearGradient id="paint100_linear_2684_13824" x1="15.9129" y1="6.53457" x2="7.3289" y2="15.4336" gradientUnits="userSpaceOnUse">
<stop stop-color="#FF00FF"/>
<stop offset="1" stop-color="#0000FF"/>
</linearGradient>
<linearGradient id="paint101_linear_2684_13824" x1="13.4555" y1="3.3935" x2="4.16905" y2="13.229" gradientUnits="userSpaceOnUse">
<stop stop-color="#FF00FF"/>
<stop offset="1" stop-color="#0000FF"/>
</linearGradient>
<clipPath id="clip0_2684_13824">
<rect width="16" height="16" fill="white"/>
</clipPath>
<clipPath id="clip1_2684_13824">
<rect width="12" height="12" fill="white" transform="translate(2 2)"/>
</clipPath>
</defs>
</svg>
